<svg class="main-svg" xmlns="http://www.w3.org/2000/svg" xmlns:xlink="http://www.w3.org/1999/xlink" width="1000" height="600" style="" viewBox="0 0 1000 600"><rect x="0" y="0" width="1000" height="600" style="fill: rgb(255, 255, 255); fill-opacity: 1;"/><defs id="defs-df8a57"><g class="clips"><clipPath id="clipdf8a57xyplot" class="plotclip"><rect width="692" height="420"/></clipPath><clipPath class="axesclip" id="clipdf8a57x"><rect x="80" y="0" width="692" height="600"/></clipPath><clipPath class="axesclip" id="clipdf8a57y"><rect x="0" y="100" width="1000" height="420"/></clipPath><clipPath class="axesclip" id="clipdf8a57xy"><rect x="80" y="100" width="692" height="420"/></clipPath></g><g class="gradients"/></defs><g class="bglayer"/><g class="layer-below"><g class="imagelayer"/><g class="shapelayer"/></g><g class="cartesianlayer"><g class="subplot xy"><g class="layer-subplot"><g class="shapelayer"/><g class="imagelayer"/></g><g class="gridlayer"><g class="x"><path class="xgrid crisp" transform="translate(149.44,0)" d="M0,100v420" style="stroke: rgb(238, 238, 238); stroke-opacity: 1; stroke-width: 1px;"/><path class="xgrid crisp" transform="translate(241.23,0)" d="M0,100v420" style="stroke: rgb(238, 238, 238); stroke-opacity: 1; stroke-width: 1px;"/><path class="xgrid crisp" transform="translate(310.66999999999996,0)" d="M0,100v420" style="stroke: rgb(238, 238, 238); stroke-opacity: 1; stroke-width: 1px;"/><path class="xgrid crisp" transform="translate(380.1,0)" d="M0,100v420" style="stroke: rgb(238, 238, 238); stroke-opacity: 1; stroke-width: 1px;"/><path class="xgrid crisp" transform="translate(471.9,0)" d="M0,100v420" style="stroke: rgb(238, 238, 238); stroke-opacity: 1; stroke-width: 1px;"/><path class="xgrid crisp" transform="translate(541.3299999999999,0)" d="M0,100v420" style="stroke: rgb(238, 238, 238); stroke-opacity: 1; stroke-width: 1px;"/><path class="xgrid crisp" transform="translate(610.77,0)" d="M0,100v420" style="stroke: rgb(238, 238, 238); stroke-opacity: 1; stroke-width: 1px;"/><path class="xgrid crisp" transform="translate(702.56,0)" d="M0,100v420" style="stroke: rgb(238, 238, 238); stroke-opacity: 1; stroke-width: 1px;"/></g><g class="y"><path class="ygrid crisp" transform="translate(0,436)" d="M80,0h692" style="stroke: rgb(238, 238, 238); stroke-opacity: 1; stroke-width: 1px;"/><path class="ygrid crisp" transform="translate(0,352)" d="M80,0h692" style="stroke: rgb(238, 238, 238); stroke-opacity: 1; stroke-width: 1px;"/><path class="ygrid crisp" transform="translate(0,268)" d="M80,0h692" style="stroke: rgb(238, 238, 238); stroke-opacity: 1; stroke-width: 1px;"/><path class="ygrid crisp" transform="translate(0,184)" d="M80,0h692" style="stroke: rgb(238, 238, 238); stroke-opacity: 1; stroke-width: 1px;"/></g></g><g class="zerolinelayer"><path class="yzl zl crisp" transform="translate(0,520)" d="M80,0h692" style="stroke: rgb(68, 68, 68); stroke-opacity: 1; stroke-width: 1px;"/></g><path class="xlines-below"/><path class="ylines-below"/><g class="overlines-below"/><g class="xaxislayer-below"/><g class="yaxislayer-below"/><g class="overaxes-below"/><g class="plot" transform="translate(80,100)" clip-path="url('#clipdf8a57xyplot')"><g class="scatterlayer mlayer"><g class="trace scatter trace05a80d" style="stroke-miterlimit: 2; opacity: 1;"><g class="fills"/><g class="errorbars"/><g class="lines"><path class="js-line" d="M0,407.31L69.44,278.02L110.06,305.65L138.88,157.03L161.23,296.32L179.49,327.96L194.94,260.18L208.31,290.04L220.11,371.27L230.67,294.19L240.21,364.11L248.93,409.85L256.95,396.9L264.37,389.12L271.29,391.71L283.82,390.52L289.55,378.72L294.97,346.26L300.1,286.67L304.99,284.54L309.65,275.97L314.11,287.02L318.37,309.82L322.46,275.2L326.39,277.92L330.17,240.1L333.81,256.4L340.72,191.39L344.01,187.83L347.19,228.13L350.27,220.36L353.26,211.56L356.17,194.68L358.99,171.25L361.73,132.25L364.4,98.85L367.01,111L369.54,138.92L372.02,101.35L374.43,101.91L376.79,92.07L379.09,98.25L381.34,132.16L385.7,171.74L387.81,156.75L389.87,170.18L391.9,152.65L393.88,125.42L395.82,138.79L397.73,112.57L399.61,116.27L401.44,161.94L403.25,151.45L405.02,160L406.76,149.84L408.48,148.69L410.16,76.53L411.82,73.43L413.45,123.77L415.05,111.73L416.63,151.09L418.18,128.44L419.71,117.42L421.21,100.34L422.7,110.8L424.16,92.76L425.6,102.75L427.02,74.13L428.42,64.42L429.81,120.21L431.17,81.05L433.84,43.49L435.15,44.65L436.44,50.03L437.72,61.8L438.98,59.86L440.22,61.82L441.45,67.62L442.67,60.84L443.87,77.5L445.05,115.39L446.22,101.96L447.38,102.81L448.53,97.67L449.66,82.66L451.89,127.35L452.98,167.37L455.13,153.26L456.19,169.73L457.24,218.43L458.28,221.01L459.31,218.88L460.33,200.35L461.33,198.74L462.33,230.87L463.32,240.03L464.29,233.93L465.26,234.98L466.22,205.52L467.17,219.88L468.11,193.52L469.04,207.31L469.97,208.34L471.79,216.83L472.69,192.45L473.58,211.18L474.46,197.39L476.2,275.5L477.06,264.29L477.91,270.78L478.76,243.13L479.6,229.23L480.43,244.5L481.25,253.46L482.07,241.9L482.88,242.93L483.69,233.87L484.49,241.93L485.28,268.27L486.06,277.95L486.84,266.28L487.62,289.49L488.38,278.19L489.9,250.71L490.65,238.92L491.4,213.15L492.14,214.57L492.87,195.97L493.6,205.02L495.75,156.97L496.46,161.34L497.16,177.17L497.86,152.01L498.56,168.34L499.24,141.34L499.93,149.09L500.61,119.76L501.28,118.63L501.95,96.66L502.62,72.49L503.28,81.45L504.59,141.65L505.24,133.82L505.88,120.9L506.52,126.3L507.16,138.88L507.79,174.96L508.42,179.4L509.04,220.15L509.66,211.93L510.28,212.9L510.89,206.28L512.1,197.15L512.71,177.23L513.3,185.56L513.9,179.29L515.08,153.54L515.66,179.1L516.82,210.28L517.39,229.53L517.96,238.59L518.53,278.09L519.1,276.47L519.66,265.63L520.22,251.11L520.77,270.09L521.32,261.12L521.87,265.75L522.96,247.29L523.5,243.86L524.57,204.38L525.1,197.71L525.63,184.38L526.16,213.29L526.68,215.77L527.2,212.06L527.72,204.33L528.23,217.44L528.75,216.01L529.26,203.3L531.27,243.8L531.77,214.15L532.26,210.01L532.75,179.26L533.24,159.03L533.73,184.27L534.22,177.93L534.7,181.54L535.18,156.37L535.66,182.6L537.08,116.26L537.55,128.21L538.02,163.19L538.48,153.29L538.94,146.01L539.4,114.6L539.86,125.83L540.32,118.64L540.77,100.66L541.23,102.18L541.68,106.13L543.01,75.63L543.46,87.63L543.9,67.89L544.34,80.07L544.77,91.75L545.21,88.9L545.64,72.28L546.07,67.7L546.5,67.81L546.93,69.47L547.35,70.45L547.78,59.74L548.62,70.72L549.04,55.95L549.45,50.47L549.87,58.02L550.28,58.85L550.69,55.64L551.51,70.62L551.92,67.2L552.32,60.11L552.72,63.78L553.12,63.44L553.52,83.05L553.92,87.73L554.32,106.78L555.5,118.94L555.89,105.16L556.28,105.38L556.67,103.88L557.44,127.56L557.82,121.74L558.2,122.96L558.58,105.57L558.96,126.16L559.34,122.74L559.72,134.73L560.09,147.95L560.46,140.29L560.83,143.74L561.94,92.84L562.31,95.51L563.4,132.89L563.76,130.08L564.12,127.03L565.19,166.8L565.55,162.52L566.6,178.66L566.95,162.81L567.65,197.17L567.99,209.96L568.68,195.09L569.02,209.53L571.05,154.16L571.39,160.1L573.05,113.35L573.37,118.32L573.7,123.49L574.03,101.67L575.96,127.09L576.28,131.79L576.59,142.44L576.91,124.44L577.23,127L577.54,112.28L577.85,115.69L578.17,101.84L578.48,99L578.79,83.43L579.72,94.5L580.02,95.74L580.33,101.79L580.63,97.12L580.94,91.7L582.74,150.09L583.04,141.33L583.34,142.15L583.63,160.17L584.22,137.95L584.52,140.12L584.81,144.21L585.1,157.13L585.39,139.35L585.68,152.12L585.97,153.19L586.83,119.21L587.12,122.41L587.4,113.5L587.69,110.37L587.97,98.01L588.25,100.5L588.53,92.51L589.1,90.58L590.49,117.76L590.76,91.27L591.31,109.73L591.58,100.22L591.86,96.98L593.21,128.03L593.48,118.51L593.74,103.7L594.01,111.32L594.28,123.05L594.54,123.33L594.81,129.16L595.07,131.5L595.33,143.98L595.6,141.21L595.86,152.77L596.12,147.51L596.38,164.74L596.9,162.6L597.16,166.66L597.42,190.69L597.93,168.56L598.18,155.49L598.44,156.4L598.69,145.56L599.45,132.61L599.71,146.98L600.46,178.04L600.71,155.41L600.96,147.19L601.21,159.72L601.45,173.81L602.19,203.6L602.44,189.63L602.93,188.03L603.41,209.99L603.65,190.51L603.9,189.91L604.14,169.06L604.38,166.54L604.62,154.12L605.1,147.19L605.33,130.94L606.28,149.04L606.52,121.7L607.69,101.25L607.92,108.58L608.15,126.23L608.84,121.93L609.07,130.98L609.53,144.05L609.76,136.58L609.98,130.98L610.44,116.78L610.89,118.54L611.11,131.04L611.78,102.75L612.23,104.13L612.45,113.76L612.67,112.51L612.89,114.92L613.11,120.63L614.43,102.04L614.64,105.47L614.86,116.29L615.29,105.9L615.51,119.89L615.72,117.54L615.94,105.53L617,74.96L617.42,75.75L617.63,75.38L618.26,97L618.47,87.55L618.68,82.78L619.72,53.21L619.92,57.36L620.13,58.96L620.33,50.13L620.74,45.84L620.95,47.04L621.15,49.34L622.16,72.03L622.36,59.74L622.56,64.54L622.76,60.53L622.96,55.91L623.36,68.13L623.56,76.79L624.74,56.8L624.94,61.82L625.13,66.84L625.33,61.1L625.72,66.66L625.91,63.32L628.21,131.55L628.4,103.6L629.15,89.52L629.34,92.57L629.53,94.88L630.46,103.72L630.64,91.44L630.83,96.57L631.2,87.81L631.38,91.78L631.56,92.85L631.75,85.24L632.11,89.37L632.29,98.25L632.47,99.05L632.66,107.36L633.38,129.05L633.56,117.55L633.74,108.73L633.92,111.4L634.09,126.84L634.27,138.4L634.63,115.74L634.81,117.49L635.34,124L635.69,122.46L635.86,116.19L636.39,106.56L636.56,107.66L636.74,113.24L636.91,121.96L637.26,107.81L637.43,108.44L637.78,120.92L637.95,105.62L638.12,105.81L638.29,111.48L638.46,112.99L638.63,110.41L638.8,119.85L639.14,124.49L639.65,99.4L639.82,104.11L639.99,116.08L640.16,116.43L640.32,119.24L640.66,124.18L640.83,123.8L640.99,115.93L641.33,101.44L641.82,112.01L641.99,112.62L642.32,122.09L642.65,113.14L642.81,107.68L643.79,139.76L643.95,137.17L644.11,130.4L644.27,133.1L644.43,118.92L644.92,122.43L645.08,131.52L645.4,116.58L645.56,141.04L645.71,143.22L645.87,138.46L646.03,139.67L646.19,131.39L646.66,145.74L646.98,142.59L647.14,140.84L647.45,142.91L647.6,156.54L647.92,154.41L648.23,165.54L648.54,162.46L648.69,180.63L648.85,178.18L649.15,183.34L649.31,183.32L649.46,168.18L649.92,183.19L650.07,182.59L650.37,167.72L650.83,176.39L650.98,178.3L651.43,194.96L651.58,209.16L651.73,208.35L651.88,227.52L652.03,229.78L652.18,246.07L652.48,214.83L653.07,226.25L653.22,229.29L653.37,232.29L653.66,225.27L653.81,222.15L654.1,225.3L654.68,211.43L654.83,205.36L654.97,212.02L655.26,203.66L655.41,185.43L656.27,206.87L656.41,192.34L656.98,228.42L657.55,222.59L657.69,216.67L657.97,234.48L658.39,223.04L658.53,222.8L658.81,219.24L659.09,226.56L659.23,242.59L660.06,225.14L660.2,223.87L660.47,232.82L660.61,223.74L660.75,211.05L661.29,210.64L662.65,263.02L662.78,276.34L663.58,248.32L663.71,253.43L663.85,255.8L664.24,278.88L664.64,268.14L664.77,268.86L665.16,263.35L665.3,260.29L665.56,240.87L665.69,227.93L665.95,221.31L666.85,258.21L667.11,250.11L667.24,227.43L668.26,170.73L668.39,179.01L668.51,191.72L669.02,211.69L669.14,223.01L670.52,263.47L670.64,263.15L670.77,262.02L670.89,262.58L671.01,250.97L671.14,244.56L671.38,251.02L671.51,267.94L672.24,243.99L672.61,253.23L672.73,254.5L672.85,248L673.09,272.04L673.21,284.24L673.33,284.6L673.45,282.85L673.58,278.34L673.7,273.82L673.82,280.18L673.94,279.46L674.06,289.73L674.29,287.38L674.41,294.95L675.48,335.54L675.6,320.43L675.72,329.55L676.19,317.18L676.31,312.93L676.54,321.47L676.77,308.85L676.89,306.89L678.16,270.96L678.28,272.04L678.39,272.89L678.51,287.93L678.62,285.94L678.74,298.42L679.19,280.83L679.31,290.73L679.42,296.4L679.53,289.6L680.1,299.94L680.21,308.17L680.33,317.68L680.66,306.49L680.78,293.57L681.67,249.72L681.89,252.45L682,257.78L682.44,265.58L683.76,201.13L683.86,211.13L683.97,211.7L684.19,203.15L684.51,205.84L684.62,219.81L684.84,201.97L685.05,219.83L685.48,208.1L685.59,214.01L686.12,173.84L686.33,202.05L686.44,220.01L687.18,232.44L687.28,238.43L687.39,233.57L687.7,247.07L687.91,237.8L688.01,239.74L688.43,258.42L688.85,250.15L688.95,247.94L689.57,264.71L689.67,257.46L689.77,256.55L689.87,257.2L689.98,249.69L690.28,236.51L690.69,252.16L690.79,249.14L692,298.04" style="vector-effect: non-scaling-stroke; fill: none; stroke: rgb(31, 119, 180); stroke-opacity: 1; stroke-width: 2px; opacity: 1;"/></g><g class="points"/><g class="text"/></g><g class="trace scatter tracee5c998" style="stroke-miterlimit: 2; opacity: 1;"><g class="fills"/><g class="errorbars"/><g class="lines"><path class="js-line" d="M0,258.19L69.44,233.22L110.06,340.25L138.88,217.31L161.23,364.04L179.49,392.37L194.94,357.93L208.31,221.2L220.11,184.4L230.67,161.26L240.21,85.69L248.93,105.48L256.95,106.16L264.37,98.64L271.29,135.13L277.75,160.73L283.82,105.4L289.55,153.05L294.97,172.08L300.1,190.35L304.99,351.71L309.65,309L314.11,175.41L318.37,208.23L322.46,184.76L326.39,204.71L330.17,250.82L333.81,187.74L337.33,92.55L340.72,101.02L344.01,81.07L350.27,39.34L353.26,48.67L356.17,54.62L358.99,44.25L361.73,59.65L364.4,97.04L367.01,109.5L369.54,116.63L372.02,90.76L374.43,86.24L376.79,107.78L379.09,92.67L381.34,84.98L383.54,70.58L385.7,27.31L387.81,29.68L389.87,27.23L391.9,28.8L393.88,6.13L395.82,3.91L399.61,6.77L401.44,19.26L403.25,14.79L405.02,15.33L406.76,13.21L408.48,12.42L410.16,17.65L411.82,15.05L413.45,23.43L415.05,25.82L416.63,29.68L418.18,26L419.71,26.25L421.21,24.86L422.7,22.09L424.16,12.74L425.6,23.76L427.02,18.5L431.17,29.56L432.51,27.28L433.84,46.98L435.15,50.19L438.98,85.59L440.22,98.65L442.67,123.5L443.87,121.07L446.22,202.45L447.38,197.29L448.53,157.95L449.66,187.67L451.89,217.57L452.98,193L454.06,189.76L455.13,182.57L456.19,216.23L457.24,217.28L458.28,241.02L459.31,245.04L460.33,234.25L461.33,233.39L463.32,203.48L464.29,233.39L465.26,243.23L466.22,230.62L467.17,226.8L468.11,210.92L469.04,184.42L469.97,184.24L470.88,181.79L471.79,187.57L472.69,160.1L473.58,180.99L475.33,165.29L476.2,206.47L477.91,172.03L478.76,212.85L479.6,240.02L480.43,213.27L481.25,224.91L482.07,201.43L482.88,210.63L483.69,191.1L484.49,190.27L485.28,226.53L486.06,264.01L486.84,258.26L487.62,270.49L488.38,233.15L490.65,256.29L491.4,255.05L492.14,259.56L492.87,278.15L494.32,244.17L495.04,249.42L495.75,263.4L496.46,305.21L498.56,352.89L499.24,347.18L500.61,363.52L501.28,367.64L502.62,352.23L503.28,353.34L504.59,352.52L505.24,349.22L507.16,338.16L507.79,348.78L508.42,348.18L509.04,331.56L510.28,326.4L510.89,333.55L511.5,346.88L512.1,346.08L512.71,356.34L513.9,357.18L514.49,338.26L515.08,345.46L515.66,337.17L516.24,353.46L516.82,333.21L517.96,338.97L518.53,336.84L519.1,344.75L519.66,331.63L520.22,317.59L520.77,332.56L521.87,306.1L522.42,301.63L524.04,239.37L524.57,236.25L526.16,261.07L526.68,244.69L528.75,204.14L529.26,187.32L530.27,162.36L530.77,191.1L531.27,197.55L531.77,171.78L532.26,150.97L532.75,165.39L533.73,152.8L534.22,156.64L534.7,159.55L535.18,156.86L535.66,153.36L536.13,174.83L536.61,195.96L537.08,195.71L537.55,204.29L538.02,213.4L538.48,172.53L538.94,178.58L539.4,157.94L539.86,138.94L540.32,146.1L540.77,145.16L541.68,168.92L542.12,157.09L542.57,156.27L543.01,172.98L543.46,162.89L543.9,177.84L545.64,138.27L546.07,141.37L547.35,113.12L547.78,97.59L549.04,102.6L549.45,103.78L551.51,149.34L551.92,141.46L552.32,141.4L552.72,123.74L554.32,153.08L554.71,136.33L555.89,94.71L556.28,107.49L556.67,106.81L557.05,103.7L557.44,95.08L557.82,95.98L558.2,105.74L558.96,124.26L559.34,121.51L559.72,96L560.83,76.44L561.2,85.07L561.57,81.5L561.94,87.61L563.04,134L563.4,125.36L563.76,91.45L564.12,106.35L564.48,120.5L565.19,111.83L565.55,115.1L566.6,150.72L566.95,127.81L567.3,117.58L567.99,118.11L568.34,116.06L568.68,116.91L569.02,116.68L569.37,122.44L571.39,163.52L571.72,155.4L572.05,169.01L572.39,148.55L574.03,112.16L574.35,124.49L574.67,125.12L575,121.22L575.64,111.14L575.96,111.37L576.28,130.87L576.91,134.89L577.23,110.15L577.54,106.35L577.85,117.95L578.17,120.15L578.48,130.64L578.79,148.29L579.1,139.67L579.41,131.24L579.72,115.29L580.02,159.53L580.94,112.78L581.24,125.25L581.54,125.78L581.84,126.07L582.14,106.24L582.74,83.91L583.04,103.17L583.93,73.83L584.22,85.65L584.52,97.76L585.39,73.28L585.68,75.52L585.97,79.06L586.26,77.51L586.55,93.05L586.83,96.12L587.12,93.96L587.4,91.41L587.69,97.06L587.97,94.59L588.25,78.59L588.53,70.48L588.82,77.03L589.1,78.7L589.38,70.26L589.65,79.07L589.93,79.75L591.58,104.89L591.86,95.25L592.4,101.86L592.67,94.01L592.94,94.89L593.21,85.39L593.48,84.25L593.74,86.94L594.54,74.33L594.81,81.76L595.33,80.73L595.6,93.36L595.86,89.04L596.12,80.94L597.67,167.92L597.93,159.07L598.18,156.37L598.44,162.62L598.69,160.34L598.95,193.59L599.2,195.03L599.45,184.97L599.71,163.5L600.21,178.18L600.46,179.14L600.71,176.86L600.96,167.52L601.7,216.76L601.95,201.44L602.19,193.98L602.44,204.19L602.68,198.1L602.93,188.77L603.65,209.71L603.9,189.29L604.38,195.62L604.86,193.75L605.1,211.29L605.81,241.5L606.05,228.9L606.28,216.99L606.99,239.15L607.22,237.63L607.45,228.09L608.15,245.87L608.38,236.22L608.61,239.01L608.84,244.79L609.07,224.1L609.53,204.91L609.98,210.34L610.21,202L611.78,163.49L612.01,173.96L613.77,257.22L613.99,248.52L614.21,235.13L614.43,233.64L614.64,251.59L615.08,227.37L615.51,243.56L615.72,238.99L616.15,244.56L616.36,235.82L616.58,237.38L616.79,250.34L617,235.16L617.42,241.1L617.63,250.8L617.84,266.61L618.05,256.05L618.26,231.78L618.47,228.75L618.68,248.7L618.89,259.59L619.3,246.66L619.51,255.45L619.72,261.65L620.54,233.62L620.74,241.91L620.95,246.42L621.15,244.02L621.35,262.01L621.76,249.63L621.96,244.91L622.36,256.46L622.56,249.74L622.76,245.09L624.35,288.64L624.55,270.54L624.74,289.79L625.33,286.88L625.52,276.71L625.72,265.14L626.11,276.81L626.3,283.96L627.83,245.54L628.02,252.27L628.4,230.34L628.59,252.59L628.78,253.08L629.15,266.85L629.34,265.73L629.53,258.41L629.9,254.24L630.09,232.04L630.46,243.39L630.64,223.26L630.83,222.05L631.01,238.05L631.2,230.93L631.38,240.17L631.75,235.56L631.93,244.36L632.66,277.24L632.84,261.58L634.09,243.53L634.27,250.28L634.45,270.68L634.98,260.33L635.16,251.94L635.69,275.62L636.21,268.57L636.39,267.44L637.43,244.08L637.6,248.11L637.78,254.61L637.95,241.01L638.29,246.37L638.46,242.62L639.14,222.32L639.31,224.13L639.48,235.59L639.65,241.54L639.82,233.89L639.99,209.44L640.16,210.03L640.32,198.68L640.66,200.71L641.16,158.12L641.49,164.72L641.66,174.05L642.48,201.88L642.65,195.14L642.81,190.28L643.63,161.87L643.79,168.25L643.95,160.83L644.11,193.09L644.43,201.42L644.76,196.61L644.92,194.85L645.08,196.3L645.24,186.96L645.56,171.79L645.87,183.24L646.03,187.16L646.19,188.01L646.35,196.49L646.98,216.01L647.14,207.51L647.29,194.08L647.45,196.03L647.6,211.99L647.92,226.62L648.07,211.31L648.23,208.54L648.38,188.95L648.85,209.89L649,201.12L649.15,199.85L649.31,199.19L649.46,193.25L649.61,184.44L649.77,198.78L650.22,189.24L650.37,187.47L651.43,238.53L651.58,236.51L651.73,223.55L652.33,206.19L652.48,209.85L652.63,214.34L653.51,184.59L653.95,189.37L654.1,192.48L654.39,190.1L654.54,199.53L654.68,194L654.83,190.93L655.55,171.95L655.7,146.32L655.98,151.97L656.13,144.6L656.27,140.03L657.27,119.8L657.41,127.72L657.83,120.13L658.11,124.78L658.25,136.37L658.53,121.07L658.67,136.4L658.81,132.97L658.95,144.03L659.23,160.54L659.65,149.64L659.78,144.34L660.47,173.93L660.61,172.34L660.75,155.68L661.16,131.39L661.57,139.15L661.7,147.31L661.84,150.15L661.97,141.35L662.11,145.61L662.24,136.87L662.38,149.17L662.78,138.15L662.91,124.58L663.18,133.04L663.31,119.05L663.45,130.11L663.71,133.76L663.85,127.43L663.98,142.13L664.51,123.53L664.9,128.96L665.03,140.69L665.16,152.11L665.56,130.77L665.69,130.24L665.95,127.95L666.21,134.02L666.47,130.74L666.59,129.81L666.85,134.12L666.98,118.83L667.24,115.82L667.37,130.64L667.75,123.42L667.88,132.35L668,127.95L668.13,130.69L668.26,134.71L668.51,123.4L668.64,110.99L669.14,90.31L669.52,95.87L669.65,90.15L670.39,104.21L670.52,101.48L670.64,99.03L670.77,101.79L670.89,96.39L671.14,100.06L671.26,92.86L671.38,91.68L671.51,92.98L671.63,92.32L671.75,101.91L672,98.63L672.24,105.64L672.36,93.39L672.97,110.52L673.09,105.58L673.21,99.27L673.33,99.7L673.45,99.05L673.58,102.57L673.94,112.39L674.06,110.67L674.18,100.42L674.53,94.53L675.01,121.13L675.13,132.19L675.72,112.46L675.84,116.61L675.95,127.8L676.89,106.44L677.01,108.77L677.93,129.61L678.05,126.23L678.51,119.34L678.74,138.92L678.85,136.19L678.97,125.27L679.31,142.52L679.53,123.33L679.65,119.67L679.99,147.56L680.33,135.9L680.44,125.74L681.33,100.68L681.45,102.59L681.56,108.83L681.89,126.27L682.22,122.03L682.33,111.24L683.21,100.95L683.32,108.11L683.43,102.77L683.65,114.29L684.08,103.78L684.19,110.65L684.51,111.55L684.73,99.37L684.84,105.83L684.95,112.61L685.05,110.38L685.37,117.94L685.48,118.05L685.59,132.06L686.12,113.05L686.33,131.01L686.44,136.34L686.54,131.2L686.97,146.88L687.07,139.64L687.18,140.23L687.49,146.22L687.6,137.88L688.22,121.71L688.43,123.23L688.53,124.47L688.85,115.73L689.87,165.55L689.98,163.69L690.08,163.34L690.99,125.63L691.09,124.44L691.7,163.8" style="vector-effect: non-scaling-stroke; fill: none; stroke: rgb(255, 127, 14); stroke-opacity: 1; stroke-width: 2px; opacity: 1;"/></g><g class="points"/><g class="text"/></g><g class="trace scatter tracec606a7" style="stroke-miterlimit: 2; opacity: 1;"><g class="fills"/><g class="errorbars"/><g class="lines"><path class="js-line" d="M0,387.12L69.44,61.24L110.06,240.33L138.88,333.92L161.23,256.34L194.94,108.65L208.31,167.16L220.11,140.59L230.67,178.53L240.21,283.73L248.93,253.69L256.95,369.47L264.37,363.88L271.29,382.74L277.75,389.21L283.82,377.9L289.55,379.2L294.97,368.2L300.1,333.21L304.99,288.44L309.65,300.62L314.11,294.16L318.37,338.61L326.39,256.36L330.17,290.87L333.81,249.09L337.33,308.46L340.72,270.12L344.01,315.33L347.19,297.37L350.27,335.36L353.26,338.64L356.17,317.84L358.99,309.46L361.73,284.63L364.4,325.51L367.01,349.57L369.54,296.13L372.02,328.41L374.43,314.61L376.79,286.62L379.09,306.98L381.34,333.85L383.54,328.07L385.7,343L387.81,337.83L389.87,271.31L391.9,263.92L393.88,266.25L395.82,276.74L397.73,304.34L399.61,351.73L401.44,360.55L405.02,316.28L406.76,342.77L408.48,310.06L410.16,337.46L411.82,311.17L413.45,313.41L415.05,314.45L416.63,367.96L418.18,341.84L419.71,358.06L422.7,355.75L424.16,356.55L425.6,384.88L427.02,380.81L428.42,366.29L429.81,369.61L431.17,331.46L432.51,315.22L433.84,320.71L435.15,313.57L436.44,311.6L437.72,289.68L440.22,342.83L441.45,314.92L443.87,276.76L445.05,270.59L446.22,264.05L447.38,278.72L448.53,275.54L449.66,306.24L450.78,318.1L451.89,313.88L452.98,294.21L454.06,297.27L455.13,321.37L456.19,296.25L457.24,273.64L458.28,299.36L459.31,315.52L460.33,310.95L461.33,299.43L462.33,348.81L463.32,350.57L464.29,331.18L465.26,334.15L466.22,302.2L467.17,285.74L468.11,253.27L469.04,254.57L469.97,223.24L470.88,217.52L471.79,238.62L472.69,236.98L473.58,273.35L476.2,228.66L477.06,248.42L477.91,264.48L478.76,256.67L479.6,252.41L480.43,223.75L481.25,220.72L482.07,220.78L482.88,212.86L483.69,185.3L485.28,228.45L486.06,245.63L486.84,280.44L487.62,262.68L488.38,264.3L489.15,278.1L489.9,259.9L490.65,298.98L491.4,314.29L492.14,296.9L492.87,284.74L493.6,295.63L494.32,294.54L495.04,301.14L496.46,292.98L497.16,298.47L499.24,222.75L499.93,228.16L500.61,231.39L501.28,265.22L501.95,278.01L502.62,270.37L503.94,226.19L504.59,230.17L505.24,231.45L505.88,224.45L506.52,223.9L507.16,216.86L507.79,170.88L508.42,179.33L509.04,181.71L509.66,168.41L510.28,168.56L510.89,164.32L511.5,161.56L512.1,167.45L512.71,176.44L513.3,175.19L513.9,166.45L514.49,156.84L515.08,186.02L515.66,171.59L516.24,187.26L517.39,221.65L517.96,215.39L518.53,224.38L519.1,210.2L520.77,168.29L521.32,173.95L521.87,204.58L522.42,171.36L523.5,208.21L524.04,235.34L524.57,249.31L525.1,228.29L526.16,192.95L526.68,196.16L527.2,198.24L527.72,197.03L528.23,190.61L529.26,164.45L529.76,165.01L530.27,172.92L531.27,149.65L531.77,169.9L532.26,164.78L532.75,137.78L533.24,120.47L533.73,130.3L534.22,137.5L534.7,122.18L536.13,99.99L536.61,117.56L537.08,100.83L537.55,112.53L538.02,109.49L538.48,94.96L538.94,77.74L539.4,87.59L539.86,82.29L540.32,79.05L540.77,91.97L541.23,78.06L541.68,87.19L543.01,68.53L543.46,64.17L543.9,60.37L544.34,61.94L544.77,51.24L545.21,51.8L545.64,37.89L546.93,55.7L547.35,43.91L548.2,39.61L548.62,43.17L550.28,22.33L550.69,26.45L551.1,26.17L551.51,28.51L552.72,25.4L553.12,33.55L553.52,31.92L553.92,37.25L554.32,46.93L554.71,42.98L555.11,45.69L555.89,67.04L556.28,61.02L556.67,60.97L557.82,72.32L558.2,72.86L559.72,58.69L560.09,70.99L560.46,67.65L560.83,68.27L561.2,72.8L561.57,76.81L561.94,68.49L562.31,72.93L562.67,72.44L563.04,70.34L563.76,76.31L564.12,62.78L564.48,67.99L565.19,67.43L565.55,68.74L566.6,102.67L566.95,107.11L568.34,68.23L568.68,69.68L569.71,86.48L570.04,87.43L572.05,57.9L572.39,61.89L574.35,134.94L574.67,124.55L575,90.55L576.59,111.06L576.91,105.6L577.23,100.03L577.54,113.9L577.85,105.56L578.17,120.32L579.1,142.92L579.41,136.48L579.72,137.14L580.02,146.3L580.33,135.39L580.63,145.51L580.94,150.19L581.24,150.72L581.54,145.98L581.84,140.66L582.14,145.76L582.44,150.11L583.04,148.99L583.34,165.91L583.63,149.16L583.93,146.07L584.22,146.33L584.52,149.12L584.81,147.6L585.1,130.7L585.39,146.49L585.68,141.56L585.97,135.42L586.26,130.54L586.55,106.29L587.4,111.5L587.69,104.55L588.25,99.55L588.53,88.48L588.82,90.51L589.1,87.45L589.38,86.42L589.65,76.47L590.21,81.34L590.49,86.26L590.76,84.69L591.04,69.09L591.31,69.01L591.58,71.37L591.86,77.34L592.13,72.73L592.4,71.12L594.28,35.98L594.54,46.76L595.07,51.3L595.33,51.24L595.6,58L596.64,55.47L596.9,56.73L598.18,31.31L598.44,35.77L598.95,42.56L599.2,41.97L599.45,38.2L599.96,50.46L600.21,46.66L600.46,40.8L601.45,26.99L601.7,31.86L601.95,33.58L602.68,22.05L602.93,27.52L603.17,32.11L603.65,33.54L603.9,38.55L604.86,27.86L605.1,32.77L605.57,18.83L606.05,21.5L606.28,24.86L607.22,22.1L607.69,22.94L607.92,23.53L609.07,34.38L609.3,31.53L609.53,30.58L609.76,25.5L609.98,24.5L610.21,28.51L610.66,27.26L610.89,20.98L611.11,19.62L611.34,22.71L611.56,21.83L611.78,24.1L612.23,22.29L612.45,22.22L612.89,21.05L613.33,25.54L613.55,26.28L613.77,26.6L613.99,21.12L614.64,25.94L614.86,24L615.08,26.01L615.72,30.68L615.94,39.02L617,22.61L617.21,25.88L617.84,22.93L618.05,25.23L618.68,29.95L618.89,29.73L619.1,27.13L619.51,27.56L619.72,23.09L619.92,24.95L620.13,25.32L620.33,23.03L620.54,27.16L620.74,30.66L621.76,23.88L621.96,22.86L622.16,20.93L622.36,25.43L622.56,30.52L622.76,30.3L622.96,31.75L623.76,41.3L623.96,38.73L624.15,37.55L624.35,33.71L624.55,39.44L624.74,43.02L625.72,33.25L625.91,38.03L626.11,36.67L626.3,28.29L626.68,24.78L627.07,26.45L627.26,26.44L627.45,26.61L627.64,22.42L628.02,25.18L628.21,22.54L629.71,11.84L629.9,13.76L630.83,10.67L631.01,9.54L631.38,8.48L631.56,9.41L631.75,11.01L631.93,11.26L632.11,14.74L633.2,20.34L633.38,18.06L634.27,13.09L634.45,17.9L635.34,11.1L635.51,12.9L636.39,14.8L636.56,13.46L637.43,17.59L637.6,14.45L638.29,9.62L638.8,9.96L638.97,13.1L639.31,9.19L639.82,9.29L639.99,9.92L640.49,13.82L640.66,11.34L640.99,15.78L641.16,14.22L641.33,12.17L642.15,25.59L642.65,23.34L642.81,22.17L643.79,28.73L643.95,25.46L644.27,17.41L644.43,24.52L644.6,28.79L644.76,26.66L644.92,28.85L645.08,33.06L645.71,44.59L646.03,41.68L646.19,40.23L646.66,30.79L646.98,37.71L647.14,39.54L647.76,30.82L648.07,31.35L648.23,32.55L649,41.6L649.15,36.19L649.31,37L649.46,37.57L649.61,43.85L650.37,66.35L650.53,59.62L650.68,54.32L650.83,54.62L650.98,52.83L651.13,51.99L651.28,57.2L651.58,45.67L652.03,50.14L652.18,51.04L652.33,52.73L652.48,47.07L652.63,43.22L653.81,59.13L653.95,53.58L655.7,30.45L655.84,31.58L655.98,31.67L656.13,33.39L656.7,21.27L657.12,23.63L657.27,26.92L657.41,24.36L657.83,29.61L657.97,28.72L658.25,22.51L658.67,25.98L658.81,26.68L659.09,25.3L659.23,21.95L659.37,21.19L659.65,23.56L659.78,22.04L659.92,27.67L660.34,30.51L660.47,27.39L660.61,26.27L660.75,26.74L660.88,24.21L661.43,25.7L661.57,21.78L661.7,22.62L661.84,22.54L662.24,18.43L662.65,19.09L662.78,21.17L663.45,13.64L663.85,14.18L663.98,17.77L664.51,23.77L664.64,27.38L665.16,27.03L665.95,51.27L666.08,50.98L667.11,74.38L667.24,69.95L667.75,63.58L668.13,78.37L668.26,77.12L668.64,74.05L669.02,85.18L669.14,81.11L669.65,83.43L670.02,52.47L670.15,57.57L670.27,61.29L670.39,62.57L670.52,58.88L670.64,54.78L670.89,58.42L671.51,44.11L671.63,44.26L671.75,48.19L672.49,53.82L672.61,50.95L672.73,47.87L672.97,45.98L673.09,40.83L673.58,37.62L673.94,47.35L674.06,40.54L674.29,39.2L674.41,30.06L675.72,48.82L675.84,44.61L675.95,53.72L676.07,56.75L676.31,46.71L676.42,44.56L676.54,44.79L676.66,43.94L676.77,47L677.01,53.52L677.36,41.15L677.47,40.02L677.59,40.45L677.7,43.65L678.05,52.73L678.51,48.48L678.62,43.58L678.85,41.3L678.97,45.9L679.08,50.77L679.19,57.27L679.53,43.78L679.65,45.17L679.76,44.82L679.87,42.48L679.99,54.73L680.1,54.11L681.22,93.98L681.33,92.53L681.45,86.46L681.67,85.02L681.78,79.96L681.89,87.24L682.22,68.66L682.44,74.93L682.55,78.5L683.54,106.75L683.65,96.41L683.86,109.76L684.3,104.24L684.41,98.79L684.51,93.42L684.95,106.67L685.05,105.91L685.37,95.73L685.69,110.1L685.8,108.85L686.97,147.46L687.07,147.28L688.12,103.47L688.22,104.2L688.33,104.33L688.64,102.92L689.36,133.85L689.46,130.22L689.57,136.83L689.98,121.93L690.18,128.6L690.28,134.34L690.38,135.55L690.49,149.04L691.5,202.43L691.6,202.35L691.7,203.58" style="vector-effect: non-scaling-stroke; fill: none; stroke: rgb(44, 160, 44); stroke-opacity: 1; stroke-width: 2px; opacity: 1;"/></g><g class="points"/><g class="text"/></g><g class="trace scatter trace97027e" style="stroke-miterlimit: 2; opacity: 1;"><g class="fills"/><g class="errorbars"/><g class="lines"><path class="js-line" d="M0,119.32L69.44,304.48L110.06,299.01L138.88,361.49L161.23,395.19L179.49,402.67L194.94,295.29L208.31,323.97L220.11,302.2L230.67,237.29L240.21,300.09L248.93,357.03L256.95,309.04L264.37,259.23L271.29,200L277.75,232.18L283.82,159.31L289.55,137.43L294.97,171.58L300.1,262.83L304.99,244.47L314.11,218.07L318.37,159L322.46,141.5L326.39,232.33L333.81,363.51L337.33,357.18L340.72,372.86L344.01,354.17L347.19,364.18L350.27,331.28L353.26,287.33L356.17,293.22L358.99,274L361.73,264.3L364.4,272.56L367.01,214.82L369.54,257.4L372.02,251.06L374.43,314.29L376.79,317.96L379.09,366.53L381.34,346.64L383.54,346.35L385.7,334.63L387.81,331.56L389.87,333.72L391.9,361.52L393.88,356.1L395.82,354.86L397.73,378.17L399.61,366.8L401.44,392.76L403.25,387.7L405.02,376.79L406.76,375.64L408.48,381.71L410.16,397.62L411.82,400.46L416.63,375.1L418.18,377.89L419.71,387.89L421.21,383.21L422.7,391.18L424.16,388.78L425.6,376.85L427.02,373.95L428.42,370.63L429.81,315.44L433.84,368.77L435.15,371.89L436.44,385.57L437.72,390.77L438.98,383.25L440.22,362.32L441.45,356.25L442.67,343.19L445.05,333.43L446.22,307.88L447.38,305.12L448.53,335.34L449.66,357.16L450.78,341.58L454.06,367.32L455.13,357.9L457.24,385.59L458.28,393.18L459.31,388.76L460.33,366.81L461.33,354.54L462.33,331.87L463.32,328.13L464.29,327.86L467.17,295.31L468.11,264.17L469.04,269L469.97,239.51L470.88,237.35L471.79,252.66L473.58,268.36L474.46,298.71L476.2,277.58L477.06,271.24L477.91,247.8L478.76,196.15L479.6,169.16L480.43,170.59L482.88,312.13L483.69,313.37L485.28,308.51L486.06,302.93L488.38,326.61L489.15,310.25L490.65,343.49L491.4,343.07L493.6,368L494.32,361.76L497.16,347.54L497.86,325.32L498.56,309.98L499.24,314.55L499.93,332.38L500.61,317.03L501.28,315.87L501.95,335.72L502.62,343.49L503.28,343.11L503.94,345.27L504.59,364.92L505.24,346.46L505.88,347.08L506.52,320.3L507.16,314.96L507.79,335.05L508.42,335.51L509.04,326.91L510.28,304.78L510.89,289.61L511.5,296.67L512.1,293.78L512.71,258.94L513.3,265.28L513.9,265.18L514.49,267.56L515.08,281.07L515.66,279.15L516.24,259.63L516.82,252.6L517.39,271.92L519.1,198.94L519.66,216.57L521.32,263.11L521.87,249.7L522.96,223.15L523.5,255.91L524.04,259.41L524.57,236.55L525.1,247.61L525.63,239.96L526.68,210.91L527.2,180.52L527.72,183.39L528.23,202.15L529.26,226.54L529.76,227.44L531.27,254.81L531.77,242.64L532.26,257.23L532.75,251.69L533.24,262.17L533.73,261.26L534.22,252.54L534.7,264.09L535.18,256.82L536.13,221.34L536.61,229L537.08,204.18L537.55,219.11L538.48,249.25L538.94,246.09L540.32,276.03L540.77,259.64L542.12,229.18L542.57,237.62L543.01,233.25L543.46,235.6L543.9,214.02L544.34,206.84L544.77,161.51L545.21,151.98L545.64,109.78L546.07,109.47L546.5,100.92L546.93,112.27L547.35,109.33L547.78,95.29L548.2,91.92L548.62,98.86L549.45,131.29L549.87,131.13L550.28,134.93L550.69,135.47L551.1,125.17L553.92,71.69L554.32,73L554.71,57.55L555.11,78.88L555.89,59.57L556.28,59.81L556.67,63.39L558.2,103.02L558.58,90.79L560.09,56.43L560.46,59.38L560.83,61.75L561.2,56.38L561.57,57.19L561.94,55.02L562.67,74.55L563.04,60.99L563.4,52.67L563.76,59.15L564.12,62.99L564.48,61.16L564.83,65.31L565.19,70.56L565.55,88.18L565.9,94.7L566.25,85.99L566.6,86.85L566.95,83.43L567.3,98.31L567.65,88.43L567.99,86.93L569.71,45.12L570.04,47.61L570.38,47.85L570.72,44.17L571.05,47.28L571.39,60.49L571.72,65.56L572.05,55.68L572.72,59.51L573.05,48.55L573.37,49.29L573.7,62.65L574.67,46.73L575,54.03L576.59,72.25L576.91,65.96L577.23,68.17L577.54,62.55L579.1,133.9L579.41,138.69L581.24,88.8L581.54,105.57L581.84,107.11L582.14,100.98L583.04,152.21L583.34,140.34L583.63,124.41L584.52,145.82L584.81,149.5L585.68,168.47L585.97,164.53L586.26,170.42L586.55,159.06L586.83,172.3L587.12,172.01L587.69,193.03L587.97,181.66L589.1,219.62L589.38,219.38L589.65,208.01L590.49,201.08L590.76,202.65L591.04,198.11L591.31,207.56L592.4,195.71L592.67,228.47L593.48,257.44L593.74,250.72L594.01,238.77L595.07,210.16L595.33,214.91L596.38,193.14L596.64,199.8L596.9,196.8L597.16,216.84L598.18,258L598.44,245.61L599.71,199.2L599.96,169.69L600.21,168.42L600.46,161.51L600.71,159.07L600.96,161.33L601.21,147.67L601.45,146.51L601.7,128.6L602.19,144.51L602.44,124.1L602.93,121.16L603.17,125.23L604.38,76.11L604.62,81.52L604.86,81L605.1,78.95L605.33,91.5L605.57,107.27L606.05,90.35L606.28,90.77L606.52,88.01L606.75,71.79L606.99,82.85L607.45,73.88L607.69,66.24L607.92,65.96L608.15,59.14L608.61,50.04L608.84,54.33L609.07,56.27L609.3,51.82L609.53,65.56L609.98,91.21L610.44,82.98L610.66,83.31L612.01,54.59L612.23,69.72L612.67,66.69L612.89,74.45L613.77,94.84L613.99,87.76L614.21,79.06L614.43,81.32L614.64,92.87L615.51,61.9L615.94,66L616.15,67.37L616.58,47.49L617,55.21L617.21,59.45L617.63,66.02L617.84,63.25L618.05,59.7L618.68,66.35L618.89,60.05L619.1,61.77L619.3,60.06L619.51,56.48L620.13,71.17L620.33,66.09L620.54,63.44L620.74,62.58L620.95,55.91L621.76,71.85L621.96,65.13L622.16,67.08L622.36,51.77L622.76,47.94L623.16,50.06L623.36,54.06L623.76,53.66L623.96,59.18L624.15,53.5L624.55,61.15L624.74,64.5L625.33,77.49L625.52,73.76L625.72,69.9L625.91,75.31L626.3,71.68L626.49,69.09L626.68,69.04L626.88,79.79L628.21,100.13L628.4,86.3L629.34,109.64L629.53,106.06L629.71,93.44L631.38,66.08L631.56,67.39L632.47,80.58L632.66,73.92L633.02,82.25L633.2,67.61L633.38,64.48L633.56,76.86L633.92,58.79L634.09,60.9L635.34,87.93L635.51,102.39L636.04,93.51L636.21,102.14L637.26,124.53L637.43,116.82L637.6,105.29L637.95,126.19L638.12,117.79L638.29,120.33L638.46,120.26L638.63,127.5L638.8,142.56L639.14,120.09L639.31,136.3L639.48,132.43L640.49,174.65L640.66,164.17L640.83,176.51L641.16,160.95L641.33,169.04L641.49,167.9L641.99,153.83L642.15,166.14L642.65,149.66L642.81,163.63L642.97,166.2L644.11,147.54L644.27,155.49L644.6,135.55L644.92,159.51L645.08,175.27L645.24,176.59L645.4,187.94L645.56,182.55L645.87,191.25L646.03,193.3L646.35,195.06L646.51,189.17L646.66,180.24L646.82,180.24L646.98,173.47L648.23,214.96L648.38,204.66L648.54,206.89L648.69,190.66L649,211.17L649.31,204.59L649.46,212.11L649.92,249.5L650.22,228.47L650.37,226.85L650.53,227.16L650.68,251.98L650.98,259.57L651.73,232.4L651.88,235.87L652.48,206.62L652.77,218.66L652.92,215.76L654.25,260.62L654.39,263.31L654.54,263.53L654.68,270.97L654.83,273.01L654.97,262.65L655.12,258.83L655.41,268.27L655.55,263.01L655.7,263.41L657.12,297.89L657.27,292.58L657.41,283.83L657.55,283.61L657.69,286.28L657.83,285.05L657.97,288.22L658.11,290.49L658.39,294.59L658.53,285.92L658.67,281.11L658.95,287.59L659.23,285.25L659.37,284.65L659.51,294.69L659.78,273.5L659.92,263.48L660.2,272.18L660.75,248.02L660.88,267.48L661.7,241.38L661.84,246.97L661.97,247.34L662.24,251.63L662.38,237.56L662.51,235.73L662.78,232.41L662.91,219.89L663.58,197.84L663.71,209.28L663.85,211.78L663.98,218.63L664.24,211.51L664.38,218.54L664.51,190.18L665.43,162.31L665.56,172.97L665.69,174.53L665.82,166.65L666.59,186.96L666.85,180.41L666.98,180.42L667.24,178.21L667.37,183.29L667.49,173.33L667.75,167.91L667.88,170.86L668,184.92L668.39,193.61L668.51,199.5L668.64,205.69L668.89,187.17L669.02,192.13L669.14,192.04L669.27,191.02L669.4,192.52L669.52,184.85L670.15,180.32L670.39,213.38L670.52,199.11L671.51,234.94L671.63,227.14L671.75,216.83L673.21,276.7L673.33,265.12L673.58,296.52L673.94,261.21L674.06,270.98L674.18,266.54L674.29,266.68L674.41,260.67L675.01,278.47L675.13,254.51L675.37,263.63L675.84,262.1L675.95,258.78L676.07,266.23L676.31,253.1L676.66,257.12L676.77,259.97L677.01,243.88L677.47,254.93L677.59,260.02L677.93,270.03L678.16,268.56L678.28,258.09L678.97,247.56L679.08,263.96L679.19,278.45L679.76,268.05L679.87,255.69L679.99,261.79L680.21,252.58L680.44,252.71L680.55,249.25L680.66,268.44L681.33,257.25L681.45,262.08L681.56,264.01L681.67,251.85L682.33,263.61L682.44,260.36L682.55,256.54L682.77,255.9L683.1,263.42L683.32,258.97L683.43,257.46L683.54,251.21L683.76,264.88L683.86,257.67L683.97,277.7L684.08,278.48L684.19,275.29L684.3,269L684.51,281.21L684.73,267.37L684.84,254.08L685.59,221.82L685.91,229.73L686.01,233.36L686.12,234.16L686.23,242.13L686.33,247.6L686.65,224.39L686.76,222.63L687.18,232.55L687.49,232.1L687.6,222.23L688.33,241.39L688.43,229.53L688.53,225.91L688.74,238.06L688.85,254.28L689.67,275.26L689.77,281.96L689.87,278.97L690.18,291.21L690.28,301.89L690.38,298.58L690.69,311.15L690.79,307.91L690.89,312.44L690.99,316.69L691.3,302.05L691.4,296.45L691.5,292.27" style="vector-effect: non-scaling-stroke; fill: none; stroke: rgb(214, 39, 40); stroke-opacity: 1; stroke-width: 2px; opacity: 1;"/></g><g class="points"/><g class="text"/></g></g></g><g class="overplot"/><path class="xlines-above crisp" d="M0,0" style="fill: none;"/><path class="ylines-above crisp" d="M0,0" style="fill: none;"/><g class="overlines-above"/><g class="xaxislayer-above"><g class="xtick"><text text-anchor="middle" x="0" y="533" transform="translate(80,0)" style="font-family: 'Open Sans', verdana, arial, sans-serif; font-size: 12px; fill: rgb(68, 68, 68); fill-opacity: 1; white-space: pre;">10M</text></g><g class="xtick"><text text-anchor="middle" x="0" y="530" transform="translate(149.44,0)" style="font-family: 'Open Sans', verdana, arial, sans-serif; font-size: 9px; fill: rgb(68, 68, 68); fill-opacity: 1; white-space: pre;">2</text></g><g class="xtick"><text text-anchor="middle" x="0" y="530" transform="translate(241.23,0)" style="font-family: 'Open Sans', verdana, arial, sans-serif; font-size: 9px; fill: rgb(68, 68, 68); fill-opacity: 1; white-space: pre;">5</text></g><g class="xtick"><text text-anchor="middle" x="0" y="533" transform="translate(310.66999999999996,0)" style="font-family: 'Open Sans', verdana, arial, sans-serif; font-size: 12px; fill: rgb(68, 68, 68); fill-opacity: 1; white-space: pre;">100M</text></g><g class="xtick"><text text-anchor="middle" x="0" y="530" transform="translate(380.1,0)" style="font-family: 'Open Sans', verdana, arial, sans-serif; font-size: 9px; fill: rgb(68, 68, 68); fill-opacity: 1; white-space: pre;">2</text></g><g class="xtick"><text text-anchor="middle" x="0" y="530" transform="translate(471.9,0)" style="font-family: 'Open Sans', verdana, arial, sans-serif; font-size: 9px; fill: rgb(68, 68, 68); fill-opacity: 1; white-space: pre;">5</text></g><g class="xtick"><text text-anchor="middle" x="0" y="533" transform="translate(541.3299999999999,0)" style="font-family: 'Open Sans', verdana, arial, sans-serif; font-size: 12px; fill: rgb(68, 68, 68); fill-opacity: 1; white-space: pre;">1B</text></g><g class="xtick"><text text-anchor="middle" x="0" y="530" transform="translate(610.77,0)" style="font-family: 'Open Sans', verdana, arial, sans-serif; font-size: 9px; fill: rgb(68, 68, 68); fill-opacity: 1; white-space: pre;">2</text></g><g class="xtick"><text text-anchor="middle" x="0" y="530" transform="translate(702.56,0)" style="font-family: 'Open Sans', verdana, arial, sans-serif; font-size: 9px; fill: rgb(68, 68, 68); fill-opacity: 1; white-space: pre;">5</text></g><g class="xtick"><text text-anchor="middle" x="0" y="533" transform="translate(772,0)" style="font-family: 'Open Sans', verdana, arial, sans-serif; font-size: 12px; fill: rgb(68, 68, 68); fill-opacity: 1; white-space: pre;">10B</text></g></g><g class="yaxislayer-above"><g class="ytick"><text text-anchor="end" x="79" y="4.199999999999999" transform="translate(0,520)" style="font-family: 'Open Sans', verdana, arial, sans-serif; font-size: 12px; fill: rgb(68, 68, 68); fill-opacity: 1; white-space: pre;">0</text></g><g class="ytick"><text text-anchor="end" x="79" y="4.199999999999999" transform="translate(0,436)" style="font-family: 'Open Sans', verdana, arial, sans-serif; font-size: 12px; fill: rgb(68, 68, 68); fill-opacity: 1; white-space: pre;">0.2</text></g><g class="ytick"><text text-anchor="end" x="79" y="4.199999999999999" transform="translate(0,352)" style="font-family: 'Open Sans', verdana, arial, sans-serif; font-size: 12px; fill: rgb(68, 68, 68); fill-opacity: 1; white-space: pre;">0.4</text></g><g class="ytick"><text text-anchor="end" x="79" y="4.199999999999999" transform="translate(0,268)" style="font-family: 'Open Sans', verdana, arial, sans-serif; font-size: 12px; fill: rgb(68, 68, 68); fill-opacity: 1; white-space: pre;">0.6</text></g><g class="ytick"><text text-anchor="end" x="79" y="4.199999999999999" transform="translate(0,184)" style="font-family: 'Open Sans', verdana, arial, sans-serif; font-size: 12px; fill: rgb(68, 68, 68); fill-opacity: 1; white-space: pre;">0.8</text></g><g class="ytick"><text text-anchor="end" x="79" y="4.199999999999999" transform="translate(0,100)" style="font-family: 'Open Sans', verdana, arial, sans-serif; font-size: 12px; fill: rgb(68, 68, 68); fill-opacity: 1; white-space: pre;">1</text></g></g><g class="overaxes-above"/></g></g><g class="polarlayer"/><g class="ternarylayer"/><g class="geolayer"/><g class="funnelarealayer"/><g class="pielayer"/><g class="treemaplayer"/><g class="sunburstlayer"/><g class="glimages"/><defs id="topdefs-df8a57"><g class="clips"/><clipPath id="legenddf8a57"><rect width="202" height="86" x="0" y="0"/></clipPath></defs><g class="layer-above"><g class="imagelayer"/><g class="shapelayer"/></g><g class="infolayer"><g class="legend" pointer-events="all" transform="translate(785.84,100)"><rect class="bg" shape-rendering="crispEdges" style="stroke: rgb(68, 68, 68); stroke-opacity: 1; fill: rgb(255, 255, 255); fill-opacity: 1; stroke-width: 0px;" width="202" height="86" x="0" y="0"/><g class="scrollbox" transform="" clip-path="url('#legenddf8a57')"><g class="groups"><g class="traces" transform="translate(0,14.5)" style="opacity: 1;"><text class="legendtext" text-anchor="start" x="40" y="4.680000000000001" style="font-family: 'Open Sans', verdana, arial, sans-serif; font-size: 12px; fill: rgb(68, 68, 68); fill-opacity: 1; white-space: pre;">FlipHash (64 bits)</text><g class="layers" style="opacity: 1;"><g class="legendfill"/><g class="legendlines"><path class="js-line" d="M5,0h30" style="fill: none; stroke: rgb(31, 119, 180); stroke-opacity: 1; stroke-width: 2px;"/></g><g class="legendsymbols"><g class="legendpoints"/></g></g><rect class="legendtoggle" x="0" y="-9.5" width="196.6875" height="19" style="fill: rgb(0, 0, 0); fill-opacity: 0;"/></g><g class="traces" transform="translate(0,33.5)" style="opacity: 1;"><text class="legendtext" text-anchor="start" x="40" y="4.680000000000001" style="font-family: 'Open Sans', verdana, arial, sans-serif; font-size: 12px; fill: rgb(68, 68, 68); fill-opacity: 1; white-space: pre;">FlipHash (XXH3, 128 bits)</text><g class="layers" style="opacity: 1;"><g class="legendfill"/><g class="legendlines"><path class="js-line" d="M5,0h30" style="fill: none; stroke: rgb(255, 127, 14); stroke-opacity: 1; stroke-width: 2px;"/></g><g class="legendsymbols"><g class="legendpoints"/></g></g><rect class="legendtoggle" x="0" y="-9.5" width="196.6875" height="19" style="fill: rgb(0, 0, 0); fill-opacity: 0;"/></g><g class="traces" transform="translate(0,52.5)" style="opacity: 1;"><text class="legendtext" text-anchor="start" x="40" y="4.680000000000001" style="font-family: 'Open Sans', verdana, arial, sans-serif; font-size: 12px; fill: rgb(68, 68, 68); fill-opacity: 1; white-space: pre;">FlipHash (XXH3, 64 bits)</text><g class="layers" style="opacity: 1;"><g class="legendfill"/><g class="legendlines"><path class="js-line" d="M5,0h30" style="fill: none; stroke: rgb(44, 160, 44); stroke-opacity: 1; stroke-width: 2px;"/></g><g class="legendsymbols"><g class="legendpoints"/></g></g><rect class="legendtoggle" x="0" y="-9.5" width="196.6875" height="19" style="fill: rgb(0, 0, 0); fill-opacity: 0;"/></g><g class="traces" transform="translate(0,71.5)" style="opacity: 1;"><text class="legendtext" text-anchor="start" x="40" y="4.680000000000001" style="font-family: 'Open Sans', verdana, arial, sans-serif; font-size: 12px; fill: rgb(68, 68, 68); fill-opacity: 1; white-space: pre;">JumpHash</text><g class="layers" style="opacity: 1;"><g class="legendfill"/><g class="legendlines"><path class="js-line" d="M5,0h30" style="fill: none; stroke: rgb(214, 39, 40); stroke-opacity: 1; stroke-width: 2px;"/></g><g class="legendsymbols"><g class="legendpoints"/></g></g><rect class="legendtoggle" x="0" y="-9.5" width="196.6875" height="19" style="fill: rgb(0, 0, 0); fill-opacity: 0;"/></g></g></g><rect class="scrollbar" rx="20" ry="3" width="0" height="0" style="fill: rgb(128, 139, 164); fill-opacity: 1;" x="0" y="0"/></g><g class="g-gtitle"><text class="gtitle" x="500" y="50" text-anchor="middle" dy="0em" style="font-family: 'Open Sans', verdana, arial, sans-serif; font-size: 17px; fill: rgb(68, 68, 68); opacity: 1; font-weight: normal; white-space: pre;">Independence of the hashes of the same key and distinct seeds</text></g><g class="g-xtitle"><text class="xtitle" x="426" y="572" text-anchor="middle" style="font-family: 'Open Sans', verdana, arial, sans-serif; font-size: 14px; fill: rgb(68, 68, 68); opacity: 1; font-weight: normal; white-space: pre;">Number of hashed keys</text></g><g class="g-ytitle"><text class="ytitle" transform="rotate(-90,42,310)" x="42" y="310" text-anchor="middle" style="font-family: 'Open Sans', verdana, arial, sans-serif; font-size: 14px; fill: rgb(68, 68, 68); opacity: 1; font-weight: normal; white-space: pre;">p-value of the chi-squared test of independence</text></g></g></svg>