<svg class="main-svg" xmlns="http://www.w3.org/2000/svg" xmlns:xlink="http://www.w3.org/1999/xlink" width="1000" height="600" style="" viewBox="0 0 1000 600"><rect x="0" y="0" width="1000" height="600" style="fill: rgb(255, 255, 255); fill-opacity: 1;"/><defs id="defs-0ee984"><g class="clips"><clipPath id="clip0ee984xyplot" class="plotclip"><rect width="692" height="420"/></clipPath><clipPath class="axesclip" id="clip0ee984x"><rect x="80" y="0" width="692" height="600"/></clipPath><clipPath class="axesclip" id="clip0ee984y"><rect x="0" y="100" width="1000" height="420"/></clipPath><clipPath class="axesclip" id="clip0ee984xy"><rect x="80" y="100" width="692" height="420"/></clipPath></g><g class="gradients"/></defs><g class="bglayer"/><g class="layer-below"><g class="imagelayer"/><g class="shapelayer"/></g><g class="cartesianlayer"><g class="subplot xy"><g class="layer-subplot"><g class="shapelayer"/><g class="imagelayer"/></g><g class="gridlayer"><g class="x"><path class="xgrid crisp" transform="translate(146.9,0)" d="M0,100v420" style="stroke: rgb(238, 238, 238); stroke-opacity: 1; stroke-width: 1px;"/><path class="xgrid crisp" transform="translate(235.33,0)" d="M0,100v420" style="stroke: rgb(238, 238, 238); stroke-opacity: 1; stroke-width: 1px;"/><path class="xgrid crisp" transform="translate(302.23,0)" d="M0,100v420" style="stroke: rgb(238, 238, 238); stroke-opacity: 1; stroke-width: 1px;"/><path class="xgrid crisp" transform="translate(369.12,0)" d="M0,100v420" style="stroke: rgb(238, 238, 238); stroke-opacity: 1; stroke-width: 1px;"/><path class="xgrid crisp" transform="translate(457.56,0)" d="M0,100v420" style="stroke: rgb(238, 238, 238); stroke-opacity: 1; stroke-width: 1px;"/><path class="xgrid crisp" transform="translate(524.45,0)" d="M0,100v420" style="stroke: rgb(238, 238, 238); stroke-opacity: 1; stroke-width: 1px;"/><path class="xgrid crisp" transform="translate(591.35,0)" d="M0,100v420" style="stroke: rgb(238, 238, 238); stroke-opacity: 1; stroke-width: 1px;"/><path class="xgrid crisp" transform="translate(679.78,0)" d="M0,100v420" style="stroke: rgb(238, 238, 238); stroke-opacity: 1; stroke-width: 1px;"/><path class="xgrid crisp" transform="translate(746.68,0)" d="M0,100v420" style="stroke: rgb(238, 238, 238); stroke-opacity: 1; stroke-width: 1px;"/></g><g class="y"><path class="ygrid crisp" transform="translate(0,436)" d="M80,0h692" style="stroke: rgb(238, 238, 238); stroke-opacity: 1; stroke-width: 1px;"/><path class="ygrid crisp" transform="translate(0,352)" d="M80,0h692" style="stroke: rgb(238, 238, 238); stroke-opacity: 1; stroke-width: 1px;"/><path class="ygrid crisp" transform="translate(0,268)" d="M80,0h692" style="stroke: rgb(238, 238, 238); stroke-opacity: 1; stroke-width: 1px;"/><path class="ygrid crisp" transform="translate(0,184)" d="M80,0h692" style="stroke: rgb(238, 238, 238); stroke-opacity: 1; stroke-width: 1px;"/></g></g><g class="zerolinelayer"><path class="yzl zl crisp" transform="translate(0,520)" d="M80,0h692" style="stroke: rgb(68, 68, 68); stroke-opacity: 1; stroke-width: 1px;"/></g><path class="xlines-below"/><path class="ylines-below"/><g class="overlines-below"/><g class="xaxislayer-below"/><g class="yaxislayer-below"/><g class="overaxes-below"/><g class="plot" transform="translate(80,100)" clip-path="url('#clip0ee984xyplot')"><g class="scatterlayer mlayer"><g class="trace scatter trace805d33" style="stroke-miterlimit: 2; opacity: 1;"><g class="fills"/><g class="errorbars"/><g class="lines"><path class="js-line" d="M0,158L66.9,28.78L106.03,38.22L133.79,47.06L155.33,166.57L172.93,269.45L187.8,192.39L200.69,216.07L212.06,238.81L222.23,163.65L231.42,224.19L239.82,195.12L247.55,153.19L254.7,203.25L261.36,139.24L267.59,144.09L273.44,92.09L278.95,65.31L284.17,71.07L289.12,169.13L293.83,136.26L298.32,89.96L302.61,151.44L306.72,168.62L310.66,241.7L318.09,109.67L321.6,69.35L324.98,91.55L328.26,100.99L331.42,143.56L334.48,127.28L337.45,129.16L340.33,124.62L343.13,131.87L345.85,92.2L348.5,94.98L351.07,121.14L356.02,60.12L358.4,82.18L360.73,84.4L363,56.97L365.22,94.31L367.39,88.68L369.51,93.58L371.58,82.68L373.62,96.97L375.61,76.21L377.56,74.59L379.47,117.74L381.34,130.07L383.18,106.67L384.98,100.63L386.75,101.39L388.49,61.91L390.2,112.86L393.53,46.87L395.15,38.28L396.75,34L398.32,35.59L399.86,33.98L401.38,33.64L402.88,23.52L404.35,23.49L405.8,19.39L407.23,31.08L408.64,28.4L410.03,37.37L412.75,46.42L414.08,49.13L415.39,50.29L416.69,57.44L417.97,50.89L419.23,55.51L422.92,76.83L424.12,99.03L425.3,87.55L426.47,101.83L427.63,77.6L428.77,109.41L432.12,160.07L433.21,151.98L434.28,129.13L435.35,145.05L436.41,129.81L437.45,149.28L438.48,198.48L439.5,196.56L441.51,214.17L442.5,231.64L443.48,207.19L444.45,235.41L445.41,273.45L446.36,267.3L447.31,277.83L448.24,313.52L450.08,250.18L450.98,247.84L451.88,228.65L452.77,238.18L454.52,270.97L455.39,271.64L456.25,271.38L457.1,260.33L458.78,217.09L459.61,230.94L461.24,260.17L462.05,219.22L462.85,246.21L463.64,213.69L465.21,219.05L465.99,201.71L467.52,264.5L468.28,274.02L469.77,200.71L470.51,187.18L472.7,274.78L473.42,269.79L474.84,235.73L475.54,258.91L476.23,259.7L476.93,285.4L477.61,283.57L478.29,260.83L479.64,239.25L480.31,261.53L480.98,244.4L481.63,250.21L482.29,226.83L482.94,245.93L483.58,244.42L484.23,249.5L484.86,271.28L485.5,262.26L487.99,179.78L488.6,201.25L490.41,159.88L491.01,166.16L492.2,139.37L492.78,123.91L493.37,131.81L493.95,122.29L494.52,153.56L495.09,119.97L495.66,117.32L496.23,126.44L497.35,93.25L497.91,94.03L499.01,73.76L499.56,70.29L501.18,105.49L501.72,76.21L503.3,55.78L503.83,46.55L504.35,44.76L504.86,49.24L505.38,29.68L505.89,32.91L506.4,35.6L508.91,18.89L509.4,19.77L509.89,24.75L510.87,29.06L511.35,24.88L511.83,23.41L512.31,14.8L512.79,9.69L513.26,11.85L513.73,14.27L514.2,13.25L514.67,14.07L515.6,13.5L516.06,10.75L517.88,17.92L518.33,13.44L520.11,8.49L520.55,9.78L521.42,12.92L521.86,10.57L522.72,14.85L523.14,13.7L523.57,13.58L524,11.91L524.42,9.47L524.84,20.75L526.5,49.64L526.91,45.49L528.14,69.48L528.54,107.47L528.95,102.69L529.35,109.1L530.14,91.67L530.54,93.55L530.94,117.94L531.33,117.52L531.72,106.06L532.11,129.97L532.5,120.97L532.89,105.17L533.27,108.68L533.65,100.17L534.8,130.1L535.17,126.57L535.55,125.47L535.93,109.28L537.04,145.17L537.41,128.63L538.87,93.26L539.23,104.05L539.95,112.35L540.31,111.68L540.67,113.21L541.03,117.13L541.38,101.69L541.73,110.45L542.08,101.32L542.43,93.98L542.78,96.77L543.13,76.98L543.48,77.39L543.82,74.25L544.17,59.85L544.51,68.89L544.85,63.39L546.88,98.72L547.21,78.65L548.53,122.87L548.86,115.56L549.19,108.11L549.51,116.08L549.84,116.07L551.12,139.43L551.44,136.69L551.76,151.91L552.08,171.54L552.71,166.67L553.02,171.57L553.33,160.72L553.65,172.64L553.96,170.45L554.88,179.83L555.19,179.35L555.5,189.42L555.8,164.86L556.71,154.94L557.01,159.02L557.31,157.27L557.61,193.05L558.21,181.53L558.5,183.09L558.8,181.9L559.39,213.62L559.68,191.69L559.97,191.02L560.26,181.91L560.55,192.13L560.84,175.52L561.42,191.36L561.71,182.04L561.99,168.55L563.69,135.57L563.97,141.24L564.25,163.13L564.81,148.97L565.08,132.84L565.36,143.59L565.63,134.33L565.91,130.52L566.18,135.33L566.46,129.2L566.73,131.38L567,149.38L567.54,143.42L567.81,134.04L569.14,98.97L569.41,115.62L569.67,125.17L569.94,113.26L570.2,94.16L570.46,93.85L570.72,92.06L570.98,96.69L571.5,95.24L571.76,81.99L572.02,75.98L572.27,90.04L572.79,89.76L573.04,93.64L573.3,82.8L573.8,91.43L574.05,87.09L574.31,76.04L574.56,90.48L574.81,92.04L575.06,101.38L575.31,101.34L575.55,88.3L576.54,112.6L576.79,111.66L577.03,104.96L578.25,135.29L578.49,124.97L578.73,126.04L578.97,116.19L579.21,116.41L579.44,111L580.16,123.45L580.39,115.79L580.63,120.56L580.86,145.28L581.1,126.32L581.8,127.75L582.03,130.99L582.49,126.33L582.72,130.21L582.95,132.02L584.1,159.14L584.32,131L585.23,103.42L585.45,99.79L586.34,93.93L586.56,105.73L587.88,71.27L588.1,75.34L588.75,98.29L588.97,83.33L589.18,82.66L589.4,78.69L589.61,84.16L589.83,87.85L590.25,99.38L590.47,95.03L590.68,86.85L590.89,95.56L591.31,84.18L591.52,94.54L591.73,90.12L591.94,91.23L592.15,90.83L592.36,80.89L592.78,100.38L593.19,97.81L593.4,88.73L593.81,102.24L594.02,89.16L595.03,116.13L595.24,113.57L596.24,137.26L596.44,129.01L596.64,113.11L597.24,158.56L597.44,125.55L597.64,123.16L597.83,136.93L598.23,133.32L598.42,123.65L599.01,140.93L599.4,138.16L599.59,130.5L599.78,126L599.97,141.16L600.74,156.89L600.93,155.4L601.12,145.25L601.31,148.29L601.5,163.79L603.01,199.07L603.2,196.48L603.38,197.52L603.57,182.97L604.31,148.3L604.49,153.88L604.67,156.89L605.22,197.16L605.77,190.8L605.95,186.07L606.13,192.26L606.49,181.95L606.67,177.43L606.85,190.14L607.03,174.44L607.39,178.18L607.57,186.84L607.92,159.63L608.45,172.67L608.63,161.66L609.33,183.71L609.51,182.92L609.68,171.39L610.2,177.78L610.37,174.25L610.55,185.11L610.72,185.45L610.89,177.49L611.06,187.56L611.24,169.4L611.41,172.66L611.58,155.48L613.1,218.65L613.27,205.82L614.93,278.73L615.1,277.05L615.59,258.85L615.92,265.28L616.08,280.53L616.25,277.49L616.41,259.17L616.57,253.85L616.73,261.03L616.89,258.33L617.06,278.49L617.22,277.39L617.38,270.06L617.86,245.69L618.02,255.92L618.18,278.81L618.82,293.93L618.97,281.89L619.13,278.35L619.45,307.9L619.92,307.8L620.07,302.5L620.7,282.91L620.85,286.3L621.01,299.6L621.78,317.59L621.93,311.46L622.09,315.77L622.39,309.19L622.55,311.35L622.7,310.6L623,300.81L623.15,311.71L623.91,281.79L624.06,287.51L624.21,300.69L624.95,322.9L625.55,322.74L625.7,317.4L625.99,320.87L626.43,301.99L626.58,314.31L627.45,303.63L627.59,310.2L627.88,315.06L628.03,307.94L628.17,310.86L628.32,304.23L628.6,296.2L628.89,298.7L629.03,302.32L629.74,327.37L629.88,316.97L630.02,319.25L630.16,312.33L630.45,318.04L630.59,329.9L631.01,358.32L631.42,346.54L631.56,349.16L633.49,380.37L633.62,377.6L633.76,376.85L633.9,376.65L634.03,372.74L634.17,374.54L634.57,370.34L634.71,370.97L634.97,371.98L635.51,356.92L635.64,365.11L635.78,364.98L636.83,337.95L636.96,341.36L637.1,345.91L637.23,351.29L637.62,343.29L637.75,338.57L638.27,358.81L638.53,340.73L638.66,337.77L638.79,343.85L639.04,335.31L639.17,336.5L639.3,331.91L639.56,335.44L639.68,329.11L639.81,324.11L639.94,319.39L640.32,329.52L640.45,334.6L641.45,314.84L641.58,321.82L641.7,331.6L642.2,315.87L642.33,318.21L642.45,323.05L642.7,305.08L642.82,309.63L642.95,309.1L643.32,304.61L643.68,326.15L643.93,322.48L644.05,325.48L644.29,330.69L644.42,329.7L644.54,323.8L644.78,317.09L644.9,328.18L645.02,324.69L645.26,336.74L645.38,334.43L645.5,338.73L646.34,371.94L646.46,367.97L646.58,362.92L647.17,343.08L647.41,349.57L647.53,349.51L648.23,332.68L648.46,337.26L648.58,343.53L649.28,356.65L649.62,355.05L649.74,357.57L650.08,354.27L650.2,352.25L651.11,366.52L651.22,369.02L651.33,366.22L651.45,376.64L651.79,371.69L651.9,373.29L653.02,354.91L653.13,358.87L654.01,314.79L654.12,321.29L654.23,335.67L655,319.6L655.11,325.6L655.21,329.65L655.43,326.92L655.54,313.76L655.65,312.5L655.76,296.32L655.86,296.1L655.97,302.21L656.19,294.71L656.3,306.13L656.72,319.37L656.94,310.07L657.04,305.16L657.15,316.55L657.58,293.01L657.79,307.22L657.89,307.55L658.95,336.03L659.05,332.61L659.99,308.8L660.09,315.94L660.81,303.21L660.91,308.31L661.01,313.66L661.12,306.44L661.52,322.31L661.63,329.34L661.73,330.23L661.83,321.69L662.03,329.93L662.13,336.23L662.54,331.36L662.64,342.93L663.04,342.15L663.14,338.45L663.24,333.05L663.74,342.03L663.84,341.74L663.94,345.81L664.33,333.73L664.63,344.1L664.73,347.2L664.93,343.54L665.22,349.03L665.42,348.81L665.51,349.42L665.61,348.31L665.71,349.75L665.81,354.66L666.68,375.91L666.87,373.12L666.97,374.76L667.26,377.34L667.54,374.27L667.64,373.88L667.73,370.58L667.93,377.72L668.21,376.36L668.31,380.19L668.5,382.88L668.68,375.09L668.97,380.24L669.06,380.25L670.09,397.67L670.19,394.55L671.3,407.95L671.39,406.55L671.94,410.86L672.21,408.92L672.3,407.7L672.76,408.67L673.12,405.65L673.21,405.58L674.28,410.58L674.37,408.96L674.64,410.81L675,409.9L675.08,409.5L675.17,410.67L675.35,408.16L675.79,409.02L675.88,409.84L676.32,408.35L676.49,410.63L676.58,409.96L676.66,411.09L676.92,412.26L677.44,405.67L677.7,407.82L677.79,408.71L678.56,393.92L678.82,396.45L678.9,398.99L679.32,402.62L679.58,399.32L679.66,396.29L679.92,399.36L680.08,392.86L680.17,390.89L680.42,396.64L680.92,393.2L681,392.65L681.09,393.01L681.17,392.88L681.25,386.86L681.67,384.7L681.91,392.13L682.08,390.71L682.16,389.08L682.33,390.55L683.3,378.64L683.39,384.23L683.95,384.96L684.52,367.03L684.6,372.19L684.84,374.08L685.39,367.25L685.47,375.54L685.55,375.35L685.63,378.98L685.71,382.34L685.87,376.04L686.26,376.68L686.34,374.96L687.21,363.88L687.28,372.21L687.44,371L687.52,366.81L687.67,370.94L687.98,363.73L688.21,367.54L688.29,366.67L688.37,366.43L688.45,374.73L688.52,370.97L688.98,384.64L689.06,387.09L689.29,387.3L689.37,381.92L689.67,384.99L689.75,389.1L689.97,391.24L690.13,388.17L690.2,385.69L690.28,381.5L690.73,390.22L690.8,389.16L690.88,390L691.18,390.83L691.93,377.26L692,377.27" style="vector-effect: non-scaling-stroke; fill: none; stroke: rgb(31, 119, 180); stroke-opacity: 1; stroke-width: 2px; opacity: 1;"/></g><g class="points"/><g class="text"/></g><g class="trace scatter tracec99abf" style="stroke-miterlimit: 2; opacity: 1;"><g class="fills"/><g class="errorbars"/><g class="lines"><path class="js-line" d="M0,230.65L66.9,82.95L106.03,21.91L133.79,28.54L155.33,123.06L172.93,115.86L187.8,156.45L200.69,176.08L212.06,238.1L222.23,170.26L231.42,199.72L239.82,231.17L247.55,86.19L254.7,65.38L261.36,111.67L267.59,168.65L273.44,148.26L278.95,235.26L284.17,164.14L289.12,129.86L293.83,146.5L298.32,182.6L302.61,161.56L306.72,88.31L310.66,61.59L314.44,104.67L318.09,114.69L321.6,143.93L324.98,100.11L328.26,124.8L331.42,139.38L334.48,175.94L337.45,150.74L340.33,129.87L343.13,168.51L345.85,252.91L348.5,218.52L351.07,197.79L353.58,199.9L356.02,192.02L358.4,172.97L360.73,200.03L363,178.66L365.22,169.52L367.39,206.14L369.51,238.61L371.58,203.49L373.62,229.91L375.61,233.49L377.56,211.23L379.47,172.81L381.34,233.81L383.18,259.25L384.98,262.78L386.75,275.96L388.49,261.86L390.2,257.62L391.88,279.47L393.53,265.48L396.75,327.86L398.32,338.46L399.86,362.65L401.38,370.17L402.88,370.45L404.35,375.17L405.8,348.9L407.23,352.4L408.64,364.59L410.03,352.05L412.75,277.76L414.08,298.3L416.69,226.66L417.97,234.88L419.23,240.56L420.47,237.06L421.7,244.49L422.92,257.14L424.12,238.18L425.3,258.34L426.47,232.7L427.63,249.85L428.77,248.76L429.9,221.15L431.01,210.66L432.12,248.9L433.21,222.25L434.28,221.39L435.35,212.99L436.41,247.54L438.48,291.34L439.5,240.12L440.51,247.91L441.51,238.45L442.5,237.02L443.48,289.42L444.45,319.38L445.41,286.24L446.36,282.3L447.31,287.62L448.24,285.64L449.16,288.54L450.08,297.72L450.98,291.14L451.88,275.06L452.77,314.33L454.52,262.62L455.39,284.74L457.1,306.95L457.94,291.8L458.78,284.81L459.61,289.23L460.43,280.18L461.24,296.3L462.05,301.1L462.85,261L463.64,260.41L464.43,278.24L465.21,261.16L465.99,265.13L466.76,271.07L467.52,262.33L468.28,265.33L469.03,256.71L469.77,240.35L470.51,190.83L471.25,199.31L471.98,170.89L472.7,196.23L473.42,191.95L474.13,207.87L474.84,183.13L475.54,183.7L476.23,145.57L476.93,132.78L477.61,134.77L478.29,137.3L478.97,111.66L480.31,116.55L480.98,110.28L482.29,92.18L482.94,98.65L483.58,90.63L484.23,105.33L485.5,77.95L486.12,84.8L487.37,128.15L487.99,117.56L488.6,135.14L489.21,123.13L491.61,65.06L492.2,78.34L492.78,76.95L493.37,54.3L493.95,53.81L494.52,58.35L495.09,62.32L495.66,61.92L496.23,50.31L496.79,65.42L497.35,55.38L497.91,74.71L498.46,66.87L499.01,59.4L499.56,61.52L500.1,59.55L500.64,53.76L501.18,54.15L501.72,56.27L503.83,23.22L504.35,27.93L507.41,81.03L507.91,72.29L508.41,86.91L508.91,84.18L509.4,79.67L511.35,109.82L511.83,103.68L512.31,101.17L512.79,94.4L513.26,92L513.73,103.28L516.52,148.97L516.97,161.44L517.43,150.25L517.88,150.93L518.33,117.81L518.78,128.92L519.22,122.94L519.67,131.52L520.11,133.76L520.55,103.56L521.42,80.75L521.86,81.78L523.14,69.02L523.57,83.73L524,84.59L524.42,72.21L524.84,74.09L525.26,64.64L526.09,80.82L526.5,69.33L526.91,59.8L527.32,59.91L527.73,62.13L529.35,105.77L529.75,102.17L530.94,76.05L531.33,66.12L531.72,65.01L532.11,69.71L533.27,54.07L533.65,47.95L534.04,48.5L534.42,44.62L535.17,40.78L535.55,52.45L536.3,89.39L536.67,72.75L537.04,73.16L537.78,54.03L538.14,61.52L538.51,59.6L539.6,68.77L539.95,68.38L540.31,60.26L541.03,46.01L541.38,32.81L542.08,20.58L542.43,23.09L542.78,22.61L543.48,19.49L543.82,13.97L544.51,10.36L544.85,10.74L545.19,12.48L545.53,13.5L545.87,11.65L546.54,10.59L546.88,11L547.21,9.23L547.54,10L547.87,10.77L549.19,20.68L549.84,20.14L550.16,21.36L551.44,27.65L551.76,40.8L552.08,43.9L552.39,65.18L552.71,70.04L553.02,55.74L553.65,63.32L553.96,66.61L555.19,90.66L555.5,79.69L556.41,95.42L556.71,80.1L557.01,87.17L557.31,76.45L557.61,68.98L557.91,74.2L558.21,79.16L558.5,74.64L558.8,77.37L559.09,90.58L559.39,85.23L559.68,91.71L559.97,94.14L561.42,157.9L561.71,146.13L562.28,154.35L562.56,171.69L562.84,170.32L563.13,159.73L563.97,123.52L564.25,125.79L564.53,140.13L565.08,154.17L565.36,150.41L565.63,146.14L565.91,132.26L566.18,144.26L566.46,156.82L566.73,158.99L567,138.37L567.27,124.12L567.54,126.94L567.81,138.7L568.08,118.64L568.35,131.66L568.61,146.48L569.14,164.52L569.41,155.59L569.67,150.03L569.94,140.58L570.2,147.96L570.46,162.07L570.72,154.43L570.98,168.43L571.24,172.66L572.53,124.03L572.79,123.8L573.55,109.72L573.8,110.45L574.05,115.24L574.31,117.5L574.56,105.8L575.06,96.34L575.31,96.81L575.55,101.11L576.05,103.41L576.3,91.26L576.54,97.43L577.03,101.6L577.28,98.61L577.52,100.51L578.25,91.46L578.49,81.63L578.73,88.14L578.97,69.98L579.68,80.37L579.92,70.79L580.39,59L580.63,67.15L580.86,72.4L581.1,75.81L581.33,68.92L581.57,63.36L582.26,80.91L582.72,78.95L582.95,70.62L583.18,66.85L583.41,74.1L583.64,77.33L584.78,113.99L585,109.1L585.45,122.94L585.67,116.07L585.9,104.74L586.12,115.74L586.56,101.8L586.78,95.25L588.1,71.17L588.32,78.11L589.83,45.81L590.04,47.01L590.25,48.04L590.47,63.95L590.89,54.83L591.1,52.19L591.73,78.81L592.15,69.36L592.36,67.1L592.57,68.65L592.78,68.49L592.99,56.98L593.19,62.53L593.6,55.18L593.81,50.38L594.02,47.42L594.22,49.62L594.42,53.53L594.83,49.87L595.03,68.45L595.44,86.42L595.84,86.26L596.04,82.45L596.44,93.49L596.64,96.96L596.84,97.05L597.04,87.7L597.24,81.45L597.44,89.98L597.64,114.45L598.03,131.03L598.23,128.69L598.42,117.72L598.62,109.16L599.01,120.47L599.2,122.44L599.59,151.43L600.17,142.07L600.36,136.79L600.55,136.09L600.74,145.21L600.93,145.01L601.12,147.66L601.5,146.11L601.88,170.08L602.26,163.47L602.45,166.82L602.82,169.91L603.01,158.33L604.12,204.45L604.31,213.02L605.22,230.27L605.41,226.18L605.77,221.68L605.95,231.04L606.13,236.44L606.31,229.93L606.67,235.86L606.85,241.05L607.21,254.54L607.39,238.17L607.57,237.33L608.28,252.93L608.45,243.03L608.63,232.85L609.85,170.91L610.03,171.15L610.2,174.95L610.37,168.78L610.55,174.7L610.72,161.89L611.58,222.73L611.92,217.56L612.09,210.96L612.77,175.47L612.93,158.49L613.77,196.19L613.94,191.64L614.11,191.92L615.26,261.5L615.43,253.45L616.25,280.06L616.41,263.87L616.57,258.73L616.73,262.23L616.89,282.9L617.06,289.17L617.38,279.81L617.54,271.01L618.02,246.32L618.18,265.67L618.66,280.1L618.82,266.02L618.97,268.08L619.13,253.77L620.07,330.56L620.39,315.54L620.54,312.98L620.85,309.44L621.16,322.29L621.47,319.88L621.63,309.43L621.93,316.33L622.24,310.2L622.39,300.87L624.06,347.41L624.21,337.99L624.51,348.83L624.66,346.36L624.81,341.89L625.25,328.99L625.4,332.05L625.55,339.03L625.7,336.17L625.99,339.52L626.14,345.22L626.43,346.11L626.72,335.72L626.87,327.82L627.45,365.23L627.88,356.32L628.03,353.84L628.89,327.46L629.03,330.21L629.46,327.78L629.6,331.04L629.74,336.72L629.88,338.56L630.02,332.8L630.16,336.9L630.31,331.35L630.87,333.69L631.15,321.88L631.29,328.3L631.42,315.86L631.98,323.5L632.12,322.22L632.53,306.02L632.94,309.92L633.08,317.1L634.71,276.75L634.84,281.52L635.24,289.57L635.51,279.93L635.64,283.6L635.78,278.24L636.44,265.32L636.57,279.08L636.7,280.31L636.83,276.5L636.96,288.8L637.49,276.82L637.62,291.04L637.75,300.22L639.04,347.14L639.17,349.55L639.56,369.15L639.94,357.77L640.07,346.51L640.7,369.12L641.08,359.65L641.2,350.1L643.19,286.74L643.44,288.28L643.56,296.22L643.93,294.7L644.05,305.52L644.17,289.48L644.66,277.7L644.78,283.44L644.9,294.31L645.14,312.19L645.5,293.37L645.62,288.14L646.82,326.87L646.94,317.95L647.17,308.13L647.53,318.37L647.64,317.01L647.76,328.61L648.93,356.38L649.04,358.77L649.51,363.79L649.62,358.94L649.85,358.61L650.42,366.74L650.54,359.78L650.88,360.84L651.22,348.38L651.45,352.86L651.56,357.79L651.79,370.25L652.23,358.64L652.35,351.34L652.57,353.92L652.79,335.14L653.02,337.06L653.13,345.15L653.35,333.08L653.46,322.81L653.68,320.42L653.79,301.4L654.12,291.24L654.56,311.63L654.67,305.15L655.43,319.32L655.54,307.54L655.86,297.91L655.97,301.76L656.08,311.23L656.19,303.31L656.51,325.88L656.62,337.45L657.26,319.41L657.58,320.4L657.68,323.05L658.42,352.12L658.53,347.15L658.63,340.44L658.74,341.27L658.95,337.39L659.05,336.09L659.26,335.48L659.67,343.74L659.78,337.49L659.88,331.57L659.99,336.2L660.3,328.75L660.4,316.29L660.6,319.8L660.71,306.16L660.91,314.28L661.01,305.9L661.12,305.15L661.22,310.12L661.42,314.61L661.52,308.45L662.34,289.38L662.44,291.99L662.54,288.46L662.64,293.79L662.74,307.91L662.94,303.81L663.04,311.17L663.14,313.65L663.54,309.73L663.64,327.44L663.74,337.65L664.24,354.63L664.63,350.2L664.73,350.79L664.83,351.07L664.93,347.86L665.71,324.49L665.81,330.07L665.9,334.58L666.1,325.44L666.49,341.17L666.68,327.12L666.78,330.11L666.97,331.01L667.73,306.5L667.83,312.4L668.21,301.57L668.4,313.43L668.5,320.51L668.78,330.73L669.25,320.57L669.34,312.65L669.44,305.69L669.81,323.49L670,312.97L670.09,315.24L670.56,326.49L670.83,320.13L670.93,321.89L672.39,284.16L672.76,286.83L672.85,288.56L673.03,290.85L673.39,265.04L673.48,273.43L673.57,279.66L674.11,263.36L674.46,267.08L674.55,270.13L675.53,295.79L675.61,293.15L675.7,287.28L676.58,253.06L676.66,253.21L676.75,267.06L677.1,247.56L677.53,261.45L677.62,261.33L678.3,236.37L678.47,237.15L678.56,244.76L678.73,258.94L679.24,238.79L679.32,237.1L679.41,229.22L679.75,247.51L679.92,243.51L680,248.88L680.42,223.67L680.75,235.5L680.84,237.96L680.92,237.24L681,240.26L681.09,250.92L682.08,210.57L682.16,213.74L682.24,224.18L682.82,196.67L682.98,203.66L683.06,214.52L684.76,169.16L684.84,160.95L685.95,216.54L686.11,208.98L686.19,195.13L686.81,209.46L686.97,204.86L687.05,201.91L687.13,205.29L687.6,193.54L687.67,196.25L688.14,202.45L688.21,181.5L688.37,192.37L688.45,201.55L688.6,206.23L689.82,173.78L689.9,180.29L690.13,185.92L690.28,170.03L690.58,181.07L690.65,183.73L691.55,222.06L691.63,204.21" style="vector-effect: non-scaling-stroke; fill: none; stroke: rgb(255, 127, 14); stroke-opacity: 1; stroke-width: 2px; opacity: 1;"/></g><g class="points"/><g class="text"/></g><g class="trace scatter trace7052fd" style="stroke-miterlimit: 2; opacity: 1;"><g class="fills"/><g class="errorbars"/><g class="lines"><path class="js-line" d="M0,116.77L66.9,46.92L106.03,21.07L133.79,102.39L155.33,25.01L172.93,6.25L187.8,21.02L200.69,83.24L212.06,114.14L222.23,127.19L231.42,108.71L239.82,12.65L247.55,38.28L254.7,82.75L261.36,155.96L267.59,180.24L273.44,111.02L278.95,149.8L284.17,128.46L289.12,65.54L293.83,48.83L298.32,107.42L302.61,60.24L306.72,36.69L310.66,75.32L314.44,46.23L318.09,75.67L321.6,85.33L324.98,31.38L328.26,13.01L331.42,10.73L334.48,7.68L337.45,8.15L340.33,17.77L343.13,33.57L345.85,45.37L348.5,69.29L351.07,86.51L353.58,113.99L356.02,152.19L358.4,128.26L360.73,84.47L363,78.09L365.22,126.32L367.39,89.22L369.51,98.34L371.58,98.83L373.62,118.46L375.61,96.18L377.56,113.47L379.47,101.47L381.34,76.86L383.18,124.66L386.75,198.06L388.49,170.73L391.88,84.46L393.53,85.65L395.15,105.95L396.75,91.89L398.32,82.04L399.86,59.98L401.38,56.49L402.88,46.39L404.35,32.29L405.8,41.34L408.64,58.46L410.03,95.04L411.4,179.83L412.75,169.82L414.08,146.12L415.39,138.03L416.69,135.79L417.97,131.52L419.23,153.2L420.47,143.09L421.7,133.18L422.92,108.06L424.12,95.53L425.3,110.72L426.47,109.51L427.63,117.74L428.77,117.79L429.9,144.19L431.01,171.43L432.12,153.28L433.21,132.61L434.28,153.77L435.35,143.55L436.41,154.64L438.48,183.63L439.5,162.56L440.51,180.85L441.51,145.76L442.5,196.69L443.48,200.71L444.45,198.78L445.41,200.49L446.36,217.83L447.31,216.24L448.24,220.87L449.16,187.29L450.08,173L450.98,218.14L451.88,198.02L452.77,227.35L453.65,223.59L454.52,229.25L455.39,199.9L456.25,206.61L457.94,212.34L458.78,175.57L459.61,145.7L460.43,160.67L462.05,186.85L462.85,220.51L463.64,205.97L464.43,231.75L465.21,253.88L465.99,242.28L467.52,276.4L468.28,274.31L469.03,243.67L469.77,274.26L471.25,295.93L471.98,268.29L472.7,244.46L473.42,247.76L474.84,216.5L475.54,211.77L476.23,213.59L476.93,185.91L478.97,153L479.64,159.24L482.29,100.35L482.94,123.32L483.58,123.02L484.23,121.5L485.5,138.68L486.12,115.25L486.75,128.38L487.37,120.24L488.6,127.71L489.21,145.43L489.81,172.9L490.41,158.08L491.61,166.27L492.2,152.05L492.78,146.95L493.37,153.02L493.95,155.31L494.52,137.93L495.09,102.88L495.66,130.78L496.23,124.61L496.79,107.97L497.35,101.89L497.91,81.65L499.56,77.45L500.1,87.04L500.64,81.05L501.18,93.5L502.25,108.85L502.78,90.03L503.3,92.71L503.83,83.63L504.86,63.64L505.38,70.17L506.4,37.23L506.91,42.04L507.91,45.28L508.41,37.29L510.87,60.98L511.35,74.44L512.31,67.09L512.79,74.34L513.26,76.62L513.73,83.27L514.2,86.54L514.67,85.83L515.13,85.79L516.97,122.75L517.43,121.66L517.88,121.93L518.33,140.87L518.78,139.5L519.22,133.21L520.11,189.64L520.55,183.65L520.99,180.1L521.86,205.86L522.29,188.18L523.14,214.58L523.57,206.69L524,233.3L524.42,225.3L524.84,223.6L525.26,215.38L525.67,242.39L526.09,217.08L526.5,231.3L526.91,243.27L527.32,236.5L527.73,209.29L528.14,194.37L528.54,233.02L528.95,243.42L529.35,219.87L530.54,268.13L530.94,246.31L531.33,250.08L531.72,262.78L532.11,249.17L532.5,251.68L532.89,264.62L533.65,273.54L534.04,307.27L535.17,328.33L535.55,325.88L535.93,322.79L536.67,352.82L537.04,331.74L538.14,343.42L538.51,331.57L538.87,322.42L539.23,324.95L539.6,326.13L540.31,345.57L540.67,354.47L541.03,352.35L541.38,353.84L541.73,362.36L542.78,365.8L543.13,357.26L543.82,358.85L544.85,307.17L545.19,321.11L545.53,321.53L545.87,326.82L546.21,329.55L546.54,324.08L548.2,362.41L548.53,349.41L548.86,348.73L549.19,362.74L550.16,371.75L550.48,383.09L550.8,382.27L551.12,390.82L551.44,382.5L551.76,386.34L552.08,386.49L553.02,377.64L553.33,378.33L553.96,386.07L554.27,375.65L554.88,373.56L555.19,377.28L555.8,384.03L556.11,378.8L557.01,391.33L557.31,389.75L557.61,387.91L558.21,378.48L558.5,382.66L558.8,385.39L559.09,385.98L559.39,389.76L559.68,398L560.26,396.66L560.55,395.35L560.84,393.77L561.13,396.9L561.42,393.33L561.71,400.03L562.28,396.52L562.56,397.04L562.84,399.63L563.41,397.39L563.69,401.15L563.97,405.68L564.25,403.28L564.53,398.35L565.63,386.84L565.91,392.33L566.18,397.79L566.73,396.67L567,398.92L568.08,404.98L568.35,406.11L569.14,399.53L569.41,396.14L569.67,396.67L569.94,400.73L570.2,400.66L570.46,392.89L571.76,378.08L572.02,378.69L572.53,374.86L572.79,378.79L574.05,361.68L574.31,365.13L574.56,366.12L575.31,350.39L575.55,354.3L575.8,362.03L576.05,362.06L576.3,363.5L576.54,367.55L576.79,362.48L577.03,364.44L577.28,367.15L577.52,366.49L577.76,368.47L578.49,383.56L578.73,380.27L578.97,380.41L580.16,392.3L580.39,388.14L580.63,385.85L580.86,391.61L581.8,382.7L582.03,386.52L582.72,394.66L582.95,394.25L583.18,390.66L583.41,390.08L583.64,393.52L584.1,399.29L584.32,391.67L584.78,378.39L585,385.85L585.23,389.08L585.67,387.74L585.9,389.85L586.56,390.75L586.78,387.26L587,387.37L587.23,383.37L587.44,379.23L587.88,383.8L588.1,387.11L589.4,398.93L589.61,396.56L589.83,396.57L590.04,395.54L590.25,397.68L590.47,396.32L590.68,402.53L591.52,407.21L591.73,406.52L591.94,408.23L592.36,407.73L592.57,406.82L592.78,409.1L593.4,407.71L593.6,401.69L593.81,401.06L594.02,394.87L594.22,391.52L594.42,396.47L594.83,392.8L595.03,398.35L596.44,411.2L596.64,410.84L596.84,410.62L597.04,411.69L598.03,414.28L598.23,413.07L598.62,413.84L598.81,410.32L599.59,403.79L599.78,407.89L600.36,404.88L600.55,407.01L600.74,407.6L601.31,407.84L601.5,406.76L601.69,407.64L602.07,407.7L602.26,405.57L602.45,407.61L602.82,406.24L603.01,404.72L603.57,405.18L603.94,402.62L604.12,405.6L604.31,407.58L604.49,404.17L604.67,401.58L605.22,401.71L605.59,393.63L605.77,390.6L606.13,390.33L606.31,394.87L606.49,394.81L606.67,399.79L607.57,395.81L607.74,399.4L607.92,399.96L608.1,399.03L608.28,395.42L608.45,389.02L608.98,392.07L609.16,390.66L609.33,387.04L609.85,388.36L610.03,389.04L611.06,399.3L611.24,397.15L611.75,395.78L612.43,407.79L612.6,402.75L612.93,403.7L613.1,400.78L613.61,397.62L613.77,398.1L613.94,399.31L614.44,406.6L614.77,401.32L614.93,400.03L615.43,394.24L615.92,394.72L616.08,400.38L616.25,400.02L616.41,401.02L616.57,402.05L616.73,404.17L617.06,400.03L617.22,399.87L617.38,401.29L617.7,399.05L617.86,397.17L618.97,385.89L619.13,384.86L619.29,385.97L619.45,375.28L619.6,375.26L619.76,378.66L620.85,357.55L621.01,362.79L621.16,356.87L621.78,360.51L621.93,356.65L623.46,387.27L623.61,383.65L625.7,402.64L625.84,401.13L627.01,387.08L627.16,391.28L627.31,388.81L627.74,392.05L627.88,394.01L628.32,390.85L628.6,391.28L628.75,395.32L629.6,400.27L629.74,397.08L630.73,403.83L630.87,402.45L631.01,402.37L631.15,403.99L631.56,404.49L631.98,402.76L632.12,405.81L632.26,406.7L632.53,405.37L632.67,401.91L632.81,399.66L633.08,404.78L633.22,402.6L633.35,406.19L633.49,403.6L633.76,406.96L633.9,406.79L634.03,408.39L634.17,408.16L634.3,405.51L634.57,405.94L634.71,402.2L635.64,408.29L635.78,407.82L636.04,412.63L636.57,411L636.7,411L636.96,412.66L637.49,411.58L637.62,411.79L638.01,414.32L638.66,414.1L638.79,413.57L639.3,410.72L639.43,412.89L640.19,414.22L640.32,414L640.45,412.7L640.57,413.33L640.83,411.42L640.95,410.98L641.45,411.13L641.83,409.56L641.95,410.57L642.08,410.06L642.33,411.69L642.45,413.11L643.44,409.16L643.56,410.01L644.42,406.89L644.54,409.47L644.66,410.44L644.9,407.89L645.02,407.07L645.5,404.85L645.74,406.19L645.86,406.39L646.22,402.8L646.58,406.16L646.7,405.45L646.82,407.74L647.29,402.6L647.41,402.19L647.76,402.97L647.88,400.97L648,402.75L648.11,405.04L648.23,405.56L648.46,404.73L648.58,404.96L648.7,403.35L649.62,397.84L649.74,401.4L649.97,402.43L650.08,399.62L650.31,401.11L650.42,402.39L651.45,410.33L651.56,409.04L652.35,415.54L652.91,414.82L653.02,414.39L653.13,414.19L653.24,414.43L653.35,412.57L654.12,414.51L654.23,413.64L654.45,413.7L655.32,408.98L655.43,410.25L655.54,411.12L655.65,410.51L655.86,411.78L656.19,410.75L656.3,411.25L657.26,414.27L657.36,414.13L657.47,413.61L657.79,414.19L658.11,413.45L658.21,413.82L658.32,413.08L659.26,416.52L659.36,415.76L659.47,415.77L660.09,416.28L660.19,415.4L660.81,414.31L660.91,413.64L661.63,410.56L661.73,411.03L661.83,412.49L662.24,413.23L662.34,412.05L662.44,411.59L662.74,407.68L663.24,408.79L663.34,411.42L663.44,412.15L663.64,409.49L663.74,408.16L664.33,400.27L664.63,401.11L664.73,401.62L665.22,404.02L665.42,401.89L665.51,400.27L666.39,406.05L666.58,403.93L666.68,404.39L666.78,405.04L666.87,403.75L667.16,404.24L667.26,403.12L667.64,399.33L667.93,403.05L668.02,403.52L668.87,409.25L669.16,408.96L669.25,407.28L669.34,408.65L669.72,404.4L669.81,403.33L670.09,405.7L670.28,404.2L670.37,401.83L670.65,405.98L671.2,403.58L671.3,403.36L671.39,401.81L671.85,405.99L671.94,406.4L672.12,406.2L672.21,406.54L672.3,407.73L673.48,385.78L673.66,387.48L673.75,387.42L674.28,394.89L674.46,390.33L674.55,388.35L674.91,388.33L675.17,393.62L675.35,392.93L675.44,392.4L675.53,392.78L675.61,388.68L675.97,379.05L676.4,382.32L676.49,384.99L676.66,380.61L677.18,382.56L677.27,383.53L677.44,387.69L677.62,380.17L678.05,386.84L678.13,382.9L678.56,377.76L678.9,378.4L678.99,382.94L679.16,378.11L679.66,386.2L679.75,382.96L679.92,374.97L680.34,384.14L680.5,382.91L680.59,386.9L680.92,382.51L681.17,389.17L681.25,389.1L681.34,385.25L681.67,387.87L682.24,376.25L682.33,381.03L682.49,369.03L682.98,375.7L683.06,376.87L683.22,380.15L683.63,374.61L683.71,373.1L683.87,375.75L683.95,369.05L684.03,363.08L685.55,305.62L685.63,310.86L686.19,311.02L687.21,253.45L687.28,258.19L687.36,262.44L687.67,250.63L687.75,256.39L687.83,263.09L687.91,263.91L687.98,257.22L688.06,267.03L689.21,317.72L689.29,316.65L689.37,316.28L689.52,317.21L690.28,282.94L690.5,283.56L690.58,283.71L690.8,286.15L690.88,272.25L691.03,281.7L691.1,269.06L691.78,234.92L691.85,236.03" style="vector-effect: non-scaling-stroke; fill: none; stroke: rgb(44, 160, 44); stroke-opacity: 1; stroke-width: 2px; opacity: 1;"/></g><g class="points"/><g class="text"/></g><g class="trace scatter tracedaabbc" style="stroke-miterlimit: 2; opacity: 1;"><g class="fills"/><g class="errorbars"/><g class="lines"><path class="js-line" d="M0,198.31L66.9,223.55L106.03,342.39L133.79,331.2L155.33,361.28L172.93,361.01L187.8,318.18L200.69,182.94L212.06,136.47L222.23,152.87L231.42,193.97L239.82,164.06L247.55,214.32L254.7,270.77L261.36,253.76L267.59,302.61L273.44,296.89L278.95,340.84L284.17,341.34L289.12,326.74L293.83,230.6L298.32,218.5L302.61,251.49L306.72,191.82L310.66,203.44L318.09,209.28L321.6,182.53L324.98,218.67L328.26,227.53L331.42,272.05L334.48,296.17L337.45,277.44L340.33,294.12L343.13,262.22L345.85,315.83L348.5,334.77L351.07,296.51L353.58,245.31L356.02,270.09L358.4,274.12L360.73,256.62L363,267.2L365.22,306.91L367.39,325.97L369.51,298.39L371.58,305.61L373.62,306.61L375.61,315.61L377.56,330.81L379.47,334.32L381.34,369.29L383.18,343.45L384.98,348.03L386.75,364.32L388.49,351.25L393.53,333.41L395.15,332.67L396.75,328.37L398.32,319.03L399.86,328.09L401.38,330.29L402.88,294.93L404.35,317.76L405.8,281.07L407.23,315.86L408.64,317.96L410.03,364.32L411.4,366.85L412.75,352.58L414.08,357.02L415.39,350.95L416.69,349.73L417.97,337.4L419.23,342.77L420.47,332.39L421.7,289.95L422.92,283.48L425.3,310.8L426.47,296.95L427.63,317.47L428.77,233.9L431.01,193.7L432.12,194.78L433.21,212L434.28,185.58L435.35,181.42L436.41,166.85L437.45,165.12L438.48,184.02L439.5,226.25L440.51,233.47L441.51,206.12L442.5,229.25L444.45,219.11L445.41,249.22L446.36,242.22L447.31,279.75L448.24,288.37L449.16,252.66L450.08,227.26L450.98,236.95L451.88,250.45L452.77,235.68L454.52,264.51L455.39,259.47L457.1,278.31L457.94,262.06L460.43,295.77L461.24,297.57L462.05,285.45L462.85,298.97L463.64,310.28L464.43,293.7L465.21,281.32L465.99,253.8L466.76,251.7L467.52,275.43L468.28,247.88L469.03,275.27L469.77,273.86L470.51,269.94L471.98,291.08L472.7,284.2L474.84,259.61L475.54,240.72L476.23,236.39L476.93,223.84L477.61,225.99L478.29,184.92L478.97,176.93L479.64,194.59L480.31,175.34L480.98,194.17L482.29,152.66L482.94,156.13L483.58,143.24L484.23,151.5L486.12,197.38L486.75,171.82L487.37,177.21L487.99,176.27L488.6,165.83L489.21,155.83L489.81,176.23L490.41,146.26L491.01,152.88L491.61,145.94L492.2,150.84L492.78,164.23L493.37,121.24L493.95,140.31L494.52,116.14L495.09,149.46L495.66,168.5L496.23,165.66L496.79,161.38L497.35,163.99L497.91,173.66L498.46,182.04L499.01,157.57L499.56,158.94L500.1,121.75L501.18,117.28L501.72,108.95L502.25,101.93L502.78,109.25L503.3,94.74L503.83,110.42L505.38,87.34L505.89,103.07L506.4,94.19L506.91,115.15L508.41,185.7L508.91,206.53L509.4,159.05L509.89,172.51L510.38,168.06L510.87,186.69L511.35,176.68L511.83,187.54L512.31,206.18L512.79,178.26L513.26,197.37L513.73,195.49L514.2,195.06L514.67,188.29L515.13,165.89L515.6,161.61L516.06,135.97L516.97,117.07L517.43,115.79L517.88,109.93L518.33,119.41L518.78,145.01L519.22,142.34L519.67,150.1L521.86,256.45L522.29,246.85L522.72,254.53L523.14,220.31L524,181.45L524.42,186.53L524.84,187.39L525.26,176.03L525.67,178.01L526.09,166.36L526.91,152.75L527.32,155.36L527.73,151.09L528.14,147.01L528.54,131.84L529.75,148.53L530.14,118.2L530.54,117.77L530.94,121.8L531.33,130.04L531.72,124.35L532.11,104.98L532.89,82.9L533.27,96.16L534.42,119.34L534.8,123.48L535.17,149.47L535.55,123.31L536.3,108.41L536.67,122.02L537.41,134.88L537.78,113.31L538.14,119.34L538.51,112.08L539.6,68.6L539.95,69.55L540.31,69.97L540.67,55.06L541.03,61.45L541.38,73.75L542.08,95.44L542.43,91.05L542.78,97.11L544.51,53.66L544.85,60.91L545.19,71.02L545.53,62.19L545.87,66.02L546.21,79.98L546.54,79.69L546.88,65.99L547.21,69.73L547.54,65.25L547.87,64.82L548.2,66.02L548.53,65.38L548.86,53.43L549.51,43.48L549.84,50.91L550.16,51.2L550.48,49.4L551.12,57.81L551.44,51.6L551.76,62.6L552.08,58.11L552.39,55.34L552.71,51.96L553.02,56.07L553.33,60L553.96,67.29L554.27,63.18L554.58,63.12L555.19,80.77L555.5,71.88L556.41,52.68L556.71,53.98L557.01,56.88L557.31,56.24L557.61,60.48L558.5,41.14L558.8,48.8L560.26,33.49L560.55,35.83L560.84,33.6L562.28,22.55L562.56,21.11L562.84,22.78L563.13,21.39L563.41,21.06L564.53,24.63L564.81,21L565.91,34.56L566.18,25.25L566.73,39.68L567,31.27L567.27,36.47L567.54,35.9L567.81,32.42L568.08,32.88L568.35,30.53L568.61,29.26L568.88,17.91L569.14,16.65L569.41,21.06L569.67,20.76L569.94,18.72L570.2,19.94L570.46,17.26L570.72,17.78L570.98,15.26L571.24,12.82L571.5,18.01L572.79,33.86L573.04,28.28L573.3,34.63L573.8,33.39L574.05,28.1L576.05,44.95L576.3,44.01L577.52,56.15L577.76,54.98L578.73,70.58L578.97,78.79L579.21,81.04L579.44,80.05L579.68,70.77L580.39,84.59L580.63,97.42L580.86,94.77L581.1,97.97L581.33,113.22L581.57,94.03L582.03,107.46L582.26,103.7L582.49,112.66L582.72,106.14L582.95,96.13L583.41,108.69L583.64,97.4L583.87,95.24L584.55,104.62L584.78,93.02L585,87.62L585.23,87.68L585.45,105.01L585.9,91.43L586.56,91.61L586.78,111.03L588.32,76.15L588.54,83.53L590.04,150.86L590.25,138.77L590.47,129.46L591.52,157.47L591.73,138.17L591.94,122.13L592.36,129.93L592.57,145.92L592.78,146.52L592.99,151.31L593.19,173.57L593.6,153.79L593.81,154.18L594.02,153.92L594.22,141.23L594.83,131.19L595.03,126.78L595.84,139.56L596.04,132.5L596.64,138.91L596.84,132.08L597.04,129.52L597.24,146.78L597.44,142.47L597.64,152.17L597.83,151.93L598.23,130.16L598.81,131.57L599.01,136.39L600.17,112.2L600.36,115.04L601.31,137.37L601.5,121.53L602.07,156.94L602.26,165.98L602.45,173.38L602.63,167.06L602.82,143.1L603.75,102.7L603.94,105.32L604.12,110L604.49,134.15L604.86,119.83L605.04,119.97L605.95,104.05L606.13,119.53L606.67,143.58L607.03,130.17L607.21,130.69L608.63,110.55L608.8,123L609.33,115.11L609.51,116.46L609.68,127.69L610.2,102.58L610.37,88.84L610.55,101.68L611.06,96.63L611.24,95.12L611.41,96.75L611.58,92.98L611.75,86.51L612.09,74.56L612.26,77.18L612.43,85.33L613.94,139.57L614.11,130.56L614.6,156.29L614.77,155.46L614.93,134.41L615.1,134.84L615.26,139.76L615.43,134.95L615.59,143.33L615.76,150.43L616.08,156.13L616.25,151.14L616.41,159.62L616.73,152.24L616.89,162.65L617.06,157.22L617.22,158.35L617.54,138.79L618.02,147.7L618.18,150.03L618.34,159.27L618.82,152.76L618.97,140L619.6,128.31L619.76,142.43L620.07,128.91L620.23,147.36L620.39,143.77L620.54,152.57L620.85,182.97L621.16,164.96L621.32,160.96L621.47,159.64L621.63,177.37L621.78,184.53L621.93,172.16L622.39,179.57L622.55,168.78L623.46,189.14L623.61,180.56L624.36,202.41L624.51,200.06L624.66,198.58L624.81,194.75L624.95,208.49L625.25,197.68L625.4,205.72L625.99,181.31L626.14,205.07L626.28,199.61L626.87,183.26L627.01,192.23L627.16,205.34L627.31,215.84L627.74,198.65L627.88,205.34L628.03,202.76L628.89,242.17L629.17,239.64L629.32,230.59L629.74,229.36L630.31,253.88L630.45,252.95L630.87,231.02L631.29,239.35L631.42,241.34L631.56,235.76L631.84,248.38L631.98,246.64L632.12,251.41L632.53,254.46L632.67,242.47L633.08,209.41L633.35,225.97L633.49,243.89L633.9,254.6L634.03,251.82L634.17,243.27L634.3,246.07L634.44,237.05L634.57,228.97L635.78,207.68L635.91,189.58L636.31,198.96L636.44,202.84L637.49,175.37L637.62,176.45L637.75,191.73L638.27,180.46L638.4,189.2L638.53,189.78L638.66,194.83L638.79,170.36L639.04,163.47L639.17,171.69L639.3,169.24L639.43,177.51L639.56,182.4L639.68,165.46L639.81,158.46L640.32,129.41L640.57,143.48L640.7,154.14L640.83,148.78L641.33,157.51L641.45,169.13L641.7,173.11L641.83,167.89L641.95,153.39L642.33,180.48L642.45,197.22L642.58,192.32L642.82,209.85L642.95,214.79L643.44,198.56L643.81,200.94L643.93,209.42L644.05,209.96L644.17,230.03L645.26,284.55L645.38,279.87L645.5,277.92L645.74,277.79L646.7,311.43L646.82,308.63L646.94,302.47L647.41,271.5L647.64,288.21L647.76,296.77L648.35,298.07L648.58,284.05L648.7,289.06L648.81,291.05L650.88,219.01L650.99,223.76L651.11,228.88L651.33,210.22L651.45,203.91L651.79,176.12L652.23,198.76L652.35,201.73L652.57,204.85L652.68,218.12L653.68,291.4L654.01,286.67L654.12,288.65L654.67,265.13L655,273.91L655.11,285.4L655.21,285.63L655.32,279.22L655.43,278.3L655.54,278.98L655.65,282.88L655.97,281.4L656.08,290.14L656.3,281.76L656.4,278.98L656.83,254.22L657.04,267.81L657.15,276.74L657.36,256.24L657.47,264.21L657.58,274.97L658.21,246.43L658.42,261.69L658.53,259.84L658.63,258.9L658.74,267.79L658.95,273.67L659.15,262.46L659.26,256.21L659.36,259.76L659.57,249.39L659.67,238.37L659.88,247.89L660.71,214.71L660.81,225.43L661.63,241.45L661.73,243.76L661.93,232.04L662.03,246.28L662.94,266.5L663.04,258.05L663.44,227.47L663.74,242.44L663.84,249.83L664.43,274.09L664.73,265.87L664.83,257.37L665.02,254.22L665.22,264.56L665.32,241.94L666.2,202.7L666.29,204.55L666.39,203.01L666.49,207.82L666.68,194.85L666.78,199.33L666.87,189.06L668.5,128.6L668.59,131.92L668.68,132.94L668.97,119.98L669.44,127.3L669.53,137.12L669.81,142.03L669.91,131.53L670,134.32L670.09,132.86L671.11,161.16L671.2,168.5L671.66,166.49L671.94,180.44L672.03,179.89L672.12,168.18L672.3,171.23L672.48,161.53L672.58,168.7L672.67,185.03L672.76,177.37L673.12,203.14L673.21,200.09L673.3,210.62L673.39,203.93L673.75,226.34L673.84,229.84L673.93,222.28L674.28,254.4L674.37,250.47L674.64,246.22L674.82,255.15L674.91,241.98L675.53,238.65L675.79,257.66L675.88,253.17L676.58,288.25L676.66,275.77L676.75,274.77L676.92,260.21L677.27,275.26L677.36,275.17L677.79,293.75L678.13,289.85L678.22,284.32L678.47,258.69L678.56,270.45L678.64,275.47L680.08,313.48L680.17,314.1L680.59,339.25L680.92,321.22L681,321.01L681.09,321.32L681.17,329.97L681.5,331.56L681.58,313.29L681.91,325.13L682,331.64L682.08,333.85L682.41,323.46L682.57,327.72L682.65,325.06L682.9,313.97L683.14,335.44L683.3,332.58L683.39,343.31L683.47,345.34L683.55,341.59L683.71,344.75L683.79,333.36L684.19,345.62L684.6,345.6L684.68,345.85L684.92,348.98L685.55,328.55L685.63,335.79L685.71,332.66L685.95,338.81L686.11,328.7L686.42,333.65L686.5,329.08L686.58,326.33L686.97,333.69L687.05,337.62L687.28,347.92L687.52,337.51L687.75,337.8L687.83,338.7L687.91,341.7L688.29,328.89L688.37,320.99L689.21,300.96L689.29,301.57L689.37,297.21L689.59,317.74L689.82,304.61L689.9,310.95L689.97,309.29L690.13,321.11L690.28,319.14L690.35,324.66L690.73,323.93L691.48,348.64L691.55,343.95L691.63,340.85" style="vector-effect: non-scaling-stroke; fill: none; stroke: rgb(214, 39, 40); stroke-opacity: 1; stroke-width: 2px; opacity: 1;"/></g><g class="points"/><g class="text"/></g></g></g><g class="overplot"/><path class="xlines-above crisp" d="M0,0" style="fill: none;"/><path class="ylines-above crisp" d="M0,0" style="fill: none;"/><g class="overlines-above"/><g class="xaxislayer-above"><g class="xtick"><text text-anchor="middle" x="0" y="533" transform="translate(80,0)" style="font-family: 'Open Sans', verdana, arial, sans-serif; font-size: 12px; fill: rgb(68, 68, 68); fill-opacity: 1; white-space: pre;">10M</text></g><g class="xtick"><text text-anchor="middle" x="0" y="530" transform="translate(146.9,0)" style="font-family: 'Open Sans', verdana, arial, sans-serif; font-size: 9px; fill: rgb(68, 68, 68); fill-opacity: 1; white-space: pre;">2</text></g><g class="xtick"><text text-anchor="middle" x="0" y="530" transform="translate(235.33,0)" style="font-family: 'Open Sans', verdana, arial, sans-serif; font-size: 9px; fill: rgb(68, 68, 68); fill-opacity: 1; white-space: pre;">5</text></g><g class="xtick"><text text-anchor="middle" x="0" y="533" transform="translate(302.23,0)" style="font-family: 'Open Sans', verdana, arial, sans-serif; font-size: 12px; fill: rgb(68, 68, 68); fill-opacity: 1; white-space: pre;">100M</text></g><g class="xtick"><text text-anchor="middle" x="0" y="530" transform="translate(369.12,0)" style="font-family: 'Open Sans', verdana, arial, sans-serif; font-size: 9px; fill: rgb(68, 68, 68); fill-opacity: 1; white-space: pre;">2</text></g><g class="xtick"><text text-anchor="middle" x="0" y="530" transform="translate(457.56,0)" style="font-family: 'Open Sans', verdana, arial, sans-serif; font-size: 9px; fill: rgb(68, 68, 68); fill-opacity: 1; white-space: pre;">5</text></g><g class="xtick"><text text-anchor="middle" x="0" y="533" transform="translate(524.45,0)" style="font-family: 'Open Sans', verdana, arial, sans-serif; font-size: 12px; fill: rgb(68, 68, 68); fill-opacity: 1; white-space: pre;">1B</text></g><g class="xtick"><text text-anchor="middle" x="0" y="530" transform="translate(591.35,0)" style="font-family: 'Open Sans', verdana, arial, sans-serif; font-size: 9px; fill: rgb(68, 68, 68); fill-opacity: 1; white-space: pre;">2</text></g><g class="xtick"><text text-anchor="middle" x="0" y="530" transform="translate(679.78,0)" style="font-family: 'Open Sans', verdana, arial, sans-serif; font-size: 9px; fill: rgb(68, 68, 68); fill-opacity: 1; white-space: pre;">5</text></g><g class="xtick"><text text-anchor="middle" x="0" y="533" transform="translate(746.68,0)" style="font-family: 'Open Sans', verdana, arial, sans-serif; font-size: 12px; fill: rgb(68, 68, 68); fill-opacity: 1; white-space: pre;">10B</text></g></g><g class="yaxislayer-above"><g class="ytick"><text text-anchor="end" x="79" y="4.199999999999999" transform="translate(0,520)" style="font-family: 'Open Sans', verdana, arial, sans-serif; font-size: 12px; fill: rgb(68, 68, 68); fill-opacity: 1; white-space: pre;">0</text></g><g class="ytick"><text text-anchor="end" x="79" y="4.199999999999999" transform="translate(0,436)" style="font-family: 'Open Sans', verdana, arial, sans-serif; font-size: 12px; fill: rgb(68, 68, 68); fill-opacity: 1; white-space: pre;">0.2</text></g><g class="ytick"><text text-anchor="end" x="79" y="4.199999999999999" transform="translate(0,352)" style="font-family: 'Open Sans', verdana, arial, sans-serif; font-size: 12px; fill: rgb(68, 68, 68); fill-opacity: 1; white-space: pre;">0.4</text></g><g class="ytick"><text text-anchor="end" x="79" y="4.199999999999999" transform="translate(0,268)" style="font-family: 'Open Sans', verdana, arial, sans-serif; font-size: 12px; fill: rgb(68, 68, 68); fill-opacity: 1; white-space: pre;">0.6</text></g><g class="ytick"><text text-anchor="end" x="79" y="4.199999999999999" transform="translate(0,184)" style="font-family: 'Open Sans', verdana, arial, sans-serif; font-size: 12px; fill: rgb(68, 68, 68); fill-opacity: 1; white-space: pre;">0.8</text></g><g class="ytick"><text text-anchor="end" x="79" y="4.199999999999999" transform="translate(0,100)" style="font-family: 'Open Sans', verdana, arial, sans-serif; font-size: 12px; fill: rgb(68, 68, 68); fill-opacity: 1; white-space: pre;">1</text></g></g><g class="overaxes-above"/></g></g><g class="polarlayer"/><g class="ternarylayer"/><g class="geolayer"/><g class="funnelarealayer"/><g class="pielayer"/><g class="treemaplayer"/><g class="sunburstlayer"/><g class="glimages"/><defs id="topdefs-0ee984"><g class="clips"/><clipPath id="legend0ee984"><rect width="202" height="86" x="0" y="0"/></clipPath></defs><g class="layer-above"><g class="imagelayer"/><g class="shapelayer"/></g><g class="infolayer"><g class="legend" pointer-events="all" transform="translate(785.84,100)"><rect class="bg" shape-rendering="crispEdges" style="stroke: rgb(68, 68, 68); stroke-opacity: 1; fill: rgb(255, 255, 255); fill-opacity: 1; stroke-width: 0px;" width="202" height="86" x="0" y="0"/><g class="scrollbox" transform="" clip-path="url('#legend0ee984')"><g class="groups"><g class="traces" transform="translate(0,14.5)" style="opacity: 1;"><text class="legendtext" text-anchor="start" x="40" y="4.680000000000001" style="font-family: 'Open Sans', verdana, arial, sans-serif; font-size: 12px; fill: rgb(68, 68, 68); fill-opacity: 1; white-space: pre;">FlipHash (64 bits)</text><g class="layers" style="opacity: 1;"><g class="legendfill"/><g class="legendlines"><path class="js-line" d="M5,0h30" style="fill: none; stroke: rgb(31, 119, 180); stroke-opacity: 1; stroke-width: 2px;"/></g><g class="legendsymbols"><g class="legendpoints"/></g></g><rect class="legendtoggle" x="0" y="-9.5" width="196.6875" height="19" style="fill: rgb(0, 0, 0); fill-opacity: 0;"/></g><g class="traces" transform="translate(0,33.5)" style="opacity: 1;"><text class="legendtext" text-anchor="start" x="40" y="4.680000000000001" style="font-family: 'Open Sans', verdana, arial, sans-serif; font-size: 12px; fill: rgb(68, 68, 68); fill-opacity: 1; white-space: pre;">FlipHash (XXH3, 128 bits)</text><g class="layers" style="opacity: 1;"><g class="legendfill"/><g class="legendlines"><path class="js-line" d="M5,0h30" style="fill: none; stroke: rgb(255, 127, 14); stroke-opacity: 1; stroke-width: 2px;"/></g><g class="legendsymbols"><g class="legendpoints"/></g></g><rect class="legendtoggle" x="0" y="-9.5" width="196.6875" height="19" style="fill: rgb(0, 0, 0); fill-opacity: 0;"/></g><g class="traces" transform="translate(0,52.5)" style="opacity: 1;"><text class="legendtext" text-anchor="start" x="40" y="4.680000000000001" style="font-family: 'Open Sans', verdana, arial, sans-serif; font-size: 12px; fill: rgb(68, 68, 68); fill-opacity: 1; white-space: pre;">FlipHash (XXH3, 64 bits)</text><g class="layers" style="opacity: 1;"><g class="legendfill"/><g class="legendlines"><path class="js-line" d="M5,0h30" style="fill: none; stroke: rgb(44, 160, 44); stroke-opacity: 1; stroke-width: 2px;"/></g><g class="legendsymbols"><g class="legendpoints"/></g></g><rect class="legendtoggle" x="0" y="-9.5" width="196.6875" height="19" style="fill: rgb(0, 0, 0); fill-opacity: 0;"/></g><g class="traces" transform="translate(0,71.5)" style="opacity: 1;"><text class="legendtext" text-anchor="start" x="40" y="4.680000000000001" style="font-family: 'Open Sans', verdana, arial, sans-serif; font-size: 12px; fill: rgb(68, 68, 68); fill-opacity: 1; white-space: pre;">JumpHash</text><g class="layers" style="opacity: 1;"><g class="legendfill"/><g class="legendlines"><path class="js-line" d="M5,0h30" style="fill: none; stroke: rgb(214, 39, 40); stroke-opacity: 1; stroke-width: 2px;"/></g><g class="legendsymbols"><g class="legendpoints"/></g></g><rect class="legendtoggle" x="0" y="-9.5" width="196.6875" height="19" style="fill: rgb(0, 0, 0); fill-opacity: 0;"/></g></g></g><rect class="scrollbar" rx="20" ry="3" width="0" height="0" style="fill: rgb(128, 139, 164); fill-opacity: 1;" x="0" y="0"/></g><g class="g-gtitle"><text class="gtitle" x="500" y="50" text-anchor="middle" dy="0em" style="font-family: 'Open Sans', verdana, arial, sans-serif; font-size: 17px; fill: rgb(68, 68, 68); opacity: 1; font-weight: normal; white-space: pre;">Independence of the hashes of the same key and distinct ranges</text></g><g class="g-xtitle"><text class="xtitle" x="426" y="572" text-anchor="middle" style="font-family: 'Open Sans', verdana, arial, sans-serif; font-size: 14px; fill: rgb(68, 68, 68); opacity: 1; font-weight: normal; white-space: pre;">Number of hashed keys</text></g><g class="g-ytitle"><text class="ytitle" transform="rotate(-90,42,310)" x="42" y="310" text-anchor="middle" style="font-family: 'Open Sans', verdana, arial, sans-serif; font-size: 14px; fill: rgb(68, 68, 68); opacity: 1; font-weight: normal; white-space: pre;">p-value of the chi-squared test of independence</text></g></g></svg>