<svg class="main-svg" xmlns="http://www.w3.org/2000/svg" xmlns:xlink="http://www.w3.org/1999/xlink" width="1000" height="600" style="" viewBox="0 0 1000 600"><rect x="0" y="0" width="1000" height="600" style="fill: rgb(255, 255, 255); fill-opacity: 1;"/><defs id="defs-7c9bd8"><g class="clips"><clipPath id="clip7c9bd8xyplot" class="plotclip"><rect width="692" height="420"/></clipPath><clipPath class="axesclip" id="clip7c9bd8x"><rect x="80" y="0" width="692" height="600"/></clipPath><clipPath class="axesclip" id="clip7c9bd8y"><rect x="0" y="100" width="1000" height="420"/></clipPath><clipPath class="axesclip" id="clip7c9bd8xy"><rect x="80" y="100" width="692" height="420"/></clipPath></g><g class="gradients"/></defs><g class="bglayer"/><g class="layer-below"><g class="imagelayer"/><g class="shapelayer"/></g><g class="cartesianlayer"><g class="subplot xy"><g class="layer-subplot"><g class="shapelayer"/><g class="imagelayer"/></g><g class="gridlayer"><g class="x"><path class="xgrid crisp" transform="translate(149.44,0)" d="M0,100v420" style="stroke: rgb(238, 238, 238); stroke-opacity: 1; stroke-width: 1px;"/><path class="xgrid crisp" transform="translate(241.23,0)" d="M0,100v420" style="stroke: rgb(238, 238, 238); stroke-opacity: 1; stroke-width: 1px;"/><path class="xgrid crisp" transform="translate(310.66999999999996,0)" d="M0,100v420" style="stroke: rgb(238, 238, 238); stroke-opacity: 1; stroke-width: 1px;"/><path class="xgrid crisp" transform="translate(380.1,0)" d="M0,100v420" style="stroke: rgb(238, 238, 238); stroke-opacity: 1; stroke-width: 1px;"/><path class="xgrid crisp" transform="translate(471.9,0)" d="M0,100v420" style="stroke: rgb(238, 238, 238); stroke-opacity: 1; stroke-width: 1px;"/><path class="xgrid crisp" transform="translate(541.3299999999999,0)" d="M0,100v420" style="stroke: rgb(238, 238, 238); stroke-opacity: 1; stroke-width: 1px;"/><path class="xgrid crisp" transform="translate(610.77,0)" d="M0,100v420" style="stroke: rgb(238, 238, 238); stroke-opacity: 1; stroke-width: 1px;"/><path class="xgrid crisp" transform="translate(702.56,0)" d="M0,100v420" style="stroke: rgb(238, 238, 238); stroke-opacity: 1; stroke-width: 1px;"/></g><g class="y"><path class="ygrid crisp" transform="translate(0,496.35)" d="M80,0h692" style="stroke: rgb(238, 238, 238); stroke-opacity: 1; stroke-width: 1px;"/><path class="ygrid crisp" transform="translate(0,426.78)" d="M80,0h692" style="stroke: rgb(238, 238, 238); stroke-opacity: 1; stroke-width: 1px;"/><path class="ygrid crisp" transform="translate(0,357.2)" d="M80,0h692" style="stroke: rgb(238, 238, 238); stroke-opacity: 1; stroke-width: 1px;"/><path class="ygrid crisp" transform="translate(0,287.63)" d="M80,0h692" style="stroke: rgb(238, 238, 238); stroke-opacity: 1; stroke-width: 1px;"/><path class="ygrid crisp" transform="translate(0,218.06)" d="M80,0h692" style="stroke: rgb(238, 238, 238); stroke-opacity: 1; stroke-width: 1px;"/><path class="ygrid crisp" transform="translate(0,148.48)" d="M80,0h692" style="stroke: rgb(238, 238, 238); stroke-opacity: 1; stroke-width: 1px;"/></g></g><g class="zerolinelayer"/><path class="xlines-below"/><path class="ylines-below"/><g class="overlines-below"/><g class="xaxislayer-below"/><g class="yaxislayer-below"/><g class="overaxes-below"/><g class="plot" transform="translate(80,100)" clip-path="url('#clip7c9bd8xyplot')"><g class="scatterlayer mlayer"><g class="trace scatter tracefcaba8" style="stroke-miterlimit: 2; opacity: 1;"><g class="fills"/><g class="errorbars"/><g class="lines"><path class="js-line" d="M0,21L69.44,292.23L110.06,256.19L138.88,271.93L161.23,260.98L179.49,259.03L194.94,266.83L208.31,259.14L220.11,260.84L230.67,263.49L240.21,260.53L248.93,254.99L256.95,257.27L264.37,255.79L271.29,256.37L277.75,257.22L283.82,257.13L289.55,258.64L294.97,255.72L300.1,257.39L304.99,257.49L309.65,259.17L314.11,259.21L318.37,260.27L322.46,258.25L326.39,258.5L330.17,259.8L333.81,260.2L337.33,261.5L358.99,261.69L361.73,260.96L364.4,261.54L367.01,260.7L379.09,260.49L381.34,259.72L391.9,259.12L393.88,258.37L397.73,257.37L399.61,257.71L410.16,256.77L411.82,256.88L419.71,257.2L421.21,256.93L447.38,258.03L448.53,258.35L479.6,258.25L480.43,258.03L502.62,257.22L503.28,257.28L508.42,257.43L509.04,257.51L513.9,257.53L514.49,257.37L524.57,257.22L525.1,257.26L534.22,257.05L534.7,257.01L543.9,256.97L544.34,256.98L548.62,256.78L549.04,256.78L555.5,256.67L555.89,256.75L692,257.19" style="vector-effect: non-scaling-stroke; fill: none; stroke: rgb(31, 119, 180); stroke-opacity: 1; stroke-width: 2px; opacity: 1;"/></g><g class="points"/><g class="text"/></g><g class="trace scatter tracef872ae" style="stroke-miterlimit: 2; opacity: 1;"><g class="fills"/><g class="errorbars"/><g class="lines"><path class="js-line" d="M0,300.3L69.44,248.84L110.06,261.58L138.88,241.41L161.23,245.84L179.49,251.65L194.94,250.03L208.31,244.95L220.11,248.3L230.67,252.23L240.21,253.69L248.93,254.76L256.95,259.57L264.37,252.72L271.29,251.28L277.75,253.93L283.82,252.67L289.55,253.54L294.97,255.14L300.1,256.46L304.99,256.74L309.65,257.1L314.11,255.91L330.17,257.94L333.81,257.27L337.33,258.82L340.72,257.87L344.01,256.85L347.19,257.69L353.26,256.74L356.17,256.65L358.99,256.88L361.73,255.78L367.01,255.92L369.54,256.27L374.43,256.45L376.79,256.47L383.54,257.6L385.7,257.44L393.88,257.4L395.82,257.61L415.05,257.36L416.63,257.37L437.72,257.61L438.98,257.59L441.45,257.91L442.67,257.77L454.06,257.21L455.13,256.9L460.33,256.64L461.33,256.5L469.04,256.25L469.97,256.44L474.46,256.48L475.33,256.58L485.28,256.9L486.06,256.75L495.04,256.81L495.75,256.82L504.59,256.71L505.24,256.68L512.71,256.67L513.3,256.67L544.34,257.04L544.77,256.96L547.78,257.06L548.2,257.03L586.26,257.2L586.55,257.18L606.75,257.18L606.99,257.15L626.49,257.25L626.68,257.24L634.45,257.19L634.63,257.2L645.56,257.34L645.71,257.34L658.11,257.31L658.25,257.31L680.44,257.25L680.55,257.26L691.3,257.25" style="vector-effect: non-scaling-stroke; fill: none; stroke: rgb(255, 127, 14); stroke-opacity: 1; stroke-width: 2px; opacity: 1;"/></g><g class="points"/><g class="text"/></g><g class="trace scatter tracec1e26c" style="stroke-miterlimit: 2; opacity: 1;"><g class="fills"/><g class="errorbars"/><g class="lines"><path class="js-line" d="M0,398.79L69.44,242.47L110.06,241.04L138.88,231.06L161.23,234.28L179.49,250.15L194.94,256.23L208.31,252.75L220.11,253.36L230.67,263.78L240.21,266.76L248.93,269.26L256.95,265.82L264.37,262.21L271.29,263.77L277.75,267.2L283.82,267.59L289.55,263.06L294.97,260.21L300.1,260.6L304.99,261.96L309.65,263.2L314.11,262.43L318.37,261.38L322.46,261.81L326.39,261L330.17,261.35L333.81,260.46L337.33,260.51L350.27,257.35L353.26,257.29L361.73,257.32L364.4,256.41L372.02,256.31L374.43,256.06L376.79,255.85L379.09,256.6L381.34,256.15L383.54,257.23L393.88,256.85L395.82,256.3L399.61,256.8L401.44,256.08L416.63,256.16L418.18,255.86L425.6,255.23L427.02,255.12L431.17,255.41L432.51,255.69L436.44,256.14L437.72,256.01L443.87,255.7L445.05,256.01L451.89,255.98L452.98,256.12L455.13,256.15L456.19,255.97L469.04,256.43L469.97,256.51L482.88,256.54L483.69,256.49L488.38,256.51L489.15,256.56L497.16,256.27L497.86,256.3L503.94,256.5L504.59,256.51L532.26,256.88L532.75,256.75L537.55,256.85L538.02,256.85L543.9,256.88L544.34,256.88L549.04,256.95L549.45,256.97L553.92,256.89L554.32,256.94L559.34,256.9L559.72,256.85L572.72,256.88L573.05,256.95L578.17,257.02L578.48,256.99L587.12,256.88L587.4,256.9L605.33,256.78L605.57,256.77L613.33,256.86L613.55,256.89L618.89,256.87L619.1,256.87L691.4,257.1" style="vector-effect: non-scaling-stroke; fill: none; stroke: rgb(44, 160, 44); stroke-opacity: 1; stroke-width: 2px; opacity: 1;"/></g><g class="points"/><g class="text"/></g><g class="trace scatter tracec1cfaa" style="stroke-miterlimit: 2; opacity: 1;"><g class="fills"/><g class="errorbars"/><g class="lines"><path class="js-line" d="M0,399L69.44,316.15L110.06,247.8L138.88,240.15L161.23,251.92L179.49,262.25L194.94,247.82L208.31,255.01L220.11,245.17L230.67,250.21L240.21,250.99L248.93,251.2L256.95,245.57L264.37,252.62L271.29,253.29L277.75,255.27L283.82,255.87L289.55,256.66L294.97,256.52L300.1,257.99L304.99,257.43L314.11,258.13L318.37,256.87L330.17,257.48L333.81,256.8L337.33,256.99L340.72,256.34L344.01,255.28L347.19,255.3L353.26,256.17L356.17,255.62L358.99,255.67L361.73,254.85L369.54,255.23L372.02,254.66L376.79,255.18L379.09,254.8L383.54,254.93L385.7,254.83L405.02,256.08L406.76,255.79L410.16,255.62L411.82,254.79L413.45,255.1L415.05,254.63L421.21,255.16L422.7,255.23L432.51,256.17L433.84,255.95L438.98,256.21L440.22,256.19L470.88,257.07L471.79,256.99L480.43,257.5L481.25,257.53L490.65,257.14L491.4,257.3L533.24,257.76L533.73,257.81L540.32,257.86L540.77,257.89L551.92,257.72L552.32,257.64L558.96,257.62L559.34,257.56L572.05,257.3L572.39,257.29L691.09,257.15" style="vector-effect: non-scaling-stroke; fill: none; stroke: rgb(214, 39, 40); stroke-opacity: 1; stroke-width: 2px; opacity: 1;"/></g><g class="points"/><g class="text"/></g></g></g><g class="overplot"/><path class="xlines-above crisp" d="M0,0" style="fill: none;"/><path class="ylines-above crisp" d="M0,0" style="fill: none;"/><g class="overlines-above"/><g class="xaxislayer-above"><g class="xtick"><text text-anchor="middle" x="0" y="533" transform="translate(80,0)" style="font-family: 'Open Sans', verdana, arial, sans-serif; font-size: 12px; fill: rgb(68, 68, 68); fill-opacity: 1; white-space: pre;">10M</text></g><g class="xtick"><text text-anchor="middle" x="0" y="530" transform="translate(149.44,0)" style="font-family: 'Open Sans', verdana, arial, sans-serif; font-size: 9px; fill: rgb(68, 68, 68); fill-opacity: 1; white-space: pre;">2</text></g><g class="xtick"><text text-anchor="middle" x="0" y="530" transform="translate(241.23,0)" style="font-family: 'Open Sans', verdana, arial, sans-serif; font-size: 9px; fill: rgb(68, 68, 68); fill-opacity: 1; white-space: pre;">5</text></g><g class="xtick"><text text-anchor="middle" x="0" y="533" transform="translate(310.66999999999996,0)" style="font-family: 'Open Sans', verdana, arial, sans-serif; font-size: 12px; fill: rgb(68, 68, 68); fill-opacity: 1; white-space: pre;">100M</text></g><g class="xtick"><text text-anchor="middle" x="0" y="530" transform="translate(380.1,0)" style="font-family: 'Open Sans', verdana, arial, sans-serif; font-size: 9px; fill: rgb(68, 68, 68); fill-opacity: 1; white-space: pre;">2</text></g><g class="xtick"><text text-anchor="middle" x="0" y="530" transform="translate(471.9,0)" style="font-family: 'Open Sans', verdana, arial, sans-serif; font-size: 9px; fill: rgb(68, 68, 68); fill-opacity: 1; white-space: pre;">5</text></g><g class="xtick"><text text-anchor="middle" x="0" y="533" transform="translate(541.3299999999999,0)" style="font-family: 'Open Sans', verdana, arial, sans-serif; font-size: 12px; fill: rgb(68, 68, 68); fill-opacity: 1; white-space: pre;">1B</text></g><g class="xtick"><text text-anchor="middle" x="0" y="530" transform="translate(610.77,0)" style="font-family: 'Open Sans', verdana, arial, sans-serif; font-size: 9px; fill: rgb(68, 68, 68); fill-opacity: 1; white-space: pre;">2</text></g><g class="xtick"><text text-anchor="middle" x="0" y="530" transform="translate(702.56,0)" style="font-family: 'Open Sans', verdana, arial, sans-serif; font-size: 9px; fill: rgb(68, 68, 68); fill-opacity: 1; white-space: pre;">5</text></g><g class="xtick"><text text-anchor="middle" x="0" y="533" transform="translate(772,0)" style="font-family: 'Open Sans', verdana, arial, sans-serif; font-size: 12px; fill: rgb(68, 68, 68); fill-opacity: 1; white-space: pre;">10B</text></g></g><g class="yaxislayer-above"><g class="ytick"><text text-anchor="end" x="79" y="4.199999999999999" transform="translate(0,496.35)" style="font-family: 'Open Sans', verdana, arial, sans-serif; font-size: 12px; fill: rgb(68, 68, 68); fill-opacity: 1; white-space: pre;">0.999998</text></g><g class="ytick"><text text-anchor="end" x="79" y="4.199999999999999" transform="translate(0,426.78)" style="font-family: 'Open Sans', verdana, arial, sans-serif; font-size: 12px; fill: rgb(68, 68, 68); fill-opacity: 1; white-space: pre;">0.999999</text></g><g class="ytick"><text text-anchor="end" x="79" y="4.199999999999999" transform="translate(0,357.2)" style="font-family: 'Open Sans', verdana, arial, sans-serif; font-size: 12px; fill: rgb(68, 68, 68); fill-opacity: 1; white-space: pre;">1</text></g><g class="ytick"><text text-anchor="end" x="79" y="4.199999999999999" transform="translate(0,287.63)" style="font-family: 'Open Sans', verdana, arial, sans-serif; font-size: 12px; fill: rgb(68, 68, 68); fill-opacity: 1; white-space: pre;">1.000001</text></g><g class="ytick"><text text-anchor="end" x="79" y="4.199999999999999" transform="translate(0,218.06)" style="font-family: 'Open Sans', verdana, arial, sans-serif; font-size: 12px; fill: rgb(68, 68, 68); fill-opacity: 1; white-space: pre;">1.000002</text></g><g class="ytick"><text text-anchor="end" x="79" y="4.199999999999999" transform="translate(0,148.48)" style="font-family: 'Open Sans', verdana, arial, sans-serif; font-size: 12px; fill: rgb(68, 68, 68); fill-opacity: 1; white-space: pre;">1.000003</text></g></g><g class="overaxes-above"/></g></g><g class="polarlayer"/><g class="ternarylayer"/><g class="geolayer"/><g class="funnelarealayer"/><g class="pielayer"/><g class="treemaplayer"/><g class="sunburstlayer"/><g class="glimages"/><defs id="topdefs-7c9bd8"><g class="clips"/><clipPath id="legend7c9bd8"><rect width="202" height="86" x="0" y="0"/></clipPath></defs><g class="layer-above"><g class="imagelayer"/><g class="shapelayer"/></g><g class="infolayer"><g class="legend" pointer-events="all" transform="translate(785.84,100)"><rect class="bg" shape-rendering="crispEdges" style="stroke: rgb(68, 68, 68); stroke-opacity: 1; fill: rgb(255, 255, 255); fill-opacity: 1; stroke-width: 0px;" width="202" height="86" x="0" y="0"/><g class="scrollbox" transform="" clip-path="url('#legend7c9bd8')"><g class="groups"><g class="traces" transform="translate(0,14.5)" style="opacity: 1;"><text class="legendtext" text-anchor="start" x="40" y="4.680000000000001" style="font-family: 'Open Sans', verdana, arial, sans-serif; font-size: 12px; fill: rgb(68, 68, 68); fill-opacity: 1; white-space: pre;">FlipHash (64 bits)</text><g class="layers" style="opacity: 1;"><g class="legendfill"/><g class="legendlines"><path class="js-line" d="M5,0h30" style="fill: none; stroke: rgb(31, 119, 180); stroke-opacity: 1; stroke-width: 2px;"/></g><g class="legendsymbols"><g class="legendpoints"/></g></g><rect class="legendtoggle" x="0" y="-9.5" width="196.6875" height="19" style="fill: rgb(0, 0, 0); fill-opacity: 0;"/></g><g class="traces" transform="translate(0,33.5)" style="opacity: 1;"><text class="legendtext" text-anchor="start" x="40" y="4.680000000000001" style="font-family: 'Open Sans', verdana, arial, sans-serif; font-size: 12px; fill: rgb(68, 68, 68); fill-opacity: 1; white-space: pre;">FlipHash (XXH3, 128 bits)</text><g class="layers" style="opacity: 1;"><g class="legendfill"/><g class="legendlines"><path class="js-line" d="M5,0h30" style="fill: none; stroke: rgb(255, 127, 14); stroke-opacity: 1; stroke-width: 2px;"/></g><g class="legendsymbols"><g class="legendpoints"/></g></g><rect class="legendtoggle" x="0" y="-9.5" width="196.6875" height="19" style="fill: rgb(0, 0, 0); fill-opacity: 0;"/></g><g class="traces" transform="translate(0,52.5)" style="opacity: 1;"><text class="legendtext" text-anchor="start" x="40" y="4.680000000000001" style="font-family: 'Open Sans', verdana, arial, sans-serif; font-size: 12px; fill: rgb(68, 68, 68); fill-opacity: 1; white-space: pre;">FlipHash (XXH3, 64 bits)</text><g class="layers" style="opacity: 1;"><g class="legendfill"/><g class="legendlines"><path class="js-line" d="M5,0h30" style="fill: none; stroke: rgb(44, 160, 44); stroke-opacity: 1; stroke-width: 2px;"/></g><g class="legendsymbols"><g class="legendpoints"/></g></g><rect class="legendtoggle" x="0" y="-9.5" width="196.6875" height="19" style="fill: rgb(0, 0, 0); fill-opacity: 0;"/></g><g class="traces" transform="translate(0,71.5)" style="opacity: 1;"><text class="legendtext" text-anchor="start" x="40" y="4.680000000000001" style="font-family: 'Open Sans', verdana, arial, sans-serif; font-size: 12px; fill: rgb(68, 68, 68); fill-opacity: 1; white-space: pre;">JumpHash</text><g class="layers" style="opacity: 1;"><g class="legendfill"/><g class="legendlines"><path class="js-line" d="M5,0h30" style="fill: none; stroke: rgb(214, 39, 40); stroke-opacity: 1; stroke-width: 2px;"/></g><g class="legendsymbols"><g class="legendpoints"/></g></g><rect class="legendtoggle" x="0" y="-9.5" width="196.6875" height="19" style="fill: rgb(0, 0, 0); fill-opacity: 0;"/></g></g></g><rect class="scrollbar" rx="20" ry="3" width="0" height="0" style="fill: rgb(128, 139, 164); fill-opacity: 1;" x="0" y="0"/></g><g class="g-gtitle"><text class="gtitle" x="500" y="50" text-anchor="middle" dy="0em" style="font-family: 'Open Sans', verdana, arial, sans-serif; font-size: 17px; fill: rgb(68, 68, 68); opacity: 1; font-weight: normal; white-space: pre;">Hash collisions</text></g><g class="g-xtitle"><text class="xtitle" x="426" y="572" text-anchor="middle" style="font-family: 'Open Sans', verdana, arial, sans-serif; font-size: 14px; fill: rgb(68, 68, 68); opacity: 1; font-weight: normal; white-space: pre;">Number of hashed keys</text></g><g class="g-ytitle" transform="translate(-25.78125,0)"><text class="ytitle" transform="rotate(-90,42,310)" x="42" y="310" text-anchor="middle" style="font-family: 'Open Sans', verdana, arial, sans-serif; font-size: 14px; fill: rgb(68, 68, 68); opacity: 1; font-weight: normal; white-space: pre;">Normalized C hat</text></g></g></svg>