<svg class="main-svg" xmlns="http://www.w3.org/2000/svg" xmlns:xlink="http://www.w3.org/1999/xlink" width="1000" height="600" style="" viewBox="0 0 1000 600"><rect x="0" y="0" width="1000" height="600" style="fill: rgb(255, 255, 255); fill-opacity: 1;"/><defs id="defs-64968d"><g class="clips"><clipPath id="clip64968dxyplot" class="plotclip"><rect width="692" height="420"/></clipPath><clipPath class="axesclip" id="clip64968dx"><rect x="80" y="0" width="692" height="600"/></clipPath><clipPath class="axesclip" id="clip64968dy"><rect x="0" y="100" width="1000" height="420"/></clipPath><clipPath class="axesclip" id="clip64968dxy"><rect x="80" y="100" width="692" height="420"/></clipPath></g><g class="gradients"/></defs><g class="bglayer"/><g class="layer-below"><g class="imagelayer"/><g class="shapelayer"/></g><g class="cartesianlayer"><g class="subplot xy"><g class="layer-subplot"><g class="shapelayer"/><g class="imagelayer"/></g><g class="gridlayer"><g class="x"><path class="xgrid crisp" transform="translate(149.44,0)" d="M0,100v420" style="stroke: rgb(238, 238, 238); stroke-opacity: 1; stroke-width: 1px;"/><path class="xgrid crisp" transform="translate(241.23,0)" d="M0,100v420" style="stroke: rgb(238, 238, 238); stroke-opacity: 1; stroke-width: 1px;"/><path class="xgrid crisp" transform="translate(310.66999999999996,0)" d="M0,100v420" style="stroke: rgb(238, 238, 238); stroke-opacity: 1; stroke-width: 1px;"/><path class="xgrid crisp" transform="translate(380.1,0)" d="M0,100v420" style="stroke: rgb(238, 238, 238); stroke-opacity: 1; stroke-width: 1px;"/><path class="xgrid crisp" transform="translate(471.9,0)" d="M0,100v420" style="stroke: rgb(238, 238, 238); stroke-opacity: 1; stroke-width: 1px;"/><path class="xgrid crisp" transform="translate(541.3299999999999,0)" d="M0,100v420" style="stroke: rgb(238, 238, 238); stroke-opacity: 1; stroke-width: 1px;"/><path class="xgrid crisp" transform="translate(610.77,0)" d="M0,100v420" style="stroke: rgb(238, 238, 238); stroke-opacity: 1; stroke-width: 1px;"/><path class="xgrid crisp" transform="translate(702.56,0)" d="M0,100v420" style="stroke: rgb(238, 238, 238); stroke-opacity: 1; stroke-width: 1px;"/></g><g class="y"><path class="ygrid crisp" transform="translate(0,504.3)" d="M80,0h692" style="stroke: rgb(238, 238, 238); stroke-opacity: 1; stroke-width: 1px;"/><path class="ygrid crisp" transform="translate(0,490.06)" d="M80,0h692" style="stroke: rgb(238, 238, 238); stroke-opacity: 1; stroke-width: 1px;"/><path class="ygrid crisp" transform="translate(0,477.49)" d="M80,0h692" style="stroke: rgb(238, 238, 238); stroke-opacity: 1; stroke-width: 1px;"/><path class="ygrid crisp" transform="translate(0,466.25)" d="M80,0h692" style="stroke: rgb(238, 238, 238); stroke-opacity: 1; stroke-width: 1px;"/><path class="ygrid crisp" transform="translate(0,392.29)" d="M80,0h692" style="stroke: rgb(238, 238, 238); stroke-opacity: 1; stroke-width: 1px;"/><path class="ygrid crisp" transform="translate(0,349.03)" d="M80,0h692" style="stroke: rgb(238, 238, 238); stroke-opacity: 1; stroke-width: 1px;"/><path class="ygrid crisp" transform="translate(0,318.34000000000003)" d="M80,0h692" style="stroke: rgb(238, 238, 238); stroke-opacity: 1; stroke-width: 1px;"/><path class="ygrid crisp" transform="translate(0,294.53)" d="M80,0h692" style="stroke: rgb(238, 238, 238); stroke-opacity: 1; stroke-width: 1px;"/><path class="ygrid crisp" transform="translate(0,275.08000000000004)" d="M80,0h692" style="stroke: rgb(238, 238, 238); stroke-opacity: 1; stroke-width: 1px;"/><path class="ygrid crisp" transform="translate(0,258.63)" d="M80,0h692" style="stroke: rgb(238, 238, 238); stroke-opacity: 1; stroke-width: 1px;"/><path class="ygrid crisp" transform="translate(0,244.39)" d="M80,0h692" style="stroke: rgb(238, 238, 238); stroke-opacity: 1; stroke-width: 1px;"/><path class="ygrid crisp" transform="translate(0,231.82)" d="M80,0h692" style="stroke: rgb(238, 238, 238); stroke-opacity: 1; stroke-width: 1px;"/><path class="ygrid crisp" transform="translate(0,220.57999999999998)" d="M80,0h692" style="stroke: rgb(238, 238, 238); stroke-opacity: 1; stroke-width: 1px;"/><path class="ygrid crisp" transform="translate(0,146.63)" d="M80,0h692" style="stroke: rgb(238, 238, 238); stroke-opacity: 1; stroke-width: 1px;"/><path class="ygrid crisp" transform="translate(0,103.37)" d="M80,0h692" style="stroke: rgb(238, 238, 238); stroke-opacity: 1; stroke-width: 1px;"/></g></g><g class="zerolinelayer"/><path class="xlines-below"/><path class="ylines-below"/><g class="overlines-below"/><g class="xaxislayer-below"/><g class="yaxislayer-below"/><g class="overaxes-below"/><g class="plot" transform="translate(80,100)" clip-path="url('#clip64968dxyplot')"><g class="scatterlayer mlayer"><g class="trace scatter trace2f7209" style="stroke-miterlimit: 2; opacity: 1;"><g class="fills"/><g class="errorbars"/><g class="lines"><path class="js-line" d="M0,21L69.44,65.38L110.06,85.2L138.88,108.3L161.23,113.65L179.49,113.83L194.94,120.52L208.31,121.87L220.11,130.73L230.67,137.16L240.21,148.07L248.93,154.42L256.95,152.58L264.37,150.75L271.29,156.05L277.75,161.16L283.82,168.1L289.55,171.43L294.97,176.66L300.1,176.55L304.99,178.07L309.65,182.29L314.11,181.42L333.81,199.33L337.33,198.48L340.72,195.98L344.01,196.09L347.19,200.31L350.27,202.41L353.26,203.08L356.17,208.93L358.99,205.92L361.73,206.3L364.4,207.23L367.01,210.1L369.54,213.6L372.02,214.73L379.09,223.87L381.34,222.72L383.54,226.65L385.7,227.02L387.81,225.9L389.87,223.77L393.88,222.67L395.82,224.04L399.61,226.2L401.44,228.69L403.25,230.34L405.02,229.72L408.48,234.57L410.16,234.81L411.82,239.29L413.45,240.68L415.05,240.88L416.63,242.57L421.21,252.28L422.7,254.15L424.16,253.06L425.6,254.42L427.02,253.72L428.42,255.31L429.81,253.82L431.17,254.57L432.51,253.46L433.84,256.36L435.15,258.41L436.44,258.15L437.72,256.45L438.98,256.86L441.45,257.59L442.67,258.43L443.87,258.79L445.05,258L449.66,263.2L450.78,262.36L451.89,261.68L452.98,263.76L455.13,261.75L456.19,261.89L457.24,260.87L458.28,261.74L459.31,261.77L460.33,263.17L461.33,262.03L462.33,263.77L464.29,266.51L465.26,264.69L466.22,265.59L467.17,264.89L468.11,265.54L469.04,267.17L469.97,266.64L470.88,268.26L471.79,268.54L472.69,270.58L473.58,268.05L474.46,269.94L475.33,269.78L476.2,272.66L477.91,274.25L478.76,273.52L479.6,274.85L480.43,274.52L482.07,273.74L482.88,275.27L484.49,277.8L485.28,279.33L486.06,278.97L486.84,279.78L487.62,279.49L488.38,280.37L489.15,279.84L489.9,280.92L490.65,281.42L491.4,280.79L492.87,281.3L493.6,280.23L495.04,281.95L495.75,281.79L496.46,282.02L497.16,283.51L497.86,283.41L498.56,285.94L499.93,283.97L500.61,285.77L501.95,286.36L502.62,286.1L503.94,284.94L504.59,285.94L505.24,285.59L505.88,287.63L507.16,288.99L507.79,290.84L509.66,293.14L510.28,292.99L510.89,291.86L511.5,292.95L512.1,294.52L512.71,293.81L513.3,294.62L513.9,293.36L515.08,293.82L515.66,295.56L517.39,296.78L517.96,298.41L518.53,297.87L519.1,299.49L520.22,299.57L520.77,301.61L521.87,301.3L522.42,302.29L524.57,299.82L525.1,300.24L525.63,300.18L526.16,301.44L527.2,302.04L527.72,300.46L528.23,301.47L528.75,301.17L529.26,300.84L529.76,302.69L530.27,302.27L530.77,301.7L531.27,300.17L531.77,300.45L532.26,299.91L533.24,300.26L533.73,299.05L534.22,299.02L534.7,300.03L535.66,298.07L536.13,298.94L536.61,299.7L537.08,297.65L537.55,300L538.02,299.44L538.48,300.2L540.32,303.64L540.77,302.27L541.68,303.4L542.12,303.34L543.01,305.89L543.46,305.08L543.9,305.19L544.77,304.13L545.21,302.42L546.07,301.61L546.5,302.74L546.93,301.87L547.35,302.36L547.78,302.47L548.2,303.56L548.62,303.01L549.04,303.51L549.45,304.22L549.87,303.1L551.1,304.11L551.51,303.44L552.72,306.46L553.12,305.98L553.52,305.83L554.32,305.34L554.71,305.95L555.5,307.66L555.89,306.64L558.2,307.52L558.58,307.37L559.34,306.95L559.72,307.92L560.09,308.47L560.46,307.61L561.2,306.8L561.57,307.75L561.94,307.58L562.31,308.78L564.12,312.17L564.48,312.11L566.95,312.93L567.3,312.26L568.34,313.71L568.68,312.68L570.72,317.5L571.05,316.64L571.39,317.14L571.72,319.44L572.39,319.6L572.72,320.73L574.35,325.66L574.67,324.04L575,323.12L575.32,323.78L575.64,325.12L576.28,324.38L576.59,325.38L577.54,327.03L577.85,326.58L578.17,326.65L578.48,325.32L578.79,325.64L579.1,326.32L580.33,325.38L580.63,325.9L581.84,325.54L582.14,327.17L584.81,329.97L585.1,329.65L585.97,333.18L586.26,331.79L586.55,330.83L587.97,335.83L588.25,335.46L589.38,337.23L589.65,336.3L590.49,337.48L590.76,335.55L591.86,337.26L592.13,336.78L593.48,338.46L593.74,338.13L594.01,339.9L594.81,339.22L595.07,340.03L595.6,339.88L595.86,340.32L596.12,340.75L596.38,340.68L596.64,341.45L597.16,342.04L597.42,341.17L597.67,342.29L598.18,341.82L598.44,342.09L599.71,343.77L599.96,342.65L600.71,343.93L600.96,343.55L601.21,343.09L601.7,342.3L601.95,341.42L602.19,341.76L602.68,341.34L602.93,341.07L603.9,339.68L604.14,340.21L605.1,342.7L605.33,342.52L605.57,342.72L606.52,343.52L606.75,343.54L608.84,346.31L609.07,345.95L609.3,345.6L610.66,349.52L610.89,349.19L611.78,351.68L612.01,350.68L612.23,350.77L613.33,354.66L613.55,354.34L613.77,353.6L614.86,355.68L615.08,355.82L615.51,358.14L615.72,357.63L615.94,355.88L616.79,355.47L617,355.78L617.42,354.87L617.63,355.74L617.84,356.29L618.05,355.11L618.47,356.01L618.68,356.29L619.1,356.9L619.72,355.66L619.92,357.01L620.13,356.53L620.54,357.3L620.74,357.42L622.16,356.11L622.36,357.28L622.76,356.9L622.96,357.65L623.16,357.78L623.36,357.59L623.56,355.95L623.96,355.85L624.15,356.32L624.35,356.82L624.74,355.92L625.13,356.29L625.33,356.86L625.91,356.26L626.11,356.56L626.3,356.51L629.53,363.28L629.71,362.93L629.9,362.01L630.64,362.38L630.83,362.4L631.75,360.9L631.93,361.24L632.47,361.91L632.66,360.7L632.84,360.45L633.02,361.83L633.56,362.72L633.92,362.38L634.09,362.19L635.34,359.64L635.51,360.21L635.69,360.99L636.04,360.13L636.21,359.35L637.95,360.99L638.12,361.68L638.46,361L638.8,361.96L638.97,361.69L640.83,365.45L640.99,364.54L641.82,365.44L641.99,365.08L642.15,364.65L642.48,364.53L642.65,363.09L642.97,363.38L643.14,362.98L643.3,362.44L643.79,361.56L643.95,362.13L644.11,362.66L644.92,363.2L645.08,362.7L645.56,363.64L645.71,363.07L645.87,362.4L646.35,363.95L646.82,363.01L646.98,363.29L647.45,362.55L647.6,363.17L647.76,363.72L648.07,364.09L648.38,363.71L648.54,363.21L649.15,365.8L649.46,365.01L649.61,365.57L650.68,367.9L650.83,367.55L651.28,366.54L651.58,367.12L651.73,367.23L652.18,366.53L652.33,365.61L652.63,366.26L652.77,367.87L653.22,369.13L653.66,368.57L653.81,367.79L654.97,368.43L655.12,368.13L656.84,364.77L657.12,365.11L657.27,366.02L657.55,366.56L657.69,365.46L658.95,364.18L659.09,364.4L659.65,363.3L659.78,363.34L659.92,364.32L660.47,362.38L660.75,363.31L660.88,363.48L661.16,362.56L661.57,363.66L661.7,362.83L661.84,362.56L662.24,363.2L662.65,362.85L662.78,362.7L663.31,362.92L663.45,362.78L663.58,361.69L663.85,362.52L664.24,362.07L664.38,361.68L665.16,363.01L665.43,362.75L665.56,362.41L665.69,362.06L665.82,362.62L665.95,363.64L666.59,362.43L666.98,362.82L667.11,363.17L668.26,364.24L668.39,363.75L669.4,363.1L669.52,363.23L670.15,363.58L670.39,363.38L670.52,363.27L670.89,363.27L671.01,364.16L672,366.04L672.24,365.26L672.36,364.54L673.58,366.43L673.7,366.18L673.82,366.15L673.94,365.99L674.06,366.18L674.18,367.27L675.48,369.34L675.6,369.17L675.72,368.95L675.95,369.98L676.07,370.42L676.31,370.25L677.12,372.43L677.24,373.16L678.05,372.07L678.28,372.52L678.39,372.68L678.51,372.39L678.74,372.86L678.85,373.54L679.19,372.74L679.65,373.22L679.76,373.81L681,376.6L681.11,376.24L681.22,375.97L681.89,377.76L682,378.9L683.1,376.87L683.21,377.48L683.32,378.58L683.54,379.32L683.97,378.31L684.19,379.1L684.3,378.76L684.51,380.17L684.95,379.06L685.05,378.91L687.28,383.46L687.39,383.12L688.33,384.97L688.43,384.79L688.53,385.08L689.77,387.73L689.87,387.39L689.98,386.6L691.09,385.43L691.2,385.76L692,383.84" style="vector-effect: non-scaling-stroke; fill: none; stroke: rgb(31, 119, 180); stroke-opacity: 1; stroke-width: 2px; opacity: 1;"/></g><g class="points"/><g class="text"/></g><g class="trace scatter traceb1784d" style="stroke-miterlimit: 2; opacity: 1;"><g class="fills"/><g class="errorbars"/><g class="lines"><path class="js-line" d="M0,32.05L69.44,71.81L110.06,84.81L138.88,92.86L161.23,105.31L179.49,116.68L194.94,120.16L208.31,130.48L220.11,137.43L230.67,140.82L240.21,148.77L248.93,150.4L256.95,162.18L264.37,162.47L271.29,161.34L277.75,163.45L283.82,168.94L289.55,174.24L294.97,180.88L300.1,180.2L304.99,183.18L309.65,188.59L314.11,191.84L318.37,196.36L322.46,197.58L326.39,197.67L330.17,198.55L337.33,199.74L340.72,201.93L344.01,201.91L347.19,198.32L350.27,197.94L353.26,195.56L356.17,196.67L358.99,199.81L364.4,202.48L367.01,202.32L372.02,211.51L374.43,211.25L376.79,214.14L379.09,215.28L381.34,215.46L383.54,218.2L387.81,219.34L389.87,219.73L391.9,219.7L393.88,220.94L395.82,223.09L397.73,222.99L401.44,229.43L403.25,231.31L405.02,233.09L406.76,232.79L408.48,233.78L410.16,232.61L411.82,232.14L413.45,234.07L416.63,232.83L418.18,234.46L419.71,235.84L421.21,235.46L425.6,234.96L427.02,236.27L428.42,240.9L429.81,241.29L431.17,243.49L432.51,244.1L433.84,242.82L435.15,242.85L436.44,245.22L437.72,246L438.98,245.04L440.22,247.11L442.67,249.48L443.87,249.12L448.53,252.27L449.66,252.29L452.98,257.45L454.06,256.54L455.13,256.19L456.19,261.28L457.24,261.18L458.28,262.1L459.31,264.02L460.33,263.64L461.33,264.88L462.33,262.68L463.32,262.62L464.29,263.96L465.26,265.18L466.22,264.56L469.97,268.54L470.88,270.81L471.79,271.94L472.69,270.46L478.76,274.79L479.6,274.86L481.25,278.44L482.07,279.19L483.69,279.14L484.49,280.51L486.06,282.07L486.84,281.52L488.38,282.49L489.15,284.18L489.9,284.34L490.65,285.46L491.4,286.01L492.14,285.5L492.87,286.06L493.6,288.42L495.04,285.61L495.75,287.48L496.46,286.51L497.16,287.24L497.86,287.89L498.56,287.17L499.24,288.77L499.93,287.7L500.61,287.47L501.28,288.63L503.28,290.82L503.94,291L504.59,291.18L505.24,293.07L505.88,293.03L506.52,291.15L507.16,291.08L507.79,292.33L509.04,293.13L509.66,293.25L511.5,296.35L512.1,295.78L513.3,297L513.9,298.44L515.66,302.51L516.24,303.48L516.82,302.92L517.39,300.81L518.53,302.45L519.1,303.63L519.66,304.78L520.22,304.11L521.87,305.89L522.42,305.23L523.5,304.52L524.04,305.36L525.63,307.1L526.16,306.18L526.68,307.49L527.2,307.18L527.72,307.17L528.23,305.95L528.75,307.69L529.76,305.42L530.27,307.12L530.77,308.64L531.27,308.36L531.77,307.77L532.26,307.62L532.75,308.44L533.24,306.35L533.73,307.47L534.22,308.13L534.7,308.18L535.18,310.11L535.66,309.9L536.13,311.28L537.55,311.31L538.02,312.13L539.86,315.75L540.32,315.24L541.68,316.74L542.12,315.49L544.34,312.13L544.77,312.66L545.21,311.71L545.64,313.11L546.5,313.87L546.93,315.67L548.2,316.9L548.62,316.82L549.04,317.62L549.45,317.05L549.87,317.08L550.69,319.16L551.1,317.55L551.51,317.65L551.92,318.55L552.32,319.58L552.72,318.5L553.52,318.63L553.92,318.53L554.32,318.39L554.71,320.53L555.5,321.87L555.89,320.04L556.28,319.91L556.67,320.91L557.44,321.33L557.82,323.14L558.58,323.64L558.96,322.75L559.34,322.38L559.72,324.36L560.46,325.71L560.83,327.55L562.31,324.63L562.67,325.63L564.48,327.85L564.83,328.97L566.25,326.4L566.6,326.71L566.95,328.14L567.99,329.31L568.34,328.68L569.37,328.74L569.71,329.25L570.72,330.05L571.05,328.9L571.72,330.82L572.05,330.01L572.39,330.39L574.03,333.4L574.35,333.57L574.67,334.19L575,332.9L575.32,331.13L575.64,332.65L575.96,333.09L576.28,334.31L576.59,332.65L576.91,333.06L578.17,332.08L578.48,333.43L578.79,331.62L579.1,332.85L579.41,334.54L580.94,332.46L581.24,332.77L582.44,337.02L582.74,335.94L583.04,335.68L583.34,334.18L583.93,334.55L584.22,334.26L585.39,333.44L585.68,335.04L586.83,338.31L587.12,337.23L589.65,339.2L589.93,338.77L590.21,336.86L591.86,338.78L592.13,337.95L592.4,337.28L592.67,337.93L592.94,338.83L593.21,338.3L593.48,338.96L593.74,339.54L594.28,340.18L594.54,341.58L595.33,340.13L595.6,340.84L595.86,341.94L596.64,342.59L596.9,343.54L598.18,345.68L598.44,346.02L602.44,341.36L602.68,342.06L603.65,343.45L603.9,343.38L604.86,346.65L605.33,346.08L605.57,346.45L606.05,349.23L606.52,347.94L606.75,347.5L606.99,347.3L607.22,347.82L607.45,348.03L607.69,348.36L607.92,347.37L608.15,346.92L608.38,347.57L608.61,349.7L609.07,349.46L609.3,350.64L609.98,352.63L610.21,351.66L610.44,351.8L611.34,351.7L611.56,352.4L614.64,356.77L614.86,356.15L616.15,361.06L616.36,361.23L618.68,366.78L618.89,366.65L619.1,365.18L619.51,366.75L619.72,368.14L619.92,367.89L620.13,368.47L620.33,368.77L621.56,372.98L621.76,373.43L622.56,371.29L622.96,371.39L623.16,372.74L623.56,372.87L623.76,373.85L623.96,373.95L624.15,372.59L624.55,372.04L624.74,372.99L625.33,375.67L625.72,375.46L625.91,374.73L627.07,376.15L627.26,375.16L627.64,376.89L628.21,376.64L628.4,376.69L628.78,375.81L628.97,376.93L629.15,376.41L629.34,376.99L629.53,377.02L629.71,376.02L629.9,376.82L630.27,376.38L630.46,375.61L630.83,377.51L631.2,376.11L631.38,376.12L631.56,376.2L631.75,375.3L632.66,379.19L632.84,378.76L633.02,377.41L633.92,379.76L634.09,380.01L634.27,380.94L634.45,379.72L634.63,380.47L634.81,379.56L635.34,379.81L635.51,378.48L637.43,382.51L637.6,381.8L637.78,381.56L637.95,381.95L638.12,382.58L638.29,383.85L638.8,382.19L638.97,382.07L639.31,381.08L639.65,381.94L639.82,382.63L640.16,383.59L640.49,382.61L640.66,382.45L641.66,384.13L641.82,383.34L642.65,385.42L642.81,385.17L642.97,385.58L643.3,384.9L643.46,383.82L644.6,387.42L645.08,387.04L645.24,385.86L645.71,384.05L646.03,385.15L646.19,385.27L646.66,385.37L646.82,386.97L647.76,385.21L647.92,385.64L649.15,383.83L649.31,384.39L650.37,382.06L650.53,382.92L650.68,383.2L651.88,381.89L652.03,382.84L652.92,380.37L653.07,380.89L653.22,381.17L655.12,384.79L655.26,383.95L655.98,385.9L656.27,385.46L656.41,384.87L657.27,386.63L657.41,386.13L657.69,385.1L658.11,385.8L658.25,387.34L659.37,388.96L659.51,387.68L660.34,386.95L660.61,387.16L660.75,387.47L661.02,387.94L661.43,387.26L661.57,386.72L661.7,386.38L661.97,387.13L662.11,387.14L662.24,387.63L663.05,391.01L663.18,390.57L663.31,388.58L663.71,389.01L664.38,387.38L664.51,387.9L664.64,388.68L665.16,386.45L665.43,387.74L665.56,388.67L666.85,389.66L666.98,389.12L667.11,388.6L667.49,389.37L667.62,390.2L669.4,393.12L669.52,392.99L669.65,392.64L669.9,394.21L670.39,393.79L670.52,393.39L671.38,391.82L671.51,392.16L671.63,392.21L672.12,391.82L672.24,391.53L673.58,388L673.7,388.04L673.82,388.08L674.18,389.35L674.29,389.99L675.72,394.98L675.84,394.03L675.95,393.62L676.77,393.09L676.89,393.5L677.59,392.86L677.7,393.48L677.82,393.58L678.28,394.38L678.39,395.44L678.62,396.16L678.74,395.17L678.85,395.27L678.97,394.3L679.87,395.43L679.99,394.8L680.33,394.14L680.55,395.37L680.66,395.51L680.78,395.33L680.89,395.98L681,395.96L681.11,396.31L681.56,395.1L681.78,395.85L681.89,396.58L682.33,397.71L682.44,396.17L683.21,393.68L683.54,394.11L683.65,394.49L684.08,393.32L684.41,394.21L684.51,394.63L684.73,395.64L685.05,395.03L685.16,394.87L686.01,393.71L686.12,394.85L686.65,394.08L686.97,394.48L687.07,394.5L688.01,396.6L688.12,396.09L688.22,396.36L688.64,397.96L688.85,396.9L688.95,396.92L690.59,398.97L690.69,398.86L690.79,398.7L691.5,396.39" style="vector-effect: non-scaling-stroke; fill: none; stroke: rgb(255, 127, 14); stroke-opacity: 1; stroke-width: 2px; opacity: 1;"/></g><g class="points"/><g class="text"/></g><g class="trace scatter trace5a4a34" style="stroke-miterlimit: 2; opacity: 1;"><g class="fills"/><g class="errorbars"/><g class="lines"><path class="js-line" d="M0,26.4L69.44,61.5L110.06,79.76L138.88,101.07L161.23,123.79L194.94,135.73L208.31,140.56L220.11,146.71L230.67,153.75L240.21,161.56L248.93,164.54L256.95,168.49L264.37,175.54L271.29,179.41L277.75,176.13L283.82,176.52L289.55,178.25L294.97,178.35L300.1,180.32L304.99,184.22L309.65,185.71L314.11,187.11L318.37,189.82L322.46,197.01L326.39,201.14L330.17,203.05L333.81,203.93L340.72,211.06L344.01,210.76L347.19,213.34L350.27,214.12L353.26,217.61L356.17,214.64L361.73,215.31L364.4,219.32L369.54,221.33L372.02,219.29L374.43,219L376.79,217.73L379.09,220.41L381.34,224.26L383.54,226.2L385.7,230.05L387.81,231.6L389.87,230.8L391.9,229.42L393.88,230.14L395.82,229.79L397.73,230.64L399.61,228.94L401.44,230.24L405.02,234.64L406.76,235.51L411.82,239.77L413.45,243.97L418.18,246.14L419.71,244.14L424.16,253.59L425.6,254.26L427.02,253.9L428.42,257.18L431.17,256.08L432.51,258.25L435.15,258.98L436.44,257.68L438.98,260.99L440.22,262.9L442.67,265.1L443.87,264.34L445.05,265.3L446.22,265.02L448.53,263.26L449.66,262.44L452.98,264.23L454.06,263.42L459.31,265.68L460.33,266.83L462.33,266.71L463.32,267.63L464.29,267.56L465.26,269.84L467.17,272.64L468.11,273.51L469.04,272.81L469.97,273.33L471.79,269.79L472.69,268.86L474.46,269.21L475.33,267.96L476.2,268.72L477.06,268.13L478.76,268.76L479.6,270.71L480.43,270.55L481.25,272.07L485.28,274.61L486.06,273.16L487.62,272.76L488.38,273.03L490.65,276.24L491.4,276.5L494.32,283.04L495.04,282.5L495.75,282.19L496.46,283.94L497.16,285.09L497.86,284.6L499.93,287.71L500.61,287.59L501.95,287.53L502.62,286.26L504.59,290.21L505.24,290.82L506.52,293.18L507.16,295.26L507.79,295.06L508.42,296.01L510.28,294.3L510.89,294.94L512.1,294.07L512.71,294.04L513.3,293.03L513.9,294.12L516.24,288.35L516.82,289.43L517.96,290.37L518.53,289.65L519.1,288.75L519.66,289.34L523.5,291.91L524.04,294.61L525.63,298.12L526.16,300.04L528.23,302.47L528.75,302.27L530.27,305.57L530.77,305.74L531.27,306.07L531.77,304.93L534.7,310.72L535.18,310.63L536.61,311.58L537.08,310.92L538.94,315.39L539.4,314.52L539.86,314.05L540.32,312.49L541.68,310.71L542.12,311.32L542.57,311.72L543.01,313.32L544.34,313.81L544.77,312.94L545.21,312.11L545.64,314.11L546.93,316.89L547.35,317.89L549.04,321.21L549.45,319.84L550.69,321.38L551.1,321.35L551.51,320.88L551.92,321.74L552.32,320.33L552.72,320.51L553.12,322.31L553.52,323.21L553.92,321.89L555.5,324.82L555.89,325.27L556.28,325.48L556.67,323.31L557.44,323.99L557.82,324.98L559.34,329.98L559.72,328.51L560.46,328.72L560.83,330.31L561.57,329.94L561.94,330.74L562.67,331.73L563.04,330.98L563.4,331.45L563.76,331.16L564.12,331.13L564.48,331.42L564.83,329.85L566.95,334.45L567.3,333.61L568.34,334.54L568.68,334.39L569.02,334.41L569.37,335.25L569.71,335.43L570.04,336.62L571.72,333.19L572.05,334.16L572.72,334.64L573.05,335.9L574.03,334.37L574.35,334.77L576.28,338.73L576.59,338.14L577.23,337.77L577.54,338.63L578.17,338.89L578.48,339.11L579.1,339.48L579.41,340.42L579.72,339.82L580.02,340.46L580.33,340.51L581.84,344.21L582.14,341.72L582.74,342.41L583.04,341.67L584.22,342.57L584.52,340.98L585.68,341.34L585.97,340.34L586.55,340.46L586.83,341.32L587.69,341.81L587.97,341.27L588.25,341.48L588.53,340.5L589.1,341.02L589.38,340.22L589.65,340.84L589.93,340.26L590.21,339.81L590.49,340.79L591.04,340.21L591.31,340.17L592.67,337.67L592.94,338.76L593.21,338.35L593.48,339.45L594.54,337.67L594.81,338.4L595.33,338.43L595.6,339.27L595.86,339L596.12,339.38L596.38,339.81L596.64,339.79L596.9,340.54L597.93,344.19L598.18,343.49L598.44,342.15L599.45,345.29L599.71,344.8L599.96,344.68L601.7,347.59L601.95,346.68L602.19,346.92L602.44,346.33L602.68,347.98L603.41,348.3L603.65,347.15L603.9,347.27L604.14,346.47L604.86,348.23L605.33,347.89L605.57,346.78L605.81,347.25L606.28,346.74L606.52,346.8L607.22,346.95L607.45,346.19L607.69,345.27L607.92,346.55L608.15,346.66L608.38,346.44L608.61,346.79L608.84,347.57L609.53,347.55L609.76,348.02L610.21,347.2L610.44,347.95L610.66,348.68L611.11,350.4L611.56,349.54L611.78,349.86L612.01,351L612.45,350.47L612.67,349.84L613.99,353.94L614.21,353.8L614.43,353.25L615.29,352.62L615.51,353.62L616.15,352.76L616.36,353.19L616.58,353.44L617.63,352.47L617.84,352.41L618.05,353.1L618.26,352.69L618.47,351.6L618.89,352.76L619.1,351.97L619.3,351.56L620.74,353.66L620.95,353.14L621.35,354.03L621.76,353.65L621.96,353.94L623.36,357.88L623.56,357.44L623.76,357.3L623.96,356.87L624.15,357.49L624.35,357.93L624.55,357.77L624.74,358.11L624.94,359.15L625.72,357.72L625.91,358.59L626.88,359.79L627.07,359.16L627.26,358.48L627.64,357.58L628.02,358.18L628.21,358.62L628.59,358.67L628.78,360.51L629.15,360.71L629.34,361.39L630.83,363.9L631.01,363.52L631.38,363.82L631.56,364.87L631.75,366.48L632.11,364.33L632.29,364.37L633.02,363.99L633.2,362.63L634.81,365.04L634.98,364.9L635.34,363.32L635.86,363.6L636.04,362.93L636.91,362.91L637.08,363.94L637.6,364.11L637.78,363.48L638.46,364.38L638.63,364.52L639.99,367.33L640.16,367.01L640.49,367.48L640.66,366.92L640.83,367.34L640.99,367.74L642.15,366.38L642.32,367.1L642.97,366.07L643.14,366.34L643.3,366.51L643.46,366.14L643.79,367.13L643.95,366.56L644.11,366.54L644.27,366.98L644.43,365.91L644.6,366.32L644.76,365.75L645.24,365.37L645.4,366.46L645.56,366.79L645.87,366.17L646.03,365.73L646.19,364.97L646.66,365.9L646.82,366.91L647.14,364.78L647.6,365.96L647.76,366.1L648.07,365.11L648.38,365.69L648.54,366.06L649.61,368.43L649.77,367.38L650.22,366.88L650.37,367.29L650.53,367.8L651.58,371.24L651.73,370.63L652.33,370.13L652.63,370.48L652.77,371.07L653.22,370.27L653.51,370.57L653.66,371.01L653.81,370.73L653.95,371.22L654.1,372.49L654.54,371.81L654.83,372.49L654.97,373.36L655.12,372.51L655.55,374.13L655.7,374.26L656.13,373.79L656.41,374.43L656.56,374.23L657.55,375.75L657.69,375.87L659.37,373.13L659.51,373.65L659.92,373.09L660.61,374.91L660.75,374.55L660.88,375.09L661.29,374.32L661.43,374.38L661.57,374.23L661.84,373.09L662.24,374.08L662.38,374.49L663.58,378.93L663.71,378.87L663.85,378.08L664.11,379.19L664.64,378.41L664.77,377.95L665.16,377.67L665.3,378.77L665.95,380.24L666.34,379.77L666.47,380L666.72,379.3L666.85,380.61L667.37,382.26L667.62,381.38L667.75,381.13L668.89,384.73L669.02,384.4L669.65,384.85L669.77,384.1L670.89,385.78L671.01,385.44L672,384.53L672.12,385.12L672.97,382.2L673.09,382.51L673.21,382.56L673.82,386.08L674.29,385.75L674.41,385.86L675.13,387.23L675.37,386.59L675.48,386.26L676.07,386.38L676.31,385.61L676.42,385.68L677.59,383.96L677.7,384.12L677.93,384.03L678.51,385.95L678.85,385.8L678.97,385.93L680.33,389.57L680.44,389.47L680.55,389.45L681.11,389.44L681.22,390.28L682.11,393.08L682.33,392.45L682.44,392.22L684.41,394.59L684.51,395.19L684.73,394.93L685.48,395.33L685.59,395.24L686.86,392.77L686.97,393.29L687.07,393.72L687.39,394.73L687.6,393.87L687.7,393.05L688.53,391.26L688.64,391.85L689.36,393.44L689.46,393.05L689.57,392.27L691.09,395.59L691.2,395.5L691.3,395.57L691.6,394.1L691.7,394.14" style="vector-effect: non-scaling-stroke; fill: none; stroke: rgb(44, 160, 44); stroke-opacity: 1; stroke-width: 2px; opacity: 1;"/></g><g class="points"/><g class="text"/></g><g class="trace scatter trace8d6ab7" style="stroke-miterlimit: 2; opacity: 1;"><g class="fills"/><g class="errorbars"/><g class="lines"><path class="js-line" d="M0,21.42L69.44,60.97L110.06,91.6L138.88,96.7L161.23,103.85L179.49,110.97L194.94,122.36L208.31,136.26L220.11,141.77L230.67,147.65L240.21,155.53L248.93,158.34L256.95,162.63L264.37,159.48L271.29,160.97L277.75,166.69L283.82,169.12L289.55,168.4L294.97,169.69L300.1,171.17L304.99,170.3L309.65,174.22L314.11,174.81L318.37,175.78L322.46,180.35L326.39,181.95L330.17,185.18L333.81,187.7L337.33,187.6L340.72,190.49L344.01,190.01L347.19,194.84L350.27,193.73L356.17,195.48L358.99,197.44L361.73,199.05L364.4,198.92L367.01,203.88L369.54,207.05L372.02,208.86L374.43,212.72L376.79,212.1L379.09,210.41L383.54,211.4L385.7,212.87L387.81,215.69L389.87,217.08L393.88,221.45L395.82,219.66L397.73,222.15L399.61,223.02L401.44,225.27L403.25,225.01L406.76,229.93L408.48,234.61L410.16,235.67L411.82,235.59L413.45,236.44L415.05,235.74L419.71,240L421.21,242.48L424.16,244.94L425.6,247.87L429.81,250.12L431.17,252.91L432.51,251.41L433.84,251.24L435.15,252.94L436.44,253.16L437.72,254.94L438.98,253.55L440.22,255.55L441.45,255.29L443.87,255.98L445.05,255.26L449.66,258.13L450.78,257.43L452.98,261L454.06,260.4L455.13,261.62L456.19,265.92L457.24,264.71L458.28,266.72L459.31,268.27L460.33,265.67L461.33,266.92L462.33,266.95L463.32,264.78L464.29,266.8L465.26,266.82L466.22,265.31L468.11,264.62L469.04,264.82L470.88,266.41L471.79,267.73L473.58,271.66L474.46,271.72L475.33,271.44L476.2,270.3L477.06,272.53L477.91,272.64L478.76,275.46L479.6,274.85L481.25,274.93L482.07,273.13L482.88,270.89L483.69,271.83L484.49,271.71L485.28,272.88L487.62,271.71L488.38,272.7L489.15,272.97L489.9,272.08L491.4,271.43L492.14,271.66L494.32,273.99L495.04,272.98L497.86,277.22L498.56,277.02L500.61,279.53L501.28,281.18L503.28,281.05L503.94,283.56L506.52,285.8L507.16,285.66L508.42,288L509.04,287.05L510.89,285.71L511.5,286.02L512.71,283.32L513.3,284.81L513.9,283.99L514.49,284.72L515.08,284.21L515.66,285.06L517.96,288.12L518.53,288.17L519.1,288.23L519.66,287.47L520.77,290.9L521.32,289.83L521.87,288.53L522.42,290.46L523.5,290.19L524.04,291.83L525.63,292.28L526.16,293.55L527.2,296.16L527.72,296.23L528.75,297.74L529.26,297.71L529.76,297.6L530.27,298.57L531.77,301.21L532.26,302.08L533.73,303.95L534.22,303.01L535.18,301.44L535.66,302.31L536.13,301.36L536.61,303.64L538.48,304.75L538.94,306.01L539.86,305.97L540.32,304.76L540.77,304.53L541.23,306.71L542.57,306.12L543.01,305.83L543.9,307.02L544.34,306.85L545.64,307.73L546.07,306.91L548.2,308.99L548.62,308.06L549.45,308.48L549.87,309.69L550.69,308.33L551.1,308.68L551.51,309.69L553.92,310.15L554.32,311.25L555.89,313.26L556.28,312.47L557.05,313.81L557.44,315.35L560.46,321.67L560.83,321.06L561.2,321.03L561.94,320.55L562.31,319.59L564.12,316.11L564.48,317.03L565.55,314.88L565.9,315.58L566.25,315.99L567.3,313.5L567.65,314.88L567.99,313.19L568.34,313.91L568.68,314.37L570.38,317.89L570.72,317.03L571.05,317.08L571.39,315.79L572.05,316.68L572.39,317.6L573.05,315.93L573.37,317.47L574.03,317.33L574.35,317.11L575.32,318.63L575.64,318.13L576.91,321.28L577.23,320.42L577.85,321.81L578.17,321.53L578.48,320.74L579.41,319.52L579.72,320.66L580.02,320.79L580.33,319.37L580.94,318.09L581.24,318.73L581.54,318.69L581.84,318.23L582.14,319.76L583.34,320.23L583.63,320.93L584.22,324.18L584.52,323.4L584.81,324.18L585.39,323.78L585.68,323.16L585.97,323.22L586.26,324.4L588.82,329.61L589.1,330.09L589.38,329.82L589.65,330.7L590.49,330.04L590.76,331.19L591.86,330.71L592.13,331.1L592.4,330.85L592.67,331.68L593.48,331.56L593.74,331.8L594.01,331.55L594.28,332.28L594.54,332.66L595.6,334.68L595.86,334.43L596.38,336.31L596.64,335.43L596.9,334.69L598.18,337.72L598.44,337.23L598.69,337.62L599.45,336.17L599.71,336.63L599.96,336.94L600.71,337.96L600.96,337.15L601.21,336.64L601.45,337.03L601.7,337.38L602.19,336.46L602.44,337.1L602.68,337.81L602.93,337.5L603.17,337.96L603.41,336.41L605.33,340.47L605.57,339.23L606.52,340.36L606.75,339.98L606.99,340.25L608.15,338.9L608.38,339.81L608.84,339.33L609.3,340.66L609.53,341.32L610.66,342.95L610.89,342.68L611.56,342.96L611.78,343.2L612.01,342.59L612.23,342.79L612.45,343.61L612.67,341.83L613.33,342L613.55,342.49L614.86,339.35L615.08,339.75L615.29,340L616.15,339.72L616.36,339.92L616.58,339.9L616.79,340.72L618.26,343.16L618.47,343.43L619.51,342.89L619.72,343.02L621.15,344.87L621.35,343.59L624.35,349.36L624.55,349L624.74,348.67L626.88,352.9L627.07,353.51L627.64,355.65L627.83,355.4L628.02,354.21L628.59,354.43L628.78,353.33L629.71,354.96L629.9,354.13L630.09,353.51L631.01,353.87L631.2,354.39L632.11,354.59L632.29,353.8L632.47,353.89L632.66,352.82L632.84,352.36L633.2,353.22L633.38,353.79L633.74,354.42L633.92,354.03L634.09,352.54L634.27,351.5L634.81,351.62L634.98,352.05L635.16,351.51L635.51,352.44L635.86,351.78L636.04,351.29L636.21,350.88L636.39,351.76L636.56,352.27L637.08,352.03L637.26,351.1L637.78,351.11L637.95,351.5L639.14,352.65L639.31,351.83L639.99,349.98L640.32,350.79L640.49,351.1L641.66,352.63L641.82,352.52L642.32,352.59L642.48,353.8L643.14,355.13L643.46,354.95L643.63,355.14L644.11,355.36L644.27,354.87L644.43,354.51L644.76,356.14L645.24,355.36L645.4,355.2L645.56,355.31L645.71,354.63L645.87,353.85L646.03,354.68L646.66,354.47L646.82,354.11L647.14,354.72L647.29,354.97L647.76,354.61L647.92,355.02L648.07,355.29L648.23,354.83L648.54,355.73L648.69,355.49L648.85,356.14L649.31,356.67L649.61,356.37L649.77,355.95L650.98,357.31L651.13,357.43L651.88,357.48L652.03,356.93L652.48,357.51L652.63,356.85L652.77,356.39L653.07,357.39L653.37,356.56L653.51,355.67L653.81,355.08L654.1,355.51L654.25,355.94L654.97,356.45L655.12,356.1L655.26,355.77L655.84,354.23L656.13,355.06L656.27,354.77L658.25,359.05L658.39,358.82L658.53,358.08L659.51,359.91L659.65,359.76L660.75,362.11L660.88,361.58L661.7,360.88L661.84,361.49L662.24,360.7L662.38,361.28L662.51,361.45L665.56,366.42L665.69,366.13L665.82,365.5L666.72,364.14L666.98,364.6L667.11,364.95L667.24,364.49L667.49,365.62L667.62,365.98L668.51,364.44L668.64,364.82L669.14,365.36L669.27,364.6L669.4,365.04L669.9,365.57L670.27,364.97L670.39,364.24L671.38,365.05L671.51,364.59L671.75,365.14L672.24,364.45L672.36,364.51L673.45,362.67L673.58,362.23L676.42,366.88L676.54,366.08L676.66,365.8L677.59,364.48L677.82,365L677.93,365.28L678.39,366.31L678.62,365.38L678.74,365.26L679.76,365.78L679.87,365.25L681.33,370.46L681.45,370.26L682.22,371.43L682.33,370.87L682.44,371.06L683.54,373.06L683.86,372.69L683.97,372.08L685.37,375.49L685.48,375.48L686.01,376.57L686.23,375.93L686.33,375.99L686.76,376.45L686.97,375.47L687.18,375.64L687.28,376.34L687.7,375.69L687.91,376.19L688.01,376.96L688.22,377.16L688.43,376.38L688.53,376.44L688.64,376.14L689.77,377.31L689.87,376.89L691.09,378.83" style="vector-effect: non-scaling-stroke; fill: none; stroke: rgb(214, 39, 40); stroke-opacity: 1; stroke-width: 2px; opacity: 1;"/></g><g class="points"/><g class="text"/></g></g></g><g class="overplot"/><path class="xlines-above crisp" d="M0,0" style="fill: none;"/><path class="ylines-above crisp" d="M0,0" style="fill: none;"/><g class="overlines-above"/><g class="xaxislayer-above"><g class="xtick"><text text-anchor="middle" x="0" y="533" transform="translate(80,0)" style="font-family: 'Open Sans', verdana, arial, sans-serif; font-size: 12px; fill: rgb(68, 68, 68); fill-opacity: 1; white-space: pre;">10M</text></g><g class="xtick"><text text-anchor="middle" x="0" y="530" transform="translate(149.44,0)" style="font-family: 'Open Sans', verdana, arial, sans-serif; font-size: 9px; fill: rgb(68, 68, 68); fill-opacity: 1; white-space: pre;">2</text></g><g class="xtick"><text text-anchor="middle" x="0" y="530" transform="translate(241.23,0)" style="font-family: 'Open Sans', verdana, arial, sans-serif; font-size: 9px; fill: rgb(68, 68, 68); fill-opacity: 1; white-space: pre;">5</text></g><g class="xtick"><text text-anchor="middle" x="0" y="533" transform="translate(310.66999999999996,0)" style="font-family: 'Open Sans', verdana, arial, sans-serif; font-size: 12px; fill: rgb(68, 68, 68); fill-opacity: 1; white-space: pre;">100M</text></g><g class="xtick"><text text-anchor="middle" x="0" y="530" transform="translate(380.1,0)" style="font-family: 'Open Sans', verdana, arial, sans-serif; font-size: 9px; fill: rgb(68, 68, 68); fill-opacity: 1; white-space: pre;">2</text></g><g class="xtick"><text text-anchor="middle" x="0" y="530" transform="translate(471.9,0)" style="font-family: 'Open Sans', verdana, arial, sans-serif; font-size: 9px; fill: rgb(68, 68, 68); fill-opacity: 1; white-space: pre;">5</text></g><g class="xtick"><text text-anchor="middle" x="0" y="533" transform="translate(541.3299999999999,0)" style="font-family: 'Open Sans', verdana, arial, sans-serif; font-size: 12px; fill: rgb(68, 68, 68); fill-opacity: 1; white-space: pre;">1B</text></g><g class="xtick"><text text-anchor="middle" x="0" y="530" transform="translate(610.77,0)" style="font-family: 'Open Sans', verdana, arial, sans-serif; font-size: 9px; fill: rgb(68, 68, 68); fill-opacity: 1; white-space: pre;">2</text></g><g class="xtick"><text text-anchor="middle" x="0" y="530" transform="translate(702.56,0)" style="font-family: 'Open Sans', verdana, arial, sans-serif; font-size: 9px; fill: rgb(68, 68, 68); fill-opacity: 1; white-space: pre;">5</text></g><g class="xtick"><text text-anchor="middle" x="0" y="533" transform="translate(772,0)" style="font-family: 'Open Sans', verdana, arial, sans-serif; font-size: 12px; fill: rgb(68, 68, 68); fill-opacity: 1; white-space: pre;">10B</text></g></g><g class="yaxislayer-above"><g class="ytick"><text text-anchor="end" x="79" y="3.15" transform="translate(0,504.3)" style="font-family: 'Open Sans', verdana, arial, sans-serif; font-size: 9px; fill: rgb(68, 68, 68); fill-opacity: 1; white-space: pre;">7</text></g><g class="ytick"><text text-anchor="end" x="79" y="3.15" transform="translate(0,490.06)" style="font-family: 'Open Sans', verdana, arial, sans-serif; font-size: 9px; fill: rgb(68, 68, 68); fill-opacity: 1; white-space: pre;">8</text></g><g class="ytick"><text text-anchor="end" x="79" y="3.15" transform="translate(0,477.49)" style="font-family: 'Open Sans', verdana, arial, sans-serif; font-size: 9px; fill: rgb(68, 68, 68); fill-opacity: 1; white-space: pre;">9</text></g><g class="ytick"><text text-anchor="end" x="76" y="2.1999999999999993" transform="translate(0,466.25)" style="font-family: 'Open Sans', verdana, arial, sans-serif; font-size: 12px; fill: rgb(68, 68, 68); fill-opacity: 1; white-space: pre;">100μ</text></g><g class="ytick"><text text-anchor="end" x="79" y="3.15" transform="translate(0,392.29)" style="font-family: 'Open Sans', verdana, arial, sans-serif; font-size: 9px; fill: rgb(68, 68, 68); fill-opacity: 1; white-space: pre;">2</text></g><g class="ytick"><text text-anchor="end" x="79" y="3.15" transform="translate(0,349.03)" style="font-family: 'Open Sans', verdana, arial, sans-serif; font-size: 9px; fill: rgb(68, 68, 68); fill-opacity: 1; white-space: pre;">3</text></g><g class="ytick"><text text-anchor="end" x="79" y="3.15" transform="translate(0,318.34000000000003)" style="font-family: 'Open Sans', verdana, arial, sans-serif; font-size: 9px; fill: rgb(68, 68, 68); fill-opacity: 1; white-space: pre;">4</text></g><g class="ytick"><text text-anchor="end" x="79" y="3.15" transform="translate(0,294.53)" style="font-family: 'Open Sans', verdana, arial, sans-serif; font-size: 9px; fill: rgb(68, 68, 68); fill-opacity: 1; white-space: pre;">5</text></g><g class="ytick"><text text-anchor="end" x="79" y="3.15" transform="translate(0,275.08000000000004)" style="font-family: 'Open Sans', verdana, arial, sans-serif; font-size: 9px; fill: rgb(68, 68, 68); fill-opacity: 1; white-space: pre;">6</text></g><g class="ytick"><text text-anchor="end" x="79" y="3.15" transform="translate(0,258.63)" style="font-family: 'Open Sans', verdana, arial, sans-serif; font-size: 9px; fill: rgb(68, 68, 68); fill-opacity: 1; white-space: pre;">7</text></g><g class="ytick"><text text-anchor="end" x="79" y="3.15" transform="translate(0,244.39)" style="font-family: 'Open Sans', verdana, arial, sans-serif; font-size: 9px; fill: rgb(68, 68, 68); fill-opacity: 1; white-space: pre;">8</text></g><g class="ytick"><text text-anchor="end" x="79" y="3.15" transform="translate(0,231.82)" style="font-family: 'Open Sans', verdana, arial, sans-serif; font-size: 9px; fill: rgb(68, 68, 68); fill-opacity: 1; white-space: pre;">9</text></g><g class="ytick"><text text-anchor="end" x="76" y="2.1999999999999993" transform="translate(0,220.57999999999998)" style="font-family: 'Open Sans', verdana, arial, sans-serif; font-size: 12px; fill: rgb(68, 68, 68); fill-opacity: 1; white-space: pre;">0.001</text></g><g class="ytick"><text text-anchor="end" x="79" y="3.15" transform="translate(0,146.63)" style="font-family: 'Open Sans', verdana, arial, sans-serif; font-size: 9px; fill: rgb(68, 68, 68); fill-opacity: 1; white-space: pre;">2</text></g><g class="ytick"><text text-anchor="end" x="79" y="3.15" transform="translate(0,103.37)" style="font-family: 'Open Sans', verdana, arial, sans-serif; font-size: 9px; fill: rgb(68, 68, 68); fill-opacity: 1; white-space: pre;">3</text></g></g><g class="overaxes-above"/></g></g><g class="polarlayer"/><g class="ternarylayer"/><g class="geolayer"/><g class="funnelarealayer"/><g class="pielayer"/><g class="treemaplayer"/><g class="sunburstlayer"/><g class="glimages"/><defs id="topdefs-64968d"><g class="clips"/><clipPath id="legend64968d"><rect width="202" height="86" x="0" y="0"/></clipPath></defs><g class="layer-above"><g class="imagelayer"/><g class="shapelayer"/></g><g class="infolayer"><g class="legend" pointer-events="all" transform="translate(785.84,100)"><rect class="bg" shape-rendering="crispEdges" style="stroke: rgb(68, 68, 68); stroke-opacity: 1; fill: rgb(255, 255, 255); fill-opacity: 1; stroke-width: 0px;" width="202" height="86" x="0" y="0"/><g class="scrollbox" transform="" clip-path="url('#legend64968d')"><g class="groups"><g class="traces" transform="translate(0,14.5)" style="opacity: 1;"><text class="legendtext" text-anchor="start" x="40" y="4.680000000000001" style="font-family: 'Open Sans', verdana, arial, sans-serif; font-size: 12px; fill: rgb(68, 68, 68); fill-opacity: 1; white-space: pre;">FlipHash (64 bits)</text><g class="layers" style="opacity: 1;"><g class="legendfill"/><g class="legendlines"><path class="js-line" d="M5,0h30" style="fill: none; stroke: rgb(31, 119, 180); stroke-opacity: 1; stroke-width: 2px;"/></g><g class="legendsymbols"><g class="legendpoints"/></g></g><rect class="legendtoggle" x="0" y="-9.5" width="196.6875" height="19" style="fill: rgb(0, 0, 0); fill-opacity: 0;"/></g><g class="traces" transform="translate(0,33.5)" style="opacity: 1;"><text class="legendtext" text-anchor="start" x="40" y="4.680000000000001" style="font-family: 'Open Sans', verdana, arial, sans-serif; font-size: 12px; fill: rgb(68, 68, 68); fill-opacity: 1; white-space: pre;">FlipHash (XXH3, 128 bits)</text><g class="layers" style="opacity: 1;"><g class="legendfill"/><g class="legendlines"><path class="js-line" d="M5,0h30" style="fill: none; stroke: rgb(255, 127, 14); stroke-opacity: 1; stroke-width: 2px;"/></g><g class="legendsymbols"><g class="legendpoints"/></g></g><rect class="legendtoggle" x="0" y="-9.5" width="196.6875" height="19" style="fill: rgb(0, 0, 0); fill-opacity: 0;"/></g><g class="traces" transform="translate(0,52.5)" style="opacity: 1;"><text class="legendtext" text-anchor="start" x="40" y="4.680000000000001" style="font-family: 'Open Sans', verdana, arial, sans-serif; font-size: 12px; fill: rgb(68, 68, 68); fill-opacity: 1; white-space: pre;">FlipHash (XXH3, 64 bits)</text><g class="layers" style="opacity: 1;"><g class="legendfill"/><g class="legendlines"><path class="js-line" d="M5,0h30" style="fill: none; stroke: rgb(44, 160, 44); stroke-opacity: 1; stroke-width: 2px;"/></g><g class="legendsymbols"><g class="legendpoints"/></g></g><rect class="legendtoggle" x="0" y="-9.5" width="196.6875" height="19" style="fill: rgb(0, 0, 0); fill-opacity: 0;"/></g><g class="traces" transform="translate(0,71.5)" style="opacity: 1;"><text class="legendtext" text-anchor="start" x="40" y="4.680000000000001" style="font-family: 'Open Sans', verdana, arial, sans-serif; font-size: 12px; fill: rgb(68, 68, 68); fill-opacity: 1; white-space: pre;">JumpHash</text><g class="layers" style="opacity: 1;"><g class="legendfill"/><g class="legendlines"><path class="js-line" d="M5,0h30" style="fill: none; stroke: rgb(214, 39, 40); stroke-opacity: 1; stroke-width: 2px;"/></g><g class="legendsymbols"><g class="legendpoints"/></g></g><rect class="legendtoggle" x="0" y="-9.5" width="196.6875" height="19" style="fill: rgb(0, 0, 0); fill-opacity: 0;"/></g></g></g><rect class="scrollbar" rx="20" ry="3" width="0" height="0" style="fill: rgb(128, 139, 164); fill-opacity: 1;" x="0" y="0"/></g><g class="g-gtitle"><text class="gtitle" x="500" y="50" text-anchor="middle" dy="0em" style="font-family: 'Open Sans', verdana, arial, sans-serif; font-size: 17px; fill: rgb(68, 68, 68); opacity: 1; font-weight: normal; white-space: pre;">Regularity of the hash function</text></g><g class="g-xtitle"><text class="xtitle" x="426" y="572" text-anchor="middle" style="font-family: 'Open Sans', verdana, arial, sans-serif; font-size: 14px; fill: rgb(68, 68, 68); opacity: 1; font-weight: normal; white-space: pre;">Number of hashed keys</text></g><g class="g-ytitle" transform="translate(-5.890625,0)"><text class="ytitle" transform="rotate(-90,42,310)" x="42" y="310" text-anchor="middle" style="font-family: 'Open Sans', verdana, arial, sans-serif; font-size: 14px; fill: rgb(68, 68, 68); opacity: 1; font-weight: normal; white-space: pre;">L2 distance from the uniform distribution</text></g></g></svg>